<svg width="211" height="161" viewBox="0 0 211 161" fill="none" xmlns="http://www.w3.org/2000/svg">
<g clip-path="url(#clip0_11_16893)">
<mask id="mask0_11_16893" style="mask-type:luminance" maskUnits="userSpaceOnUse" x="0" y="0" width="211" height="161">
<path d="M175.404 0.564154L0.0338135 97.353L34.9639 160.642L210.334 63.8533L175.404 0.564154Z" fill="white"/>
</mask>
<g mask="url(#mask0_11_16893)">
<path d="M188.144 33.7119C187.416 32.3473 186.703 30.9791 185.998 29.6063C185.743 30.4401 185.443 31.259 185.097 32.0589C184.97 32.3556 184.773 32.6176 184.524 32.823C178.416 47.3515 163.166 58.0185 150.579 66.5487C134.855 77.202 118.564 86.9924 101.777 95.8768C88.7232 102.788 75.3676 109.457 61.7579 115.214C50.1254 120.138 37.6916 124.434 24.9041 124.287C23.3629 124.284 21.8238 124.168 20.2993 123.941C22.9352 128.291 25.4812 132.685 27.9373 137.125C28.3724 137.209 28.7827 137.391 29.1377 137.656C34.6926 141.66 45.1166 139.154 51.2659 137.7C58.4021 135.917 65.3669 133.508 72.0796 130.5C86.3817 124.309 100.444 117.277 114.181 109.929C130.034 101.464 145.436 92.1801 160.326 82.1155C167.549 77.1821 174.449 71.792 180.984 65.978C186.08 61.4801 197.961 52.3622 193.494 44.3775C193.289 44.0229 193.194 43.6152 193.221 43.2064C191.198 40.2663 189.76 36.7375 188.146 33.7119" fill="#999999"/>
<path d="M34.1213 117.481C39.3776 116.589 44.545 115.235 49.5639 113.436C60.1121 109.779 70.1269 104.739 80.1591 99.8846C92.8427 93.7486 105.343 87.2662 117.543 80.2124C129.242 73.4487 140.807 66.3227 151.867 58.5496C162.229 51.2668 174.54 42.4364 181.331 31.4715C181.353 31.3125 181.394 31.1563 181.451 31.0065C182.599 28.083 183.795 24.2994 180.797 22.0377C177.907 19.857 172.868 20.3101 169.417 20.4943C162.676 20.8564 156.016 22.4174 149.599 24.4641C135.04 29.1101 121.488 37.0216 108.003 44.0919C84.1934 56.5745 60.8434 70.3827 40.2143 87.7332C34.9526 92.1384 29.93 96.8221 25.1685 101.764C22.419 104.633 16.2121 110.379 17.1154 115.039C18.1071 120.156 30.3951 118.069 34.1213 117.481Z" fill="#CCCCCC"/>
<path d="M13.6418 113.237C15.8952 116.764 18.1164 120.34 20.2968 123.943C21.8216 124.169 23.3606 124.285 24.9019 124.289C37.6911 124.436 50.1233 120.14 61.7567 115.219C75.3661 109.46 88.7209 102.792 101.776 95.8814C118.562 86.9962 134.854 77.2052 150.578 66.5522C163.166 58.0225 178.415 47.355 184.523 32.8265C184.772 32.6213 184.969 32.3591 185.096 32.0619C185.442 31.2614 185.742 30.4421 185.997 29.608C184.174 26.0584 182.427 22.4695 180.757 18.8414C180.634 18.6008 180.575 18.3323 180.586 18.0621C180.597 17.792 180.678 17.5292 180.82 17.2994C177.818 16.083 174.216 15.9257 171.196 15.9641C156.871 16.1473 142.918 21.2667 130.148 27.3893C101.24 41.2495 72.1771 56.0342 46.3595 75.181C40.044 79.8559 33.9924 84.8775 28.2329 90.2225C23.2352 94.8692 17.8075 99.7427 14.1447 105.563C11.7874 109.309 9.67478 114.506 11.8824 118.813C12.5285 120.065 13.4846 121.13 14.6593 121.908C13.4736 119.477 12.3072 117.045 11.1601 114.61C10.9947 114.282 10.9629 113.903 11.0713 113.552C11.1797 113.201 11.42 112.906 11.7415 112.728C12.0631 112.551 12.4409 112.505 12.7956 112.6C13.1504 112.695 13.4543 112.925 13.6436 113.239M17.1175 115.041C16.2143 110.381 22.4199 104.634 25.1707 101.766C29.9305 96.8231 34.9518 92.1386 40.2128 87.7329C60.8408 70.3816 84.1923 56.5748 108.002 44.0916C121.49 37.0207 135.037 29.1108 149.598 24.4638C156.014 22.4154 162.673 20.8529 169.416 20.494C172.867 20.3098 177.904 19.8568 180.796 22.0374C183.797 24.3002 182.599 28.085 181.45 31.0062C181.392 31.1562 181.352 31.3122 181.329 31.4712C174.542 42.4339 162.23 51.2677 151.865 58.5494C140.805 66.3225 129.241 73.4485 117.541 80.2119C105.341 87.2663 92.8428 93.7472 80.1576 99.8841C70.1259 104.737 60.11 109.782 49.5636 113.435C44.5447 115.234 39.3772 116.588 34.121 117.48C30.3964 118.071 18.1071 120.156 17.1154 115.039" fill="#1C1C1C"/>
<path d="M48.4811 144.37C55.7084 142.859 62.801 140.763 69.6881 138.101C87.1754 131.136 104.222 122.372 120.702 113.32C138.537 103.521 156.444 92.969 172.571 80.513C180.09 74.704 186.906 68.818 192.424 61.1373C195.418 56.9691 198.712 51.609 198.4 46.3451C198.266 46.5134 198.098 46.6519 197.907 46.7521C197.716 46.8519 197.507 46.9113 197.292 46.926C197.077 46.9411 196.861 46.9109 196.659 46.8379C196.456 46.7653 196.271 46.651 196.115 46.5027C195.009 45.5364 194.036 44.4288 193.22 43.2085C193.194 43.6175 193.289 44.0257 193.494 44.3807C197.96 52.3649 186.079 61.4821 180.983 65.98C174.449 71.7938 167.549 77.1832 160.327 82.1149C145.438 92.1795 130.036 101.464 114.184 109.93C100.446 117.277 86.3841 124.309 72.0825 130.501C65.3694 133.508 58.4043 135.917 51.2679 137.7C45.119 139.153 34.695 141.66 29.1387 137.654C28.7839 137.389 28.3736 137.207 27.9385 137.123C28.3344 137.84 28.7442 138.551 29.1326 139.27C30.5873 141.965 26.5335 144.227 24.9804 141.665C25.2097 142.159 25.5636 142.586 26.0077 142.904C31.6586 146.983 39.4664 146.297 45.9058 144.929C46.7683 144.747 47.6264 144.56 48.4811 144.37Z" fill="#1C1C1C"/>
<path d="M29.1305 139.272C28.7416 138.553 28.3312 137.842 27.9365 137.124C25.4914 132.689 22.9454 128.294 20.2984 123.941C18.1154 120.34 15.8948 116.764 13.6399 113.237C13.4507 112.922 13.1469 112.694 12.7924 112.598C12.4378 112.503 12.0601 112.549 11.7387 112.726C11.4173 112.904 11.1772 113.199 11.0688 113.549C10.9604 113.9 10.9922 114.279 11.1576 114.607C12.3019 117.041 13.4683 119.474 14.6568 121.905C17.9064 128.558 21.3126 135.172 24.9284 141.591C24.9439 141.619 24.9631 141.637 24.9796 141.665C26.5328 144.227 30.5866 141.965 29.1305 139.272Z" fill="#1C1C1C"/>
<path d="M180.759 18.8411C182.427 22.4736 184.173 26.0627 185.998 29.6083C186.704 30.981 187.416 32.3493 188.145 33.7139C189.76 36.7403 191.197 40.2689 193.22 43.2085C194.036 44.4288 195.009 45.5364 196.115 46.5027C196.271 46.6512 196.456 46.7655 196.658 46.8385C196.861 46.9112 197.076 46.9414 197.291 46.9264C197.506 46.9117 197.715 46.8524 197.906 46.7526C198.097 46.6525 198.265 46.514 198.399 46.3459C198.541 46.1661 198.644 45.9588 198.702 45.7368C198.759 45.5152 198.77 45.2838 198.733 45.0576C198.031 40.1822 194.561 35.7088 192.16 31.4976C189.414 26.6821 186.545 21.9654 183.516 17.3221C183.306 16.9727 182.97 16.718 182.576 16.612C182.183 16.5059 181.764 16.5566 181.407 16.7534C181.05 16.9503 180.784 17.2779 180.664 17.6672C180.544 18.0566 180.58 18.4771 180.764 18.8406" fill="#1C1C1C"/>
<path d="M28.5589 123.756C30.0205 124.858 31.3553 126.119 32.5389 127.515C33.1547 128.174 33.6772 128.895 34.2442 129.587L35.804 131.754L37.2259 134.015C37.651 134.802 38.1247 135.556 38.501 136.376C39.3476 137.998 40.0096 139.711 40.4746 141.481C39.0116 140.381 37.676 139.122 36.4922 137.726C35.8758 137.069 35.3568 136.345 34.7887 135.655L33.2318 133.488L31.8133 131.224C31.3871 130.439 30.916 129.681 30.5382 128.864C29.6934 127.241 29.0304 125.529 28.5612 123.761" fill="#141414"/>
<path d="M40.1419 119.018C41.7707 120.436 43.2631 122.003 44.5992 123.7C45.2927 124.511 45.8895 125.376 46.5314 126.216L48.3161 128.825L49.9619 131.524C50.4614 132.456 51.0098 133.357 51.4603 134.322C52.457 136.238 53.2698 138.245 53.8875 140.315C52.2599 138.909 50.7711 137.35 49.4415 135.659C48.7468 134.848 48.1494 133.974 47.5033 133.132L45.7112 130.506L44.0623 127.789C43.5598 126.854 43.0122 125.947 42.5588 124.982C41.566 123.074 40.7569 121.076 40.1428 119.014" fill="#141414"/>
<path d="M53.9846 118.754C55.0754 119.722 56.0628 120.802 56.9304 121.975C57.3847 122.518 57.7471 123.106 58.1618 123.665C58.5329 124.25 58.909 124.828 59.2941 125.401C59.6329 126.002 59.9803 126.598 60.3357 127.191C60.6453 127.816 61.0098 128.402 61.2887 129.053C61.9452 130.357 62.4623 131.726 62.8315 133.138C61.5137 132.445 60.322 131.534 59.3071 130.445C58.8026 129.924 58.3264 129.377 57.8803 128.807C57.4628 128.219 57.053 127.625 56.6513 127.027C56.2991 126.397 55.9555 125.763 55.621 125.124C55.3122 124.469 55.0383 123.797 54.8016 123.113C54.2881 121.716 54.0118 120.242 53.9846 118.754Z" fill="#141414"/>
<path d="M63.2975 113.031C64.513 113.721 65.6238 114.581 66.5964 115.584C67.0984 116.043 67.5121 116.567 67.9659 117.061L69.1956 118.639L70.2882 120.314C70.6044 120.906 70.9669 121.464 71.2369 122.091C71.8687 123.339 72.317 124.672 72.5679 126.048C71.3504 125.36 70.2381 124.5 69.2648 123.496C68.7612 123.036 68.3474 122.509 67.8946 122.018L66.6696 120.438L65.5811 118.763C65.2623 118.172 64.9028 117.611 64.632 116.986C64.002 115.737 63.5522 114.406 63.2966 113.031" fill="#141414"/>
<path d="M80.8396 103.925C82.212 105.3 83.472 106.783 84.6075 108.36C85.2014 109.107 85.7058 109.905 86.2632 110.669L87.8229 113.026L89.3014 115.439C89.7538 116.27 90.2634 117.063 90.6876 117.919C91.6328 119.617 92.4377 121.39 93.0948 123.219C91.4707 122.11 89.9955 120.797 88.7067 119.312C88.0362 118.606 87.4678 117.825 86.8584 117.073L85.2093 114.69L83.758 112.182C83.3344 111.312 82.873 110.463 82.5178 109.557C81.722 107.759 81.1595 105.867 80.8442 103.926" fill="#141414"/>
<path d="M104.937 91.1918C106.19 92.229 107.309 93.4172 108.269 94.7298C108.773 95.3469 109.18 96.0182 109.635 96.6629L110.847 98.6813L111.911 100.787C112.214 101.515 112.569 102.215 112.822 102.971C113.42 104.482 113.828 106.063 114.035 107.675C112.781 106.64 111.661 105.453 110.702 104.141C110.196 103.524 109.794 102.851 109.339 102.206L108.131 100.186L107.069 98.0851C106.764 97.3577 106.413 96.6558 106.161 95.899C105.563 94.3883 105.154 92.8089 104.943 91.1975" fill="#141414"/>
<path d="M122.859 77.3465C124.346 79.0583 125.733 80.8558 127.011 82.7297C127.679 83.6299 128.259 84.5705 128.9 85.4763C129.495 86.4102 130.101 87.3363 130.719 88.2544C131.294 89.1993 131.881 90.1374 132.48 91.0687C133.036 92.0311 133.65 92.9509 134.184 93.9347C135.35 95.88 136.399 97.8934 137.324 99.9642C135.445 98.6399 133.733 97.0934 132.226 95.3579C131.442 94.5218 130.767 93.6119 130.054 92.7237C129.394 91.799 128.745 90.8662 128.107 89.9251C127.519 88.9502 126.945 87.9688 126.386 86.9805C125.878 85.961 125.338 84.9622 124.908 83.9033C123.966 81.8067 123.279 79.6047 122.862 77.3447" fill="#141414"/>
<path d="M139.577 68.6767C141.035 70.0875 142.374 71.6146 143.583 73.2432C144.215 74.0176 144.756 74.8448 145.346 75.639L147.004 78.0948L148.567 80.6112C149.045 81.4786 149.579 82.3102 150.028 83.2014C151.018 84.9723 151.859 86.8218 152.545 88.7313C150.884 87.5341 149.373 86.1433 148.042 84.5882C147.353 83.8494 146.761 83.0351 146.127 82.2499L144.399 79.7777L142.858 77.1857C142.4 76.2872 141.905 75.4119 141.513 74.4788C140.641 72.6271 139.992 70.6789 139.578 68.6747" fill="#141414"/>
<path d="M159.825 58.0622C161.297 59.3396 162.632 60.7673 163.807 62.3221C164.421 63.061 164.94 63.8611 165.504 64.6297L167.051 67.0266L168.457 69.5101C168.874 70.3694 169.342 71.1973 169.71 72.0855C170.54 73.8501 171.182 75.6975 171.625 77.5967C170.15 76.3218 168.814 74.8952 167.639 73.3405C167.023 72.601 166.508 71.7999 165.943 71.0318L164.396 68.634L162.995 66.1478C162.575 65.2909 162.11 64.4603 161.741 63.5727C160.912 61.8082 160.268 59.9621 159.821 58.0646" fill="#141414"/>
<path d="M169.391 49.957C170.739 51.0074 171.958 52.2139 173.022 53.5509C173.578 54.1801 174.038 54.8675 174.544 55.5272L175.919 57.5945L177.151 59.7504C177.511 60.4996 177.922 61.2182 178.233 61.9979C178.949 63.5495 179.477 65.1813 179.805 66.8584C178.455 65.8101 177.235 64.6042 176.171 63.2664C175.614 62.6379 175.156 61.9484 174.649 61.29L173.277 59.2209L172.05 57.0625C171.688 56.3145 171.28 55.5941 170.967 54.8138C170.253 53.2624 169.723 51.6324 169.391 49.957Z" fill="#141414"/>
<path d="M176.246 42.7857C177.456 43.9798 178.554 45.2811 179.528 46.6738C180.038 47.328 180.458 48.0266 180.932 48.6998C181.359 49.3957 181.794 50.0866 182.236 50.7721C182.635 51.4855 183.04 52.194 183.452 52.898C183.819 53.633 184.244 54.3316 184.577 55.0923C185.348 56.6074 185.976 58.1904 186.455 59.821C185.001 58.8906 183.692 57.7524 182.569 56.4427C181.981 55.8264 181.499 55.1367 180.972 54.4734C180.5 53.7765 180.035 53.0741 179.577 52.3668C179.17 51.6283 178.771 50.8862 178.381 50.1404C178.041 49.364 177.665 48.6116 177.396 47.8039C176.773 46.1952 176.386 44.505 176.246 42.7857Z" fill="#141414"/>
<path d="M182.741 35.2311C183.929 36.1592 184.989 37.2406 185.893 38.4474C186.366 39.0076 186.745 39.6276 187.17 40.2195L188.292 42.0762L189.269 44.0138C189.542 44.6892 189.868 45.3347 190.09 46.0369C190.63 47.4448 190.978 48.9189 191.126 50.4195C189.935 49.4947 188.873 48.4141 187.97 47.2072C187.496 46.6476 187.122 46.0248 186.696 45.4335L185.577 43.5746L184.604 41.6352C184.328 40.961 184.007 40.3128 183.785 39.6106C183.246 38.2032 182.896 36.7301 182.745 35.2303" fill="#141414"/>
<path d="M187.107 36.2321C188.227 36.8384 189.246 37.615 190.128 38.5346C190.581 38.9512 190.945 39.4265 191.353 39.8778L192.434 41.3195L193.379 42.8542C193.644 43.4003 193.958 43.9116 194.176 44.4892C194.705 45.6484 195.05 46.8832 195.197 48.1486C194.075 47.5451 193.055 46.7694 192.173 45.85C191.719 45.4335 191.356 44.9532 190.948 44.5047L189.87 43.0617L188.929 41.5243C188.663 40.9798 188.351 40.4651 188.132 39.8882C187.604 38.7296 187.258 37.4966 187.107 36.2321Z" fill="#141414"/>
<path d="M37.9158 88.6217C38.0269 90.2797 37.9362 91.9451 37.6459 93.5811C37.5458 94.3901 37.3389 95.1686 37.1813 95.9594L36.5515 98.2872L35.7615 100.567C35.4417 101.31 35.1783 102.069 34.803 102.794C34.119 104.31 33.2519 105.736 32.2213 107.041C32.1072 105.383 32.1966 103.716 32.4874 102.079C32.5872 101.27 32.7984 100.494 32.9519 99.7006L33.588 97.3724L34.3779 95.0981C34.696 94.3546 34.9629 93.5967 35.337 92.8723C36.0207 91.357 36.8856 89.9303 37.9128 88.6234" fill="#141414"/>
<path d="M43.4702 88.4037C43.497 90.2401 43.4065 92.0763 43.199 93.9011C43.1419 94.7984 42.9936 95.6692 42.9117 96.5526C42.7822 97.4272 42.6684 98.3028 42.5702 99.1795C42.4242 100.049 42.2932 100.923 42.1777 101.799C42.0099 102.671 41.9161 103.55 41.7211 104.427C41.419 106.239 40.9984 108.029 40.4618 109.786C39.7942 108.028 39.4035 106.177 39.3035 104.299C39.211 103.37 39.2516 102.446 39.2529 101.516C39.3176 100.593 39.3999 99.6701 39.4992 98.748C39.6598 97.8349 39.8366 96.9255 40.0305 96.0194C40.2842 95.127 40.5037 94.2266 40.8475 93.3592C41.4629 91.5826 42.348 89.9109 43.4713 88.4031" fill="#141414"/>
<path d="M47.8898 92.2211C48.2358 93.2664 48.4574 94.3489 48.5502 95.446C48.6339 95.9603 48.618 96.4572 48.6654 96.9595C48.6617 97.4561 48.668 97.9525 48.684 98.4487C48.6496 98.9423 48.6246 99.4391 48.6092 99.9357C48.5399 100.435 48.5401 100.933 48.4353 101.444C48.2997 102.538 48.0339 103.612 47.6435 104.642C46.8807 103.78 46.3264 102.754 46.0235 101.643C45.8665 101.115 45.7495 100.575 45.673 100.029C45.6318 99.4841 45.6016 98.938 45.5822 98.3909C45.6241 97.8444 45.6774 97.2995 45.7427 96.7559C45.8402 96.2134 45.9781 95.679 46.1553 95.1571C46.5028 94.0603 47.096 93.0573 47.8894 92.2244" fill="#141414"/>
<path d="M53.5098 97.6158C53.9882 98.0951 54.3885 98.6462 54.6972 99.2489C54.8246 99.4857 54.9354 99.7311 55.0279 99.9836C55.0889 100.229 55.1566 100.472 55.2315 100.712C55.2541 100.963 55.2836 101.212 55.3206 101.463C55.3308 101.732 55.3213 102.001 55.2931 102.268C55.2341 102.944 55.0687 103.606 54.8034 104.23C54.087 104.047 53.452 103.631 52.9979 103.048C52.7924 102.792 52.6173 102.513 52.4762 102.217C52.3708 101.917 52.273 101.613 52.1831 101.307C52.1514 100.987 52.1296 100.669 52.1166 100.351C52.135 100.024 52.1925 99.7006 52.2874 99.3876C52.4895 98.6788 52.919 98.0562 53.5098 97.6158Z" fill="#141414"/>
<path d="M49.9755 82.1375C50.4783 82.3822 50.9486 82.6888 51.3751 83.0504C51.5234 83.1749 51.6605 83.3123 51.7845 83.4611C51.8737 83.6089 51.9673 83.7528 52.0643 83.8911C52.1144 84.053 52.1685 84.2149 52.2323 84.3753C52.2729 84.5645 52.2957 84.7572 52.3015 84.9506C52.3228 85.5109 52.2715 86.0713 52.1484 86.6182C51.5348 86.7716 50.8857 86.6812 50.3374 86.366C50.1051 86.2353 49.8933 86.0713 49.7083 85.8795C49.5569 85.6742 49.4115 85.4634 49.2743 85.2458C49.1888 85.0027 49.1143 84.7572 49.0483 84.5107C49.0118 84.2464 49.0148 83.9781 49.0571 83.7147C49.149 83.0896 49.4784 82.5239 49.9765 82.1355" fill="#141414"/>
<path d="M152.477 44.686C153.308 43.0558 154.3 41.5126 155.437 40.0797C155.965 39.348 156.565 38.6927 157.122 37.9998L158.909 36.0252L160.797 34.1483C161.467 33.5585 162.088 32.9231 162.795 32.3689C164.175 31.1669 165.673 30.1069 167.266 29.205C166.569 30.9088 165.667 32.521 164.58 34.0062C164.08 34.7637 163.491 35.4404 162.942 36.1556L161.151 38.1685L159.22 40.0451C158.532 40.6285 157.88 41.2464 157.147 41.7811C155.713 42.9338 154.145 43.9091 152.477 44.686Z" fill="#141414"/>
<path d="M149.133 40.9809C149.119 39.8563 149.3 38.7379 149.668 37.675C149.828 37.1722 150.017 36.6786 150.232 36.1965L150.947 34.8048L151.805 33.4972C152.12 33.0733 152.458 32.6665 152.816 32.2789C152.996 32.0837 153.183 31.8907 153.378 31.7063C153.543 31.5368 153.725 31.3838 153.92 31.2493C153.979 31.2101 154.042 31.1764 154.108 31.1486L154.148 31.1275L154.168 31.1153L154.178 31.1092L154.183 31.1048C154.154 31.1127 154.439 31.0358 154.318 31.069C154.3 31.0667 154.224 31.1257 154.272 31.0796C154.329 30.9769 154.215 30.6391 153.923 30.7618C153.903 30.6028 154.087 30.4198 154.287 30.387C154.395 30.3644 154.506 30.3637 154.615 30.3848C154.723 30.406 154.825 30.4487 154.916 30.5104C155.097 30.6709 155.232 30.877 155.306 31.1071C155.379 31.3374 155.39 31.5832 155.336 31.819C155.273 32.2178 155.196 32.4749 155.134 32.7335C155.072 32.9919 154.991 33.2526 154.907 33.5057C154.746 34.0087 154.557 34.5028 154.343 34.9856L153.625 36.3749L152.76 37.6752C152.445 38.0991 152.108 38.5053 151.749 38.8923C151.004 39.7339 150.118 40.4404 149.132 40.9804" fill="#141414"/>
<path d="M144.695 44.957C144.589 43.4549 144.586 41.9473 144.688 40.4449C144.692 39.7172 144.789 39.0143 144.816 38.3011C144.89 37.5951 144.948 36.8893 144.988 36.1831C145.078 35.482 145.149 34.7764 145.201 34.0662C145.307 33.3607 145.338 32.6524 145.468 31.9363C145.644 30.4404 145.925 28.9585 146.307 27.502C147.112 28.8441 147.649 30.3294 147.889 31.8757C148.019 32.6336 148.102 33.3989 148.137 34.167C148.135 34.9319 148.114 35.6988 148.074 36.4677C147.971 37.2291 147.85 37.9862 147.71 38.7392C147.535 39.4876 147.313 40.2244 147.046 40.9451C146.527 42.4206 145.728 43.7823 144.694 44.9558" fill="#141414"/>
<path d="M82.832 59.2813C83.5281 59.8175 83.9943 60.17 84.4028 60.5042C84.6347 60.6539 84.7753 60.8331 84.9696 60.9759C85.1213 61.1428 85.283 61.3003 85.4539 61.4475C85.5902 61.6273 85.7374 61.7986 85.8946 61.9603C86.0211 62.1652 86.1927 62.313 86.3273 62.5568C86.6372 62.9828 86.9524 63.4731 87.4415 64.2078C87.119 64.4499 86.7467 64.6176 86.3517 64.6986C85.9566 64.7795 85.5483 64.772 85.1566 64.6762C84.7807 64.5958 84.4187 64.4603 84.0824 64.2741C83.7688 64.0592 83.4706 63.8228 83.1895 63.5668C82.9535 63.2682 82.7382 62.9539 82.545 62.6261C82.3823 62.2787 82.2714 61.9093 82.216 61.5299C82.1475 61.1328 82.1668 60.7257 82.2734 60.3371C82.3796 59.9486 82.5709 59.5879 82.832 59.2813Z" fill="#141414"/>
<path d="M129.046 40.5447C129.727 40.1452 130.472 39.8674 131.248 39.7236C131.579 39.6543 131.913 39.6071 132.251 39.5822C132.577 39.5838 132.902 39.58 133.226 39.5709C133.549 39.6162 133.868 39.653 134.194 39.6851C134.526 39.748 134.853 39.832 135.174 39.9367C135.931 40.1646 136.641 40.5245 137.273 40.9999C136.734 41.6317 136.031 42.1014 135.241 42.3568C134.887 42.4798 134.523 42.5691 134.152 42.6238C133.787 42.6453 133.419 42.66 133.052 42.6675C132.687 42.6185 132.322 42.5619 131.963 42.4987C131.601 42.404 131.248 42.2748 130.91 42.1131C130.156 41.7712 129.51 41.2292 129.042 40.5459" fill="#141414"/>
<path d="M135.504 34.8864C135.59 34.2444 135.838 33.6348 136.224 33.1148C136.378 32.9007 136.554 32.7034 136.75 32.5263L137.359 32.0923L138.049 31.8048C138.933 31.5588 139.876 31.6328 140.711 32.0136C140.588 32.9231 140.148 33.76 139.469 34.377L138.857 34.8076L138.166 35.0916C137.912 35.1625 137.651 35.2064 137.388 35.2224C136.741 35.2715 136.093 35.1555 135.504 34.8852" fill="#141414"/>
<path d="M150.546 23.0466C150.819 22.1799 151.298 21.3923 151.942 20.7514C152.231 20.4506 152.545 20.1743 152.88 19.9254L153.927 19.2772L155.067 18.8133C155.466 18.6906 155.874 18.6011 156.287 18.5457C157.186 18.4042 158.106 18.486 158.967 18.7835C158.516 19.5411 157.934 20.2129 157.249 20.768C156.952 21.0213 156.64 21.2568 156.315 21.4731L155.329 22.0453L154.282 22.4976C153.915 22.6323 153.541 22.7448 153.161 22.8343C152.308 23.0562 151.423 23.1281 150.546 23.0466Z" fill="#141414"/>
<path d="M166.317 41.3807C166.497 40.6172 166.851 39.9052 167.35 39.2992C167.562 39.0303 167.796 38.7795 168.05 38.5493L168.843 37.9449L169.726 37.4826C170.042 37.3512 170.369 37.2457 170.703 37.1672C171.464 36.9748 172.26 36.9615 173.028 37.1282C172.85 37.8932 172.497 38.6065 171.998 39.2125C171.785 39.481 171.551 39.7319 171.297 39.9626L170.501 40.5624L169.616 41.022C169.3 41.1538 168.974 41.2589 168.64 41.3365C167.879 41.5295 167.084 41.5445 166.317 41.3807Z" fill="#141414"/>
</g>
<path d="M62.6601 91.4773C63.0402 91.6442 63.3845 91.7864 63.7305 91.972C64.5035 92.4092 65.1518 92.9818 65.5752 93.7892C66.1035 94.8267 66.1382 95.8929 65.6963 96.9786C65.2696 98.0115 64.4992 98.7026 63.5126 99.2028C62.56 99.6842 61.5477 99.9771 60.4978 100.202C60.4375 100.213 60.3772 100.224 60.2999 100.245C60.3222 100.366 60.2994 100.445 60.2069 100.518C59.5593 101.03 58.8855 101.535 58.2379 102.047C58.187 102.076 58.1361 102.104 58.0775 102.158C57.9856 102.032 57.8936 101.905 57.8186 101.769C57.4737 101.185 57.1287 100.6 56.7668 100.024C56.4124 99.4222 56.0505 98.8467 55.7055 98.2618C55.3436 97.6862 54.9986 97.1013 54.646 96.5428C54.3028 96.0012 53.9672 95.4333 53.624 94.8917C53.2884 94.3238 52.9359 93.7653 52.6003 93.1973C52.229 92.6048 51.884 92.0199 51.5127 91.4274C51.327 91.1312 51.115 90.8273 50.9294 90.5311C50.9013 90.4801 50.8825 90.4462 50.862 90.3689C50.9299 90.3314 50.9809 90.3033 51.0318 90.2752C52.2034 89.6286 53.3843 88.9989 54.5652 88.3693C55.0576 88.0976 55.567 87.8164 56.0951 87.5693C56.9382 87.1704 57.8563 86.9073 58.8078 86.8252C59.5596 86.7426 60.3261 86.8069 61.0182 87.178C61.8779 87.6117 62.426 88.2839 62.6721 89.2113C62.8285 89.856 62.8643 90.5229 62.7175 91.1799C62.704 91.2759 62.6905 91.3719 62.6601 91.4773ZM57.2812 93.8923C57.9702 93.3347 58.5902 92.5717 58.8126 91.8509C58.8659 91.6664 58.9098 91.465 58.9273 91.256C58.9261 91.013 58.8552 90.7641 58.6994 90.5621C58.4535 90.277 58.122 90.2384 57.7696 90.3222C57.2795 90.4376 56.855 90.6719 56.4399 90.9231C56.2965 91.0245 56.17 91.1164 56.0096 91.2271C56.4366 92.1212 56.8542 92.9982 57.2812 93.8923ZM58.6986 96.9421C58.7923 97.1119 58.8766 97.2647 58.9703 97.4345C59.17 97.4351 59.3621 97.462 59.56 97.4192C60.1877 97.2721 60.7948 97.0478 61.3364 96.7046C61.625 96.5453 61.8668 96.3011 62.0559 96.0417C62.4247 95.5059 62.2068 94.6293 61.4748 94.3466C61.3167 94.301 61.1867 94.3063 61.0714 94.4585C61.0222 94.53 60.9543 94.5674 60.9051 94.6389C60.4479 95.1349 60 95.6479 59.5334 96.1269C59.284 96.3975 58.9989 96.6435 58.6986 96.9421ZM61.5001 84.3646C61.5681 84.3271 61.602 84.3084 61.653 84.2803C62.8848 83.6226 64.1073 82.9478 65.3392 82.2901C65.509 82.1964 65.5447 82.221 65.6121 82.3832C65.6513 82.4944 65.6906 82.6057 65.7468 82.7075C66.2318 83.7468 66.7261 84.803 67.2374 85.8499C67.6943 86.8382 68.1775 87.8341 68.6437 88.8394C68.8909 89.3675 69.1475 89.9126 69.3946 90.4408C69.4696 90.5766 69.5504 90.6427 69.6915 90.6978C70.2297 90.9102 70.776 90.8967 71.3094 90.7795C71.5846 90.7162 71.8299 90.5587 72.0131 90.3689C72.5646 89.8431 72.9129 89.2299 72.9679 88.4465C72.9918 87.9681 72.8764 87.478 72.693 87.0254C72.5864 86.752 72.4552 86.5143 72.3316 86.2502C71.9176 85.4598 71.4941 84.6524 71.063 83.8714C70.6302 83.047 70.1388 82.2771 69.6135 81.526C69.3921 81.2051 69.1783 80.8579 68.9552 80.4938C70.163 79.6721 71.3896 78.8843 72.6408 78.0609C72.697 78.1628 72.7345 78.2307 72.772 78.2986C73.5194 79.8133 74.2667 81.328 75.0065 82.869C75.4036 83.6688 75.8177 84.4592 76.1978 85.2683C77.0629 87.1167 77.0954 88.9817 76.2068 90.8233C75.6934 91.8598 74.9452 92.6714 74.0091 93.3432C73.2579 93.8685 72.4189 94.1544 71.5406 94.329C71.4973 94.3307 71.4633 94.3495 71.42 94.3513C71.1582 94.3185 70.9732 94.4649 70.8052 94.602C70.1407 95.1238 69.4668 95.6286 68.8193 96.141C68.7684 96.1691 68.7174 96.1973 68.6665 96.2254C68.6214 96.1838 68.6026 96.1498 68.5745 96.0989C68.147 95.4045 67.7194 94.7101 67.2919 94.0158C67.0875 93.6855 66.9001 93.346 66.7127 93.0064C66.4802 92.6252 66.2646 92.2347 66.0491 91.8442C65.6497 91.2007 65.2672 90.5479 64.8678 89.9045C64.6446 89.5403 64.4215 89.1761 64.2247 88.8196C63.9547 88.3705 63.6753 87.9045 63.4053 87.4554C63.0791 86.9045 62.7359 86.3629 62.3927 85.8213C62.1321 85.3892 61.8639 84.9835 61.6032 84.5514C61.5751 84.5005 61.5376 84.4325 61.5001 84.3646ZM74.1264 78.7472C74.4197 78.2753 74.7148 77.8466 75.0004 77.401C75.4336 76.741 75.8499 76.0904 76.2831 75.4305C76.3246 75.3854 76.3492 75.3496 76.3908 75.3046C76.4323 75.2595 76.5096 75.239 76.5641 75.2975C76.7614 75.4544 76.9512 75.6376 77.1485 75.7945C78.4755 76.8343 79.8101 77.8476 81.1371 78.8873C81.1728 78.9119 81.2349 78.9441 81.3063 78.9933C81.3121 78.9236 81.3104 78.8803 81.3256 78.8276C81.3874 76.9328 81.4586 75.055 81.5203 73.1602C81.5262 73.0905 81.532 73.0208 81.5209 72.9605C81.5045 72.7702 81.546 72.7251 81.7381 72.752C81.9735 72.7772 82.2089 72.8023 82.4443 72.8275C83.3934 72.9017 84.335 73.0023 85.2935 73.0935C85.3369 73.0917 85.3726 73.1163 85.4423 73.1221C85.4247 73.3312 85.4072 73.5402 85.3896 73.7492C85.2382 75.3612 85.1038 76.9639 84.926 78.5683C84.8605 79.0917 84.7347 79.6264 84.6428 80.1422C84.6083 80.3606 84.5305 80.5808 84.5469 80.7711C84.5727 80.9784 84.7021 81.1728 84.7882 81.3689C85.3013 82.4591 85.8144 83.5493 86.3445 84.6301C86.4681 84.8942 86.5916 85.1582 86.7152 85.4223C86.792 85.6014 86.8013 85.6184 86.6333 85.7555C85.8254 86.3786 85.0174 87.0017 84.2188 87.6418C84.0584 87.7525 84.0151 87.7543 83.9044 87.5938C83.683 87.273 83.4692 86.9258 83.2648 86.5956C82.6891 85.6729 82.1134 84.7502 81.5547 83.8181C81.4422 83.6143 81.2976 83.4726 81.1114 83.3761C80.25 82.899 79.3886 82.4219 78.5518 81.9091C78.1249 81.6574 77.7132 81.3529 77.3109 81.0655C76.6135 80.5644 75.9066 80.0463 75.1998 79.5282C74.8426 79.2823 74.493 79.0101 74.1264 78.7472ZM90.6256 68.4671C91.8991 67.7643 93.1309 67.1065 94.3798 66.4394C94.4173 66.5074 94.4717 66.5659 94.5092 66.6338C94.7529 67.0753 95.0059 67.5337 95.2326 67.9845C95.5904 68.6731 95.9313 69.371 96.2722 70.0689C96.394 70.2896 96.4988 70.5197 96.6037 70.7498C96.6207 70.7405 96.647 70.7481 96.664 70.7387C96.6792 70.686 96.6944 70.6333 96.6833 70.573C96.9518 68.8521 97.0019 67.0966 97.148 65.3546C97.1486 65.155 97.1755 64.9629 97.193 64.7539C97.6152 64.6759 98.0467 64.615 98.4689 64.537C99.2453 64.4186 100.012 64.2833 100.806 64.1555C100.849 64.1537 100.883 64.135 100.926 64.1332C101.039 64.1373 101.094 64.1959 101.08 64.2919C101.084 64.3786 101.063 64.5009 101.049 64.597C100.74 66.606 100.432 68.615 100.132 70.641C100.124 70.6673 100.117 70.6937 100.128 70.754C100.346 70.7885 100.591 70.8306 100.81 70.8652C102.706 71.1699 104.602 71.4747 106.488 71.7625C106.759 71.8123 106.823 71.8878 106.756 72.1683C106.67 72.6145 106.567 73.07 106.464 73.5256C106.31 74.2089 106.156 74.8923 106.001 75.5756C105.967 75.794 105.923 75.7958 105.712 75.7349C105.581 75.6969 105.449 75.6588 105.317 75.6208C103.425 75.203 101.524 74.7682 99.649 74.3411C99.5963 74.3258 99.553 74.3276 99.4833 74.3218C99.4318 74.5495 99.4066 74.7849 99.3382 75.0221C99.2147 75.4004 99.3061 75.7265 99.4935 76.0661C99.8326 76.7207 100.121 77.4033 100.443 78.0673C100.538 78.2804 100.538 78.2804 100.37 78.4175C99.5794 79.0312 98.796 79.6186 98.0221 80.223C97.9805 80.2681 97.9465 80.2868 97.9126 80.3056C97.7767 80.3805 97.7334 80.3823 97.6508 80.2728C97.4745 79.9935 97.2889 79.6973 97.1126 79.418C96.2558 77.9859 95.4159 76.5445 94.559 75.1124C93.8785 73.9595 93.2073 72.8237 92.5361 71.6879C91.9399 70.6879 91.3437 69.6878 90.7568 68.7048C90.7193 68.6369 90.6725 68.552 90.6256 68.4671ZM102.485 62.0102C102.57 61.9633 102.621 61.9352 102.689 61.8977C103.657 61.3636 104.643 60.8634 105.602 60.3123C106.332 59.9093 107.026 59.4818 107.747 59.0618C108.975 58.3174 110.213 57.59 111.442 56.8456C111.526 56.7988 111.611 56.7519 111.696 56.7051C111.875 56.6283 111.902 56.636 112.005 56.8227C112.089 56.9755 112.173 57.1283 112.25 57.3075C112.685 58.1752 113.119 59.0429 113.545 59.8936C113.573 59.9446 113.601 59.9955 113.638 60.0634C113.425 60.1589 113.229 60.245 113.042 60.3481C112.386 60.6439 111.73 60.9397 111.066 61.2618C110.511 61.5014 109.966 61.7579 109.404 62.0238C108.91 62.2523 108.408 62.507 107.897 62.7448C107.846 62.7729 107.778 62.8104 107.693 62.8573C107.901 63.4738 108.244 64.0154 108.494 64.6302C108.596 64.5739 108.674 64.5534 108.749 64.4896C109.783 63.8746 110.808 63.2427 111.832 62.6108C111.917 62.5639 111.985 62.5264 112.07 62.4796C112.172 62.4233 112.26 62.4631 112.29 62.5574C112.348 62.7026 112.406 62.8478 112.464 62.993C112.776 63.8397 113.089 64.6863 113.418 65.5236C113.506 65.763 113.489 65.7724 113.276 65.8679C112.789 66.07 112.285 66.2814 111.808 66.5005C111.21 66.7418 110.605 67.0095 110.017 67.2678C109.949 67.3053 109.898 67.3334 109.804 67.3633C110.071 67.9687 110.337 68.5307 110.622 69.1268C110.707 69.0799 110.784 69.0594 110.826 69.0143C111.663 68.4855 112.475 67.949 113.296 67.4295C114.056 66.9211 114.8 66.4222 115.57 65.9308C115.917 65.717 115.943 65.7246 116.123 66.0906C116.64 67.0677 117.14 68.0543 117.658 69.0315C117.744 69.2276 117.736 69.254 117.557 69.3307C117.174 69.5199 116.808 69.6997 116.442 69.8795C115.344 70.419 114.264 70.949 113.192 71.4961C112.792 71.6946 112.4 71.8668 112.009 72.0824C111.713 72.268 111.419 72.497 111.132 72.6996C110.56 73.1482 109.988 73.5968 109.423 74.0191C109.365 74.0736 109.314 74.1017 109.246 74.1392C109.199 74.0543 109.145 73.9957 109.107 73.9278C108.937 73.5788 108.757 73.2129 108.569 72.8733C107.793 71.5074 107.034 70.1321 106.268 68.7831C105.921 68.1549 105.584 67.5436 105.229 66.9418C104.433 65.4985 103.619 64.0647 102.823 62.6214C102.71 62.4177 102.607 62.2309 102.485 62.0102ZM112.795 56.2318C114.068 55.529 115.3 54.8712 116.549 54.2041C116.586 54.272 116.641 54.3306 116.678 54.3985C116.922 54.84 117.175 55.2984 117.401 55.7492C117.759 56.4378 118.1 57.1357 118.441 57.8336C118.563 58.0543 118.668 58.2844 118.773 58.5145C118.79 58.5051 118.816 58.5127 118.833 58.5034C118.848 58.4507 118.863 58.398 118.852 58.3377C119.121 56.6167 119.171 54.8613 119.317 53.1193C119.318 52.9196 119.344 52.7276 119.362 52.5185C119.784 52.4406 120.216 52.3796 120.638 52.3017C121.414 52.1833 122.181 52.0479 122.975 51.9202C123.018 51.9184 123.052 51.8997 123.095 51.8979C123.208 51.902 123.263 51.9605 123.249 52.0566C123.253 52.1432 123.232 52.2656 123.218 52.3616C122.909 54.3707 122.601 56.3797 122.301 58.4057C122.293 58.432 122.286 58.4584 122.297 58.5187C122.515 58.5532 122.76 58.5953 122.979 58.6298C124.875 58.9346 126.771 59.2394 128.657 59.5272C128.928 59.577 128.992 59.6525 128.925 59.933C128.839 60.3791 128.736 60.8347 128.633 61.2903C128.479 61.9736 128.324 62.657 128.17 63.3403C128.135 63.5587 128.092 63.5605 127.881 63.4996C127.75 63.4616 127.618 63.4235 127.486 63.3855C125.594 62.9677 123.693 62.5329 121.818 62.1057C121.765 62.0905 121.722 62.0923 121.652 62.0864C121.601 62.3142 121.576 62.5496 121.507 62.7868C121.384 63.165 121.475 63.4912 121.662 63.8307C122.002 64.4853 122.29 65.168 122.612 65.832C122.707 66.0451 122.707 66.0451 122.539 66.1821C121.748 66.7959 120.965 67.3833 120.191 67.9877C120.149 68.0328 120.115 68.0515 120.082 68.0703C119.946 68.1452 119.902 68.147 119.82 68.0375C119.643 67.7582 119.458 67.462 119.282 67.1827C118.425 65.7506 117.585 64.3091 116.728 62.877C116.047 61.7242 115.376 60.5884 114.705 59.4525C114.109 58.4525 113.513 57.4525 112.926 56.4695C112.888 56.4016 112.841 56.3167 112.795 56.2318ZM127.892 47.4122C129.07 46.9389 130.232 46.475 131.367 46.0035C135.06 49.0823 138.717 52.1365 142.41 55.2153C141.498 56.051 140.601 56.8339 139.679 57.6527C138.99 57.1252 138.326 56.6053 137.627 56.0609C137.359 56.2975 137.108 56.5247 136.839 56.7613C135.952 57.5613 135.091 58.3688 134.177 59.1612C134.077 59.2608 134.02 59.3586 134.061 59.5131C134.104 59.711 134.137 59.892 134.17 60.0729C134.196 60.2802 134.13 60.361 133.942 60.4207C133.023 60.6838 132.122 60.9374 131.204 61.2005C131.144 61.2116 131.067 61.2321 130.98 61.2356C129.891 56.6534 128.845 52.0694 127.892 47.4122ZM132.749 52.2404C132.732 52.2498 132.715 52.2591 132.698 52.2685C132.895 53.2674 133.083 54.2493 133.281 55.2915C133.827 54.8353 134.356 54.3885 134.901 53.9323C134.157 53.3463 133.458 52.8018 132.749 52.2404ZM146.165 49.8646C146.393 49.7164 146.604 49.5776 146.816 49.4388C147.358 50.1806 147.789 50.9617 148.316 51.7562C146.936 52.8279 145.601 53.9412 144.169 54.9977C143.593 54.075 143.053 53.1769 142.487 52.2711C142.596 52.1885 142.706 52.106 142.824 52.0404C142.934 51.9578 143.053 51.8922 143.179 51.8002C143.123 51.6984 143.086 51.6305 143.039 51.5456C142.787 51.1305 142.553 50.706 142.311 50.3078C141.893 49.6304 141.484 48.97 141.093 48.3002C140.656 47.5889 140.245 46.8851 139.808 46.1737C139.686 45.953 139.548 45.7417 139.39 45.4963C139.154 45.6709 138.926 45.819 138.68 45.9766C137.999 45.0234 137.395 44.0498 136.79 43.0328C136.967 42.9127 137.145 42.7927 137.331 42.6896C137.543 42.5508 137.747 42.4383 137.967 42.3165C138.603 41.9434 139.256 41.561 139.892 41.1879C140.537 40.8318 141.173 40.4587 141.818 40.1026C141.937 40.037 142.082 39.979 142.244 39.9117C142.773 40.9492 143.274 41.9791 143.803 43.0165C143.524 43.1928 143.244 43.3691 142.948 43.5548C144.023 45.6637 145.089 47.7557 146.165 49.8646Z" fill="black"/>
</g>
<defs>
<clipPath id="clip0_11_16893">
<rect width="200.611" height="72.4872" fill="white" transform="translate(0.0338135 97.353) rotate(-28.8949)"/>
</clipPath>
</defs>
</svg>
