<svg width="211" height="161" viewBox="0 0 211 161" fill="none" xmlns="http://www.w3.org/2000/svg">
<g clip-path="url(#clip0_11_16893)">
<mask id="mask0_11_16893" style="mask-type:luminance" maskUnits="userSpaceOnUse" x="0" y="0" width="211" height="161">
<path d="M175.404 0.564154L0.0338135 97.353L34.9639 160.642L210.334 63.8533L175.404 0.564154Z" fill="white"/>
</mask>
<g mask="url(#mask0_11_16893)">
<path d="M188.144 33.7119C187.416 32.3473 186.703 30.9791 185.998 29.6063C185.743 30.4401 185.443 31.259 185.097 32.0589C184.97 32.3556 184.773 32.6176 184.524 32.823C178.416 47.3515 163.166 58.0185 150.579 66.5487C134.855 77.202 118.564 86.9924 101.777 95.8768C88.7232 102.788 75.3676 109.457 61.7579 115.214C50.1254 120.138 37.6916 124.434 24.9041 124.287C23.3629 124.284 21.8238 124.168 20.2993 123.941C22.9352 128.291 25.4812 132.685 27.9373 137.125C28.3724 137.209 28.7827 137.391 29.1377 137.656C34.6926 141.66 45.1166 139.154 51.2659 137.7C58.4021 135.917 65.3669 133.508 72.0796 130.5C86.3817 124.309 100.444 117.277 114.181 109.929C130.034 101.464 145.436 92.1801 160.326 82.1155C167.549 77.1821 174.449 71.792 180.984 65.978C186.08 61.4801 197.961 52.3622 193.494 44.3775C193.289 44.0229 193.194 43.6152 193.221 43.2064C191.198 40.2663 189.76 36.7375 188.146 33.7119" fill="#999999"/>
<path d="M34.1213 117.481C39.3776 116.589 44.545 115.235 49.5639 113.436C60.1121 109.779 70.1269 104.739 80.1591 99.8846C92.8427 93.7486 105.343 87.2662 117.543 80.2124C129.242 73.4487 140.807 66.3227 151.867 58.5496C162.229 51.2668 174.54 42.4364 181.331 31.4715C181.353 31.3125 181.394 31.1563 181.451 31.0065C182.599 28.083 183.795 24.2994 180.797 22.0377C177.907 19.857 172.868 20.3101 169.417 20.4943C162.676 20.8564 156.016 22.4174 149.599 24.4641C135.04 29.1101 121.488 37.0216 108.003 44.0919C84.1934 56.5745 60.8434 70.3827 40.2143 87.7332C34.9526 92.1384 29.93 96.8221 25.1685 101.764C22.419 104.633 16.2121 110.379 17.1154 115.039C18.1071 120.156 30.3951 118.069 34.1213 117.481Z" fill="#CCCCCC"/>
<path d="M13.6418 113.237C15.8952 116.764 18.1164 120.34 20.2968 123.943C21.8216 124.169 23.3606 124.285 24.9019 124.289C37.6911 124.436 50.1233 120.14 61.7567 115.219C75.3661 109.46 88.7209 102.792 101.776 95.8814C118.562 86.9962 134.854 77.2052 150.578 66.5522C163.166 58.0225 178.415 47.355 184.523 32.8265C184.772 32.6213 184.969 32.3591 185.096 32.0619C185.442 31.2614 185.742 30.4421 185.997 29.608C184.174 26.0584 182.427 22.4695 180.757 18.8414C180.634 18.6008 180.575 18.3323 180.586 18.0621C180.597 17.792 180.678 17.5292 180.82 17.2994C177.818 16.083 174.216 15.9257 171.196 15.9641C156.871 16.1473 142.918 21.2667 130.148 27.3893C101.24 41.2495 72.1771 56.0342 46.3595 75.181C40.044 79.8559 33.9924 84.8775 28.2329 90.2225C23.2352 94.8692 17.8075 99.7427 14.1447 105.563C11.7874 109.309 9.67478 114.506 11.8824 118.813C12.5285 120.065 13.4846 121.13 14.6593 121.908C13.4736 119.477 12.3072 117.045 11.1601 114.61C10.9947 114.282 10.9629 113.903 11.0713 113.552C11.1797 113.201 11.42 112.906 11.7415 112.728C12.0631 112.551 12.4409 112.505 12.7956 112.6C13.1504 112.695 13.4543 112.925 13.6436 113.239M17.1175 115.041C16.2143 110.381 22.4199 104.634 25.1707 101.766C29.9305 96.8231 34.9518 92.1386 40.2128 87.7329C60.8408 70.3816 84.1923 56.5748 108.002 44.0916C121.49 37.0207 135.037 29.1108 149.598 24.4638C156.014 22.4154 162.673 20.8529 169.416 20.494C172.867 20.3098 177.904 19.8568 180.796 22.0374C183.797 24.3002 182.599 28.085 181.45 31.0062C181.392 31.1562 181.352 31.3122 181.329 31.4712C174.542 42.4339 162.23 51.2677 151.865 58.5494C140.805 66.3225 129.241 73.4485 117.541 80.2119C105.341 87.2663 92.8428 93.7472 80.1576 99.8841C70.1259 104.737 60.11 109.782 49.5636 113.435C44.5447 115.234 39.3772 116.588 34.121 117.48C30.3964 118.071 18.1071 120.156 17.1154 115.039" fill="#1C1C1C"/>
<path d="M48.4811 144.37C55.7084 142.859 62.801 140.763 69.6881 138.101C87.1754 131.136 104.222 122.372 120.702 113.32C138.537 103.521 156.444 92.969 172.571 80.513C180.09 74.704 186.906 68.818 192.424 61.1373C195.418 56.9691 198.712 51.609 198.4 46.3451C198.266 46.5134 198.098 46.6519 197.907 46.7521C197.716 46.8519 197.507 46.9113 197.292 46.926C197.077 46.9411 196.861 46.9109 196.659 46.8379C196.456 46.7653 196.271 46.651 196.115 46.5027C195.009 45.5364 194.036 44.4288 193.22 43.2085C193.194 43.6175 193.289 44.0257 193.494 44.3807C197.96 52.3649 186.079 61.4821 180.983 65.98C174.449 71.7938 167.549 77.1832 160.327 82.1149C145.438 92.1795 130.036 101.464 114.184 109.93C100.446 117.277 86.3841 124.309 72.0825 130.501C65.3694 133.508 58.4043 135.917 51.2679 137.7C45.119 139.153 34.695 141.66 29.1387 137.654C28.7839 137.389 28.3736 137.207 27.9385 137.123C28.3344 137.84 28.7442 138.551 29.1326 139.27C30.5873 141.965 26.5335 144.227 24.9804 141.665C25.2097 142.159 25.5636 142.586 26.0077 142.904C31.6586 146.983 39.4664 146.297 45.9058 144.929C46.7683 144.747 47.6264 144.56 48.4811 144.37Z" fill="#1C1C1C"/>
<path d="M29.1305 139.272C28.7416 138.553 28.3312 137.842 27.9365 137.124C25.4914 132.689 22.9454 128.294 20.2984 123.941C18.1154 120.34 15.8948 116.764 13.6399 113.237C13.4507 112.922 13.1469 112.694 12.7924 112.598C12.4378 112.503 12.0601 112.549 11.7387 112.726C11.4173 112.904 11.1772 113.199 11.0688 113.549C10.9604 113.9 10.9922 114.279 11.1576 114.607C12.3019 117.041 13.4683 119.474 14.6568 121.905C17.9064 128.558 21.3126 135.172 24.9284 141.591C24.9439 141.619 24.9631 141.637 24.9796 141.665C26.5328 144.227 30.5866 141.965 29.1305 139.272Z" fill="#1C1C1C"/>
<path d="M180.759 18.8411C182.427 22.4736 184.173 26.0627 185.998 29.6083C186.704 30.981 187.416 32.3493 188.145 33.7139C189.76 36.7403 191.197 40.2689 193.22 43.2085C194.036 44.4288 195.009 45.5364 196.115 46.5027C196.271 46.6512 196.456 46.7655 196.658 46.8385C196.861 46.9112 197.076 46.9414 197.291 46.9264C197.506 46.9117 197.715 46.8524 197.906 46.7526C198.097 46.6525 198.265 46.514 198.399 46.3459C198.541 46.1661 198.644 45.9588 198.702 45.7368C198.759 45.5152 198.77 45.2838 198.733 45.0576C198.031 40.1822 194.561 35.7088 192.16 31.4976C189.414 26.6821 186.545 21.9654 183.516 17.3221C183.306 16.9727 182.97 16.718 182.576 16.612C182.183 16.5059 181.764 16.5566 181.407 16.7534C181.05 16.9503 180.784 17.2779 180.664 17.6672C180.544 18.0566 180.58 18.4771 180.764 18.8406" fill="#1C1C1C"/>
<path d="M28.5589 123.756C30.0205 124.858 31.3553 126.119 32.5389 127.515C33.1547 128.174 33.6772 128.895 34.2442 129.587L35.804 131.754L37.2259 134.015C37.651 134.802 38.1247 135.556 38.501 136.376C39.3476 137.998 40.0096 139.711 40.4746 141.481C39.0116 140.381 37.676 139.122 36.4922 137.726C35.8758 137.069 35.3568 136.345 34.7887 135.655L33.2318 133.488L31.8133 131.224C31.3871 130.439 30.916 129.681 30.5382 128.864C29.6934 127.241 29.0304 125.529 28.5612 123.761" fill="#141414"/>
<path d="M40.1419 119.018C41.7707 120.436 43.2631 122.003 44.5992 123.7C45.2927 124.511 45.8895 125.376 46.5314 126.216L48.3161 128.825L49.9619 131.524C50.4614 132.456 51.0098 133.357 51.4603 134.322C52.457 136.238 53.2698 138.245 53.8875 140.315C52.2599 138.909 50.7711 137.35 49.4415 135.659C48.7468 134.848 48.1494 133.974 47.5033 133.132L45.7112 130.506L44.0623 127.789C43.5598 126.854 43.0122 125.947 42.5588 124.982C41.566 123.074 40.7569 121.076 40.1428 119.014" fill="#141414"/>
<path d="M53.9846 118.754C55.0754 119.722 56.0628 120.802 56.9304 121.975C57.3847 122.518 57.7471 123.106 58.1618 123.665C58.5329 124.25 58.909 124.828 59.2941 125.401C59.6329 126.002 59.9803 126.598 60.3357 127.191C60.6453 127.816 61.0098 128.402 61.2887 129.053C61.9452 130.357 62.4623 131.726 62.8315 133.138C61.5137 132.445 60.322 131.534 59.3071 130.445C58.8026 129.924 58.3264 129.377 57.8803 128.807C57.4628 128.219 57.053 127.625 56.6513 127.027C56.2991 126.397 55.9555 125.763 55.621 125.124C55.3122 124.469 55.0383 123.797 54.8016 123.113C54.2881 121.716 54.0118 120.242 53.9846 118.754Z" fill="#141414"/>
<path d="M63.2975 113.031C64.513 113.721 65.6238 114.581 66.5964 115.584C67.0984 116.043 67.5121 116.567 67.9659 117.061L69.1956 118.639L70.2882 120.314C70.6044 120.906 70.9669 121.464 71.2369 122.091C71.8687 123.339 72.317 124.672 72.5679 126.048C71.3504 125.36 70.2381 124.5 69.2648 123.496C68.7612 123.036 68.3474 122.509 67.8946 122.018L66.6696 120.438L65.5811 118.763C65.2623 118.172 64.9028 117.611 64.632 116.986C64.002 115.737 63.5522 114.406 63.2966 113.031" fill="#141414"/>
<path d="M80.8396 103.925C82.212 105.3 83.472 106.783 84.6075 108.36C85.2014 109.107 85.7058 109.905 86.2632 110.669L87.8229 113.026L89.3014 115.439C89.7538 116.27 90.2634 117.063 90.6876 117.919C91.6328 119.617 92.4377 121.39 93.0948 123.219C91.4707 122.11 89.9955 120.797 88.7067 119.312C88.0362 118.606 87.4678 117.825 86.8584 117.073L85.2093 114.69L83.758 112.182C83.3344 111.312 82.873 110.463 82.5178 109.557C81.722 107.759 81.1595 105.867 80.8442 103.926" fill="#141414"/>
<path d="M104.937 91.1918C106.19 92.229 107.309 93.4172 108.269 94.7298C108.773 95.3469 109.18 96.0182 109.635 96.6629L110.847 98.6813L111.911 100.787C112.214 101.515 112.569 102.215 112.822 102.971C113.42 104.482 113.828 106.063 114.035 107.675C112.781 106.64 111.661 105.453 110.702 104.141C110.196 103.524 109.794 102.851 109.339 102.206L108.131 100.186L107.069 98.0851C106.764 97.3577 106.413 96.6558 106.161 95.899C105.563 94.3883 105.154 92.8089 104.943 91.1975" fill="#141414"/>
<path d="M122.859 77.3465C124.346 79.0583 125.733 80.8558 127.011 82.7297C127.679 83.6299 128.259 84.5705 128.9 85.4763C129.495 86.4102 130.101 87.3363 130.719 88.2544C131.294 89.1993 131.881 90.1374 132.48 91.0687C133.036 92.0311 133.65 92.9509 134.184 93.9347C135.35 95.88 136.399 97.8934 137.324 99.9642C135.445 98.6399 133.733 97.0934 132.226 95.3579C131.442 94.5218 130.767 93.6119 130.054 92.7237C129.394 91.799 128.745 90.8662 128.107 89.9251C127.519 88.9502 126.945 87.9688 126.386 86.9805C125.878 85.961 125.338 84.9622 124.908 83.9033C123.966 81.8067 123.279 79.6047 122.862 77.3447" fill="#141414"/>
<path d="M139.577 68.6767C141.035 70.0875 142.374 71.6146 143.583 73.2432C144.215 74.0176 144.756 74.8448 145.346 75.639L147.004 78.0948L148.567 80.6112C149.045 81.4786 149.579 82.3102 150.028 83.2014C151.018 84.9723 151.859 86.8218 152.545 88.7313C150.884 87.5341 149.373 86.1433 148.042 84.5882C147.353 83.8494 146.761 83.0351 146.127 82.2499L144.399 79.7777L142.858 77.1857C142.4 76.2872 141.905 75.4119 141.513 74.4788C140.641 72.6271 139.992 70.6789 139.578 68.6747" fill="#141414"/>
<path d="M159.825 58.0622C161.297 59.3396 162.632 60.7673 163.807 62.3221C164.421 63.061 164.94 63.8611 165.504 64.6297L167.051 67.0266L168.457 69.5101C168.874 70.3694 169.342 71.1973 169.71 72.0855C170.54 73.8501 171.182 75.6975 171.625 77.5967C170.15 76.3218 168.814 74.8952 167.639 73.3405C167.023 72.601 166.508 71.7999 165.943 71.0318L164.396 68.634L162.995 66.1478C162.575 65.2909 162.11 64.4603 161.741 63.5727C160.912 61.8082 160.268 59.9621 159.821 58.0646" fill="#141414"/>
<path d="M169.391 49.957C170.739 51.0074 171.958 52.2139 173.022 53.5509C173.578 54.1801 174.038 54.8675 174.544 55.5272L175.919 57.5945L177.151 59.7504C177.511 60.4996 177.922 61.2182 178.233 61.9979C178.949 63.5495 179.477 65.1813 179.805 66.8584C178.455 65.8101 177.235 64.6042 176.171 63.2664C175.614 62.6379 175.156 61.9484 174.649 61.29L173.277 59.2209L172.05 57.0625C171.688 56.3145 171.28 55.5941 170.967 54.8138C170.253 53.2624 169.723 51.6324 169.391 49.957Z" fill="#141414"/>
<path d="M176.246 42.7857C177.456 43.9798 178.554 45.2811 179.528 46.6738C180.038 47.328 180.458 48.0266 180.932 48.6998C181.359 49.3957 181.794 50.0866 182.236 50.7721C182.635 51.4855 183.04 52.194 183.452 52.898C183.819 53.633 184.244 54.3316 184.577 55.0923C185.348 56.6074 185.976 58.1904 186.455 59.821C185.001 58.8906 183.692 57.7524 182.569 56.4427C181.981 55.8264 181.499 55.1367 180.972 54.4734C180.5 53.7765 180.035 53.0741 179.577 52.3668C179.17 51.6283 178.771 50.8862 178.381 50.1404C178.041 49.364 177.665 48.6116 177.396 47.8039C176.773 46.1952 176.386 44.505 176.246 42.7857Z" fill="#141414"/>
<path d="M182.741 35.2311C183.929 36.1592 184.989 37.2406 185.893 38.4474C186.366 39.0076 186.745 39.6276 187.17 40.2195L188.292 42.0762L189.269 44.0138C189.542 44.6892 189.868 45.3347 190.09 46.0369C190.63 47.4448 190.978 48.9189 191.126 50.4195C189.935 49.4947 188.873 48.4141 187.97 47.2072C187.496 46.6476 187.122 46.0248 186.696 45.4335L185.577 43.5746L184.604 41.6352C184.328 40.961 184.007 40.3128 183.785 39.6106C183.246 38.2032 182.896 36.7301 182.745 35.2303" fill="#141414"/>
<path d="M187.107 36.2321C188.227 36.8384 189.246 37.615 190.128 38.5346C190.581 38.9512 190.945 39.4265 191.353 39.8778L192.434 41.3195L193.379 42.8542C193.644 43.4003 193.958 43.9116 194.176 44.4892C194.705 45.6484 195.05 46.8832 195.197 48.1486C194.075 47.5451 193.055 46.7694 192.173 45.85C191.719 45.4335 191.356 44.9532 190.948 44.5047L189.87 43.0617L188.929 41.5243C188.663 40.9798 188.351 40.4651 188.132 39.8882C187.604 38.7296 187.258 37.4966 187.107 36.2321Z" fill="#141414"/>
<path d="M37.9158 88.6217C38.0269 90.2797 37.9362 91.9451 37.6459 93.5811C37.5458 94.3901 37.3389 95.1686 37.1813 95.9594L36.5515 98.2872L35.7615 100.567C35.4417 101.31 35.1783 102.069 34.803 102.794C34.119 104.31 33.2519 105.736 32.2213 107.041C32.1072 105.383 32.1966 103.716 32.4874 102.079C32.5872 101.27 32.7984 100.494 32.9519 99.7006L33.588 97.3724L34.3779 95.0981C34.696 94.3546 34.9629 93.5967 35.337 92.8723C36.0207 91.357 36.8856 89.9303 37.9128 88.6234" fill="#141414"/>
<path d="M43.4702 88.4037C43.497 90.2401 43.4065 92.0763 43.199 93.9011C43.1419 94.7984 42.9936 95.6692 42.9117 96.5526C42.7822 97.4272 42.6684 98.3028 42.5702 99.1795C42.4242 100.049 42.2932 100.923 42.1777 101.799C42.0099 102.671 41.9161 103.55 41.7211 104.427C41.419 106.239 40.9984 108.029 40.4618 109.786C39.7942 108.028 39.4035 106.177 39.3035 104.299C39.211 103.37 39.2516 102.446 39.2529 101.516C39.3176 100.593 39.3999 99.6701 39.4992 98.748C39.6598 97.8349 39.8366 96.9255 40.0305 96.0194C40.2842 95.127 40.5037 94.2266 40.8475 93.3592C41.4629 91.5826 42.348 89.9109 43.4713 88.4031" fill="#141414"/>
<path d="M47.8898 92.2211C48.2358 93.2664 48.4574 94.3489 48.5502 95.446C48.6339 95.9603 48.618 96.4572 48.6654 96.9595C48.6617 97.4561 48.668 97.9525 48.684 98.4487C48.6496 98.9423 48.6246 99.4391 48.6092 99.9357C48.5399 100.435 48.5401 100.933 48.4353 101.444C48.2997 102.538 48.0339 103.612 47.6435 104.642C46.8807 103.78 46.3264 102.754 46.0235 101.643C45.8665 101.115 45.7495 100.575 45.673 100.029C45.6318 99.4841 45.6016 98.938 45.5822 98.3909C45.6241 97.8444 45.6774 97.2995 45.7427 96.7559C45.8402 96.2134 45.9781 95.679 46.1553 95.1571C46.5028 94.0603 47.096 93.0573 47.8894 92.2244" fill="#141414"/>
<path d="M53.5098 97.6158C53.9882 98.0951 54.3885 98.6462 54.6972 99.2489C54.8246 99.4857 54.9354 99.7311 55.0279 99.9836C55.0889 100.229 55.1566 100.472 55.2315 100.712C55.2541 100.963 55.2836 101.212 55.3206 101.463C55.3308 101.732 55.3213 102.001 55.2931 102.268C55.2341 102.944 55.0687 103.606 54.8034 104.23C54.087 104.047 53.452 103.631 52.9979 103.048C52.7924 102.792 52.6173 102.513 52.4762 102.217C52.3708 101.917 52.273 101.613 52.1831 101.307C52.1514 100.987 52.1296 100.669 52.1166 100.351C52.135 100.024 52.1925 99.7006 52.2874 99.3876C52.4895 98.6788 52.919 98.0562 53.5098 97.6158Z" fill="#141414"/>
<path d="M49.9755 82.1375C50.4783 82.3822 50.9486 82.6888 51.3751 83.0504C51.5234 83.1749 51.6605 83.3123 51.7845 83.4611C51.8737 83.6089 51.9673 83.7528 52.0643 83.8911C52.1144 84.053 52.1685 84.2149 52.2323 84.3753C52.2729 84.5645 52.2957 84.7572 52.3015 84.9506C52.3228 85.5109 52.2715 86.0713 52.1484 86.6182C51.5348 86.7716 50.8857 86.6812 50.3374 86.366C50.1051 86.2353 49.8933 86.0713 49.7083 85.8795C49.5569 85.6742 49.4115 85.4634 49.2743 85.2458C49.1888 85.0027 49.1143 84.7572 49.0483 84.5107C49.0118 84.2464 49.0148 83.9781 49.0571 83.7147C49.149 83.0896 49.4784 82.5239 49.9765 82.1355" fill="#141414"/>
<path d="M152.477 44.686C153.308 43.0558 154.3 41.5126 155.437 40.0797C155.965 39.348 156.565 38.6927 157.122 37.9998L158.909 36.0252L160.797 34.1483C161.467 33.5585 162.088 32.9231 162.795 32.3689C164.175 31.1669 165.673 30.1069 167.266 29.205C166.569 30.9088 165.667 32.521 164.58 34.0062C164.08 34.7637 163.491 35.4404 162.942 36.1556L161.151 38.1685L159.22 40.0451C158.532 40.6285 157.88 41.2464 157.147 41.7811C155.713 42.9338 154.145 43.9091 152.477 44.686Z" fill="#141414"/>
<path d="M149.133 40.9809C149.119 39.8563 149.3 38.7379 149.668 37.675C149.828 37.1722 150.017 36.6786 150.232 36.1965L150.947 34.8048L151.805 33.4972C152.12 33.0733 152.458 32.6665 152.816 32.2789C152.996 32.0837 153.183 31.8907 153.378 31.7063C153.543 31.5368 153.725 31.3838 153.92 31.2493C153.979 31.2101 154.042 31.1764 154.108 31.1486L154.148 31.1275L154.168 31.1153L154.178 31.1092L154.183 31.1048C154.154 31.1127 154.439 31.0358 154.318 31.069C154.3 31.0667 154.224 31.1257 154.272 31.0796C154.329 30.9769 154.215 30.6391 153.923 30.7618C153.903 30.6028 154.087 30.4198 154.287 30.387C154.395 30.3644 154.506 30.3637 154.615 30.3848C154.723 30.406 154.825 30.4487 154.916 30.5104C155.097 30.6709 155.232 30.877 155.306 31.1071C155.379 31.3374 155.39 31.5832 155.336 31.819C155.273 32.2178 155.196 32.4749 155.134 32.7335C155.072 32.9919 154.991 33.2526 154.907 33.5057C154.746 34.0087 154.557 34.5028 154.343 34.9856L153.625 36.3749L152.76 37.6752C152.445 38.0991 152.108 38.5053 151.749 38.8923C151.004 39.7339 150.118 40.4404 149.132 40.9804" fill="#141414"/>
<path d="M144.695 44.957C144.589 43.4549 144.586 41.9473 144.688 40.4449C144.692 39.7172 144.789 39.0143 144.816 38.3011C144.89 37.5951 144.948 36.8893 144.988 36.1831C145.078 35.482 145.149 34.7764 145.201 34.0662C145.307 33.3607 145.338 32.6524 145.468 31.9363C145.644 30.4404 145.925 28.9585 146.307 27.502C147.112 28.8441 147.649 30.3294 147.889 31.8757C148.019 32.6336 148.102 33.3989 148.137 34.167C148.135 34.9319 148.114 35.6988 148.074 36.4677C147.971 37.2291 147.85 37.9862 147.71 38.7392C147.535 39.4876 147.313 40.2244 147.046 40.9451C146.527 42.4206 145.728 43.7823 144.694 44.9558" fill="#141414"/>
<path d="M82.832 59.2813C83.5281 59.8175 83.9943 60.17 84.4028 60.5042C84.6347 60.6539 84.7753 60.8331 84.9696 60.9759C85.1213 61.1428 85.283 61.3003 85.4539 61.4475C85.5902 61.6273 85.7374 61.7986 85.8946 61.9603C86.0211 62.1652 86.1927 62.313 86.3273 62.5568C86.6372 62.9828 86.9524 63.4731 87.4415 64.2078C87.119 64.4499 86.7467 64.6176 86.3517 64.6986C85.9566 64.7795 85.5483 64.772 85.1566 64.6762C84.7807 64.5958 84.4187 64.4603 84.0824 64.2741C83.7688 64.0592 83.4706 63.8228 83.1895 63.5668C82.9535 63.2682 82.7382 62.9539 82.545 62.6261C82.3823 62.2787 82.2714 61.9093 82.216 61.5299C82.1475 61.1328 82.1668 60.7257 82.2734 60.3371C82.3796 59.9486 82.5709 59.5879 82.832 59.2813Z" fill="#141414"/>
<path d="M129.046 40.5447C129.727 40.1452 130.472 39.8674 131.248 39.7236C131.579 39.6543 131.913 39.6071 132.251 39.5822C132.577 39.5838 132.902 39.58 133.226 39.5709C133.549 39.6162 133.868 39.653 134.194 39.6851C134.526 39.748 134.853 39.832 135.174 39.9367C135.931 40.1646 136.641 40.5245 137.273 40.9999C136.734 41.6317 136.031 42.1014 135.241 42.3568C134.887 42.4798 134.523 42.5691 134.152 42.6238C133.787 42.6453 133.419 42.66 133.052 42.6675C132.687 42.6185 132.322 42.5619 131.963 42.4987C131.601 42.404 131.248 42.2748 130.91 42.1131C130.156 41.7712 129.51 41.2292 129.042 40.5459" fill="#141414"/>
<path d="M135.504 34.8864C135.59 34.2444 135.838 33.6348 136.224 33.1148C136.378 32.9007 136.554 32.7034 136.75 32.5263L137.359 32.0923L138.049 31.8048C138.933 31.5588 139.876 31.6328 140.711 32.0136C140.588 32.9231 140.148 33.76 139.469 34.377L138.857 34.8076L138.166 35.0916C137.912 35.1625 137.651 35.2064 137.388 35.2224C136.741 35.2715 136.093 35.1555 135.504 34.8852" fill="#141414"/>
<path d="M150.546 23.0466C150.819 22.1799 151.298 21.3923 151.942 20.7514C152.231 20.4506 152.545 20.1743 152.88 19.9254L153.927 19.2772L155.067 18.8133C155.466 18.6906 155.874 18.6011 156.287 18.5457C157.186 18.4042 158.106 18.486 158.967 18.7835C158.516 19.5411 157.934 20.2129 157.249 20.768C156.952 21.0213 156.64 21.2568 156.315 21.4731L155.329 22.0453L154.282 22.4976C153.915 22.6323 153.541 22.7448 153.161 22.8343C152.308 23.0562 151.423 23.1281 150.546 23.0466Z" fill="#141414"/>
<path d="M166.317 41.3807C166.497 40.6172 166.851 39.9052 167.35 39.2992C167.562 39.0303 167.796 38.7795 168.05 38.5493L168.843 37.9449L169.726 37.4826C170.042 37.3512 170.369 37.2457 170.703 37.1672C171.464 36.9748 172.26 36.9615 173.028 37.1282C172.85 37.8932 172.497 38.6065 171.998 39.2125C171.785 39.481 171.551 39.7319 171.297 39.9626L170.501 40.5624L169.616 41.022C169.3 41.1538 168.974 41.2589 168.64 41.3365C167.879 41.5295 167.084 41.5445 166.317 41.3807Z" fill="#141414"/>
</g>
<path d="M50.9114 100.013C51.3039 100.184 51.6594 100.329 52.017 100.519C52.8156 100.968 53.4861 101.556 53.9255 102.387C54.4739 103.455 54.5133 104.555 54.0612 105.676C53.6247 106.743 52.8325 107.458 51.8168 107.977C50.836 108.477 49.793 108.782 48.7111 109.018C48.649 109.03 48.5868 109.041 48.5072 109.063C48.5306 109.187 48.5073 109.269 48.4122 109.344C47.7461 109.875 47.0529 110.398 46.3869 110.929C46.3344 110.958 46.282 110.987 46.2218 111.043C46.1265 110.913 46.0313 110.783 45.9535 110.643C45.5958 110.041 45.238 109.439 44.8628 108.847C44.4954 108.228 44.1201 107.635 43.7624 107.033C43.3872 106.441 43.0294 105.839 42.6639 105.264C42.3082 104.707 41.9602 104.122 41.6044 103.565C41.2564 102.98 40.8909 102.406 40.5429 101.821C40.1579 101.211 39.8002 100.609 39.4152 99.9994C39.2228 99.6945 39.0031 99.3819 38.8106 99.077C38.7815 99.0246 38.762 98.9896 38.7406 98.91C38.8105 98.8711 38.863 98.8419 38.9154 98.8128C40.1214 98.142 41.3371 97.4887 42.5528 96.8353C43.0597 96.5534 43.584 96.2617 44.1278 96.0051C44.9959 95.5908 45.9418 95.3165 46.9228 95.2285C47.6978 95.1407 48.4885 95.2044 49.2036 95.5848C50.0915 96.0292 50.6591 96.7205 50.916 97.6761C51.0795 98.3404 51.1187 99.028 50.9695 99.7061C50.956 99.8051 50.9424 99.9042 50.9114 100.013ZM45.3724 102.522C46.0812 101.944 46.718 101.155 46.9449 100.411C46.9991 100.221 47.0437 100.013 47.0611 99.7974C47.059 99.5468 46.9851 99.2904 46.8237 99.0827C46.5691 98.7895 46.2272 98.7508 45.864 98.8384C45.359 98.9591 44.922 99.2021 44.4948 99.4626C44.3472 99.5676 44.2171 99.6629 44.052 99.7776C44.4954 100.698 44.9291 101.601 45.3724 102.522ZM46.8446 105.662C46.9418 105.837 47.0293 105.994 47.1265 106.169C47.3324 106.169 47.5306 106.196 47.7345 106.151C48.3813 105.997 49.0067 105.764 49.564 105.408C49.8612 105.243 50.1097 104.99 50.3038 104.722C50.6823 104.168 50.4546 103.265 49.6988 102.976C49.5356 102.93 49.4015 102.935 49.2831 103.093C49.2327 103.167 49.1627 103.206 49.1123 103.279C48.6424 103.792 48.1823 104.323 47.7028 104.819C47.4465 105.098 47.1533 105.353 46.8446 105.662ZM49.6911 92.6818C49.761 92.6429 49.796 92.6235 49.8484 92.5943C51.1165 91.9118 52.375 91.2118 53.6431 90.5294C53.8179 90.4321 53.8548 90.4574 53.9249 90.6244C53.9657 90.739 54.0066 90.8536 54.0649 90.9585C54.5686 92.0286 55.082 93.1161 55.6128 94.194C56.0873 95.2117 56.589 96.2371 57.0733 97.2722C57.33 97.816 57.5964 98.3773 57.8531 98.9211C57.9308 99.0609 58.0144 99.1288 58.1601 99.1851C58.7158 99.4024 59.2791 99.3866 59.8288 99.2639C60.1124 99.1977 60.3649 99.0344 60.5532 98.8381C61.1202 98.2939 61.4773 97.6604 61.5312 96.8523C61.5543 96.3589 61.4336 95.8539 61.243 95.3878C61.1321 95.1061 60.996 94.8614 60.8677 94.5895C60.438 93.7758 59.9985 92.9446 59.5513 92.1406C59.1021 91.292 58.5928 90.4996 58.0485 89.7268C57.8191 89.3967 57.5975 89.0393 57.3661 88.6645C58.6089 87.8131 59.8712 86.9965 61.1587 86.1431C61.217 86.248 61.2559 86.3179 61.2948 86.3878C62.0706 87.9473 62.8465 89.5068 63.6146 91.0935C64.0269 91.9169 64.4566 92.7306 64.8514 93.5638C65.7498 95.4671 65.7896 97.3902 64.8795 99.2924C64.3536 100.363 63.5848 101.203 62.6217 101.899C61.8488 102.443 60.9845 102.741 60.0793 102.924C60.0347 102.926 59.9997 102.945 59.955 102.947C59.685 102.914 59.4947 103.066 59.3219 103.208C58.6384 103.748 57.9451 104.271 57.2791 104.802C57.2267 104.831 57.1742 104.86 57.1218 104.889C57.0752 104.846 57.0557 104.811 57.0266 104.759C56.5833 104.044 56.14 103.33 55.6967 102.615C55.4848 102.275 55.2904 101.926 55.096 101.576C54.8549 101.184 54.6313 100.782 54.4077 100.38C53.9936 99.7175 53.597 99.0456 53.1828 98.3834C52.9515 98.0086 52.7201 97.6338 52.516 97.2668C52.236 96.8046 51.9463 96.3249 51.6664 95.8627C51.3281 95.2957 50.9723 94.7383 50.6165 94.181C50.3463 93.7363 50.0683 93.3188 49.798 92.8741C49.7689 92.8216 49.73 92.7517 49.6911 92.6818ZM62.693 86.8459C62.9938 86.3582 63.2966 85.9151 63.5897 85.4546C64.0342 84.7725 64.4613 84.1002 64.9058 83.4181C64.9485 83.3714 64.9737 83.3345 65.0164 83.2879C65.0591 83.2412 65.1388 83.2198 65.1951 83.28C65.3992 83.4411 65.5955 83.6295 65.7995 83.7906C67.1715 84.8583 68.5513 85.8988 69.9233 86.9666C69.9602 86.9918 70.0243 87.0248 70.0982 87.0753C70.104 87.0034 70.102 86.9587 70.1175 86.9043C70.1748 84.95 70.2418 83.0133 70.2991 81.059C70.3049 80.9871 70.3107 80.9153 70.299 80.8531C70.2814 80.6569 70.3241 80.6103 70.5223 80.6374C70.7651 80.6625 71.0079 80.6876 71.2508 80.7127C72.2299 80.7861 73.2012 80.8866 74.19 80.9774C74.2347 80.9754 74.2716 81.0007 74.3435 81.0064C74.3261 81.2221 74.3087 81.4377 74.2914 81.6533C74.1407 83.3163 74.0075 84.9695 73.8296 86.6246C73.7638 87.1647 73.6359 87.7164 73.5429 88.2488C73.5081 88.4741 73.4286 88.7014 73.4461 88.8976C73.4734 89.1113 73.6076 89.3113 73.697 89.5133C74.2299 90.6358 74.7627 91.7584 75.313 92.8712C75.4414 93.1431 75.5697 93.415 75.6981 93.6869C75.7778 93.8714 75.7875 93.8888 75.6147 94.0307C74.7836 94.6761 73.9525 95.3215 73.1312 95.9843C72.9661 96.099 72.9214 96.101 72.8067 95.9359C72.5773 95.6058 72.3557 95.2485 72.1438 94.9086C71.5469 93.959 70.9501 93.0094 70.3707 92.05C70.254 91.8403 70.1044 91.6947 69.912 91.5957C69.0221 91.1066 68.1321 90.6176 67.2674 90.0916C66.8263 89.8334 66.4007 89.5209 65.9849 89.2258C65.2639 88.7114 64.5333 88.1795 63.8026 87.6476C63.4334 87.3953 63.0719 87.1157 62.693 86.8459ZM79.673 76.1883C80.9839 75.4592 82.252 74.7767 83.5376 74.0845C83.5765 74.1544 83.6329 74.2146 83.6718 74.2845C83.9245 74.739 84.187 75.2109 84.4223 75.675C84.7937 76.3839 85.1476 77.1024 85.5015 77.821C85.6279 78.0482 85.7368 78.2852 85.8457 78.5221C85.8632 78.5124 85.8904 78.5201 85.9079 78.5104C85.9234 78.456 85.9389 78.4016 85.9272 78.3395C86.1983 76.5638 86.244 74.7533 86.3888 72.9564C86.3887 72.7504 86.4157 72.5523 86.4331 72.3367C86.8682 72.2548 87.313 72.1905 87.7481 72.1087C88.5484 71.984 89.339 71.8418 90.1567 71.7073C90.2014 71.7053 90.2363 71.6859 90.281 71.6839C90.3976 71.6878 90.4539 71.748 90.4404 71.847C90.4443 71.9364 90.423 72.0627 90.4095 72.1617C90.0978 74.2346 89.7861 76.3075 89.4841 78.3979C89.4763 78.4251 89.4686 78.4523 89.4803 78.5144C89.7056 78.5493 89.9582 78.5919 90.1835 78.6267C92.1399 78.9346 94.0962 79.2425 96.0428 79.5329C96.3226 79.5833 96.3886 79.6609 96.3208 79.9504C96.2336 80.4108 96.129 80.881 96.0243 81.3511C95.8673 82.0564 95.7103 82.7616 95.5533 83.4668C95.5185 83.6922 95.4738 83.6942 95.2562 83.6321C95.1202 83.5933 94.9842 83.5546 94.8482 83.5158C92.8957 83.0913 90.9335 82.6494 88.9985 82.2153C88.9441 82.1998 88.8994 82.2017 88.8275 82.1959C88.7752 82.431 88.75 82.6738 88.6802 82.9186C88.5542 83.3092 88.6495 83.6452 88.844 83.9948C89.1959 84.6686 89.4954 85.3717 89.8299 86.0553C89.9291 86.2748 89.9291 86.2748 89.7562 86.4167C88.9426 87.0523 88.1368 87.6607 87.3406 88.2867C87.2979 88.3333 87.263 88.3527 87.228 88.3722C87.0882 88.45 87.0435 88.4519 86.958 88.3393C86.7752 88.0519 86.5828 87.747 86.4 87.4596C85.5115 85.9856 84.6405 84.502 83.752 83.028C83.0462 81.8414 82.3502 80.6724 81.6542 79.5033C81.0359 78.474 80.4176 77.4448 79.8091 76.433C79.7702 76.3631 79.7216 76.2757 79.673 76.1883ZM91.8818 69.4891C91.9691 69.4405 92.0216 69.4113 92.0915 69.3724C93.0878 68.8183 94.1035 68.2991 95.09 67.7275C95.8416 67.3095 96.5562 66.8662 97.298 66.4307C98.5623 65.6588 99.8362 64.9045 101.1 64.1326C101.188 64.084 101.275 64.0354 101.363 63.9868C101.547 63.9071 101.574 63.9148 101.681 64.1071C101.769 64.2644 101.856 64.4217 101.936 64.6062C102.387 65.4995 102.838 66.3929 103.28 67.2688C103.309 67.3212 103.338 67.3736 103.377 67.4436C103.157 67.5427 102.955 67.6322 102.763 67.7391C102.087 68.0464 101.411 68.3537 100.728 68.6881C100.157 68.9371 99.5956 69.2035 99.0168 69.4796C98.508 69.7169 97.9914 69.9814 97.4651 70.2283C97.4127 70.2575 97.3427 70.2964 97.2553 70.345C97.4713 70.9801 97.8271 71.5374 98.0877 72.1706C98.1926 72.1122 98.2722 72.0908 98.3499 72.0248C99.4141 71.387 100.469 70.7319 101.523 70.0767C101.61 70.0281 101.68 69.9892 101.768 69.9406C101.873 69.8823 101.964 69.923 101.995 70.0201C102.055 70.1697 102.116 70.3192 102.176 70.4688C102.501 71.3408 102.826 72.2129 103.168 73.0752C103.259 73.3218 103.242 73.3316 103.022 73.4307C102.521 73.6408 102.003 73.8606 101.511 74.0881C100.896 74.339 100.272 74.6171 99.6664 74.8855C99.5965 74.9244 99.5441 74.9535 99.447 74.9847C99.7251 75.6081 100.001 76.1868 100.297 76.8005C100.384 76.7519 100.464 76.7305 100.507 76.6839C101.369 76.1356 102.204 75.5796 103.049 75.0411C103.831 74.5143 104.596 73.9972 105.389 73.4878C105.746 73.2662 105.773 73.2739 105.96 73.6507C106.496 74.6567 107.016 75.6724 107.552 76.6784C107.642 76.8803 107.634 76.9075 107.449 76.9873C107.055 77.1837 106.678 77.3704 106.302 77.557C105.171 78.1171 104.059 78.6674 102.955 79.2352C102.544 79.4413 102.14 79.6202 101.738 79.8438C101.433 80.0363 101.13 80.2734 100.835 80.4834C100.246 80.948 99.6581 81.4125 99.0775 81.8499C99.0173 81.9063 98.9649 81.9354 98.895 81.9743C98.8464 81.8869 98.79 81.8267 98.7511 81.7568C98.5741 81.3976 98.3875 81.0208 98.193 80.6712C97.3881 79.2652 96.6006 77.8495 95.8054 76.4609C95.4457 75.8142 95.0957 75.185 94.7283 74.5655C93.9019 73.0799 93.0581 71.604 92.2317 70.1183C92.1151 69.9086 92.0081 69.7163 91.8818 69.4891ZM102.494 63.495C103.805 62.7659 105.073 62.0834 106.358 61.3912C106.397 61.4611 106.454 61.5213 106.492 61.5912C106.745 62.0456 107.008 62.5175 107.243 62.9817C107.614 63.6905 107.968 64.4091 108.322 65.1277C108.449 65.3549 108.557 65.5918 108.666 65.8288C108.684 65.8191 108.711 65.8268 108.729 65.8171C108.744 65.7627 108.76 65.7083 108.748 65.6461C109.019 63.8705 109.065 62.06 109.209 60.263C109.209 60.0571 109.236 59.859 109.254 59.6433C109.689 59.5615 110.134 59.4972 110.569 59.4154C111.369 59.2906 112.16 59.1484 112.977 59.014C113.022 59.012 113.057 58.9926 113.102 58.9906C113.218 58.9944 113.275 59.0546 113.261 59.1537C113.265 59.2431 113.244 59.3693 113.23 59.4684C112.918 61.5413 112.607 63.6142 112.305 65.7045C112.297 65.7317 112.289 65.7589 112.301 65.8211C112.526 65.856 112.779 65.8986 113.004 65.9334C114.961 66.2413 116.917 66.5492 118.863 66.8396C119.143 66.8899 119.209 66.9676 119.141 67.2571C119.054 67.7175 118.95 68.1877 118.845 68.6578C118.688 69.3631 118.531 70.0683 118.374 70.7735C118.339 70.9989 118.294 71.0008 118.077 70.9388C117.941 70.9 117.805 70.8612 117.669 70.8224C115.716 70.398 113.754 69.9561 111.819 69.5219C111.765 69.5064 111.72 69.5084 111.648 69.5026C111.596 69.7377 111.571 69.9805 111.501 70.2253C111.375 70.6158 111.47 70.9519 111.665 71.3014C112.017 71.9753 112.316 72.6784 112.651 73.362C112.75 73.5815 112.75 73.5815 112.577 73.7233C111.763 74.359 110.957 74.9674 110.161 75.5933C110.119 75.64 110.084 75.6594 110.049 75.6789C109.909 75.7566 109.864 75.7586 109.779 75.646C109.596 75.3586 109.403 75.0537 109.221 74.7663C108.332 73.2923 107.461 71.8086 106.573 70.3347C105.867 69.1481 105.171 67.979 104.475 66.81C103.857 65.7807 103.238 64.7515 102.63 63.7397C102.591 63.6698 102.542 63.5824 102.494 63.495ZM118.033 54.3484C119.247 53.8563 120.443 53.3739 121.612 52.8838C125.431 56.0463 129.213 59.1836 133.031 62.3461C132.094 63.211 131.171 64.0215 130.224 64.869C129.511 64.3274 128.825 63.7935 128.102 63.2344C127.826 63.4793 127.568 63.7145 127.292 63.9594C126.379 64.7874 125.494 65.6232 124.554 66.4434C124.451 66.5464 124.393 66.6475 124.436 66.8067C124.481 67.0107 124.516 67.1971 124.551 67.3836C124.578 67.5973 124.51 67.6808 124.316 67.7431C123.37 68.0175 122.442 68.2822 121.496 68.5565C121.434 68.5682 121.354 68.5896 121.265 68.5936C120.126 63.8717 119.032 59.148 118.033 54.3484ZM123.059 59.311C123.041 59.3208 123.024 59.3305 123.006 59.3402C123.213 60.3697 123.409 61.3816 123.618 62.4558C124.179 61.9835 124.723 61.5208 125.284 61.0485C124.514 60.4467 123.791 59.8876 123.059 59.311ZM145.511 56.2056C145.3 56.2775 145.105 56.3398 144.929 56.3923C144.152 56.6414 143.375 56.8904 142.625 57.1472C142.483 57.1803 142.394 57.1843 142.283 57.1085C141.238 56.5457 140.21 55.9732 139.165 55.4104C138.871 55.2532 138.568 55.0785 138.247 54.9136C138.21 54.8883 138.146 54.8553 138.055 54.8146C138.036 54.9855 138.034 55.1468 138.022 55.2905C137.914 56.7009 137.806 58.1112 137.725 59.5294C137.718 59.7625 137.617 59.9102 137.444 60.0521C136.727 60.6566 136.011 61.2611 135.294 61.8656C135.252 61.9122 135.199 61.9414 135.129 61.9803C132.147 58.3064 129.156 54.6151 126.155 50.9063C126.363 50.745 126.57 50.5837 126.786 50.3951C127.815 49.571 128.854 48.7643 129.883 47.9401C130.056 47.7982 130.11 47.8137 130.182 48.0254C130.211 48.0778 130.231 48.1128 130.25 48.1478C130.826 49.0177 131.384 49.8974 131.949 50.7499C132.546 51.6995 133.151 52.622 133.738 53.5541C133.862 53.7366 133.987 53.9192 134.156 54.0997C134.152 54.0104 134.158 53.9385 134.154 53.8492C134.147 52.6856 134.124 51.5317 134.09 50.3603C134.098 50.3331 134.105 50.3059 134.086 50.271C134.061 50.102 134.136 49.9912 134.294 49.9037C134.905 49.5635 135.507 49.2057 136.119 48.8655C136.172 48.8363 136.224 48.8071 136.276 48.778C137.371 49.6341 138.437 50.4824 139.514 51.3483C139.532 51.3386 139.549 51.3288 139.566 51.3191C139.498 51.1968 139.458 51.0822 139.399 50.9773C138.826 49.7402 138.244 48.5303 137.653 47.3029C137.297 46.5396 136.931 45.7589 136.576 44.9956C136.498 44.8558 136.438 44.7063 136.342 44.5762C136.245 44.4014 136.261 44.347 136.455 44.2847C136.701 44.1933 136.948 44.1019 137.195 44.0104C138.368 43.6097 139.514 43.2011 140.66 42.7926C140.906 42.7012 140.961 42.7167 141.052 42.9634C141.558 44.49 142.072 45.9894 142.577 47.516C143.206 49.3864 143.844 51.2742 144.49 53.1349C144.809 54.0788 145.12 55.0499 145.439 55.9939C145.468 56.0463 145.48 56.1084 145.511 56.2056ZM144.387 39.6898C145.6 39.1977 146.797 38.7154 147.966 38.2252C151.785 41.3878 155.567 44.525 159.385 47.6875C158.448 48.5525 157.525 49.363 156.578 50.2104C155.864 49.6688 155.178 49.1349 154.456 48.5759C154.18 48.8208 153.922 49.0559 153.646 49.3008C152.733 50.1288 151.848 50.9646 150.908 51.7848C150.805 51.8879 150.747 51.9889 150.79 52.1482C150.835 52.3521 150.87 52.5386 150.905 52.725C150.932 52.9387 150.864 53.0223 150.67 53.0845C149.724 53.3589 148.796 53.6236 147.85 53.898C147.787 53.9097 147.708 53.9311 147.618 53.935C146.48 49.2132 145.386 44.4894 144.387 39.6898ZM149.413 44.6525C149.395 44.6622 149.378 44.6719 149.36 44.6816C149.567 45.7111 149.763 46.7231 149.972 47.7972C150.533 47.3249 151.077 46.8623 151.638 46.3899C150.868 45.7881 150.145 45.2291 149.413 44.6525ZM161.625 41.8876C161.753 42.1595 161.882 42.4314 162 42.6858C162.405 43.5365 162.799 44.3696 163.204 45.2203C163.323 45.4747 163.323 45.4747 163.115 45.636C162.284 46.2814 161.453 46.9267 160.621 47.5721C160.604 47.5818 160.587 47.5915 160.534 47.6207C160.505 47.5683 160.458 47.5256 160.429 47.4731C160.244 47.141 160.06 46.809 159.875 46.4769C158.475 43.96 157.075 41.4431 155.665 38.9088C155.014 37.7378 154.353 36.5492 153.684 35.3879C153.636 35.3005 153.597 35.2306 153.548 35.1432C153.618 35.1043 153.643 35.0674 153.696 35.0383C154.876 34.4044 156.047 33.753 157.246 33.1094C157.85 32.7964 158.454 32.4833 159.087 32.2227C159.992 31.8337 160.947 31.5768 161.93 31.5336C162.645 31.5021 163.312 31.5892 163.935 31.9288C164.779 32.3752 165.337 33.049 165.591 33.9599C165.901 35.0923 165.752 36.1821 165.288 37.2411C164.954 37.9988 164.5 38.6634 164.046 39.328C163.433 40.2413 162.633 40.9838 161.823 41.7088C161.763 41.7652 161.703 41.8215 161.625 41.8876ZM160.137 38.8016C160.378 38.5762 160.566 38.3799 160.755 38.1836C161.172 37.6997 161.516 37.1653 161.677 36.5494C161.727 36.2697 161.733 35.9919 161.631 35.7277C161.517 35.3568 161.184 35.1296 160.782 35.1473C160.675 35.161 160.551 35.1844 160.427 35.2077C159.879 35.3751 159.399 35.6648 158.912 35.9816C158.894 35.9914 158.877 36.0011 158.834 36.0477C159.268 36.9508 159.702 37.8539 160.137 38.8016Z" fill="black"/>
</g>
<defs>
<clipPath id="clip0_11_16893">
<rect width="200.611" height="72.4872" fill="white" transform="translate(0.0338135 97.353) rotate(-28.8949)"/>
</clipPath>
</defs>
</svg>
