<svg width="257" height="160" viewBox="0 0 257 160" fill="none" xmlns="http://www.w3.org/2000/svg">
<g clip-path="url(#clip0_11_16855)">
<mask id="mask0_11_16855" style="mask-type:luminance" maskUnits="userSpaceOnUse" x="0" y="0" width="257" height="159">
<path d="M256.382 76.3329L27.6235 0L0.0757526 82.5566L228.834 158.89L256.382 76.3329Z" fill="white"/>
</mask>
<g mask="url(#mask0_11_16855)">
<path d="M237.423 114.654C238.038 112.896 238.668 111.149 239.308 109.405C238.362 109.86 237.392 110.261 236.401 110.607C236.035 110.737 235.643 110.777 235.258 110.724C217.41 117.166 195.525 112.364 177.704 108.177C155.444 102.944 133.486 96.5044 111.925 88.8871C95.1573 82.9663 78.3579 76.5798 62.158 69.2252C48.3092 62.9412 34.3622 55.4361 24.0615 43.9928C22.8068 42.6259 21.6538 41.1686 20.6112 39.6336C18.91 45.5157 17.0956 51.3548 15.1682 57.1509C15.4483 57.6051 15.6221 58.1166 15.6765 58.6476C16.6626 66.8323 27.3844 74.0186 33.688 78.2776C41.0884 83.1418 48.9035 87.3435 57.042 90.8343C74.1908 98.4483 91.8887 105.164 109.6 111.334C130.028 118.466 150.813 124.532 171.871 129.506C182.131 131.877 192.533 133.59 203.012 134.634C211.152 135.478 228.917 138.56 232.343 128.092C232.49 127.621 232.774 127.204 233.158 126.895C234.111 122.705 236.063 118.553 237.425 114.656" fill="#5F9191"/>
<path d="M37.6066 46.6028C42.6844 50.5294 48.0982 54.0008 53.7852 56.9774C65.6279 63.3345 78.2601 68.0912 90.7423 73.0145C106.522 79.2402 122.459 85.0209 138.657 90.07C154.189 94.9119 169.933 99.3393 185.837 102.792C200.739 106.027 218.6 109.724 233.849 106.794C234.008 106.684 234.18 106.592 234.359 106.521C237.885 105.153 242.21 103.125 241.768 98.6258C241.341 94.2876 236.829 90.1953 233.851 87.2899C228.031 81.6158 221.217 76.9922 214.17 72.9796C198.18 63.8778 180.12 58.3316 162.859 52.1581C132.383 41.2575 101.109 31.8453 68.918 27.7319C60.7251 26.6662 52.4807 26.0395 44.2207 25.8545C39.4378 25.7597 29.2867 24.951 25.8968 29.5524C22.1749 34.6045 34.0467 43.7827 37.6066 46.6028Z" fill="#7EBEBE"/>
<path d="M24.6584 25.0071C23.3733 29.8797 22.0192 34.7631 20.6073 39.6331C21.651 41.1677 22.804 42.6246 24.0573 43.993C34.3603 55.4371 48.3052 62.9415 62.1526 69.2282C78.3533 76.5815 95.1516 82.9676 111.92 88.8903C133.481 96.5064 155.44 102.945 177.7 108.179C195.521 112.368 217.406 117.168 235.253 110.725C235.638 110.779 236.031 110.739 236.398 110.609C237.388 110.262 238.359 109.86 239.305 109.405C240.961 104.895 242.714 100.421 244.565 95.9827C244.677 95.6772 244.867 95.4061 245.115 95.1955C245.363 94.9849 245.662 94.8422 245.982 94.781C244.61 91.1302 241.811 87.8128 239.313 85.1696C227.466 72.6348 211.551 64.4554 195.712 58.1419C159.858 43.8509 123.06 30.1767 85.0453 22.9343C75.754 21.1556 66.371 19.8933 56.94 19.1534C48.7487 18.5185 40.0057 17.6878 31.8645 19.1918C26.6238 20.1609 20.2992 22.5291 18.2863 27.9972C17.7048 29.5906 17.5412 31.3063 17.8111 32.9807C18.9961 29.9481 20.1985 26.931 21.4185 23.9294C21.574 23.5154 21.8839 23.1778 22.2831 22.9876C22.6822 22.7973 23.1396 22.7692 23.5591 22.9092C23.9786 23.0491 24.3274 23.3463 24.5324 23.7381C24.7373 24.13 24.7824 24.586 24.6581 25.0104M25.8964 29.5563C29.2863 24.9548 39.4372 25.7619 44.2202 25.8584C52.48 26.0409 60.7241 26.6658 68.9168 27.7305C101.108 31.8422 132.382 41.2569 162.858 52.1567C180.121 58.332 198.176 63.8757 214.169 72.9782C221.216 76.9886 228.032 81.6109 233.85 87.2885C236.828 90.194 241.339 94.285 241.766 98.6244C242.211 103.128 237.882 105.154 234.358 106.519C234.178 106.591 234.007 106.682 233.848 106.792C218.605 109.725 200.739 106.028 185.836 102.791C169.931 99.3381 154.188 94.9107 138.656 90.0684C122.457 85.02 106.523 79.2394 90.7412 73.0129C78.261 68.0886 65.6239 63.3347 53.7855 56.9767C48.0985 54.0001 42.6848 50.5283 37.607 46.6021C34.0458 43.7856 22.175 34.6044 25.8969 29.5523" fill="#1C1C1C"/>
<path d="M25.5108 81.2522C32.7441 86.4194 40.3862 90.9895 48.361 94.9167C68.7929 104.72 90.459 112.666 111.918 119.874C135.143 127.673 159.094 134.922 183.279 139.042C194.556 140.961 205.328 142.195 216.63 140.816C222.763 140.067 230.196 138.611 234.603 134.041C234.345 134.059 234.085 134.023 233.84 133.936C233.596 133.849 233.373 133.712 233.185 133.533C232.996 133.355 232.847 133.14 232.746 132.901C232.645 132.662 232.595 132.405 232.599 132.146C232.553 130.379 232.74 128.614 233.155 126.895C232.771 127.205 232.487 127.623 232.34 128.094C228.914 138.562 211.149 135.479 203.009 134.635C192.531 133.592 182.131 131.879 171.872 129.506C150.815 124.532 130.03 118.467 109.602 111.337C91.8907 105.165 74.1926 98.4504 57.044 90.8374C48.9051 87.346 41.0904 83.1437 33.6901 78.2791C27.3875 74.0196 16.6645 66.8345 15.6794 58.6466C15.6249 58.1159 15.4511 57.6044 15.1711 57.1502C14.8588 58.0859 14.5632 59.0291 14.2437 59.9591C13.0438 63.4458 7.73403 61.7014 8.73615 58.2359C8.48506 58.8425 8.39568 59.5043 8.47681 60.1565C9.47465 68.4875 16.4508 74.8419 22.9148 79.428C23.7801 80.0428 24.6457 80.65 25.5108 81.2522Z" fill="#1C1C1C"/>
<path d="M14.2404 59.9588C14.5592 59.0286 14.8541 58.0851 15.1678 57.1499C17.1009 51.3666 18.9152 45.5275 20.6108 39.6326C22.0187 34.7621 23.3736 29.8789 24.6574 25.0051C24.7816 24.5809 24.7365 24.1251 24.5317 23.7335C24.3268 23.3418 23.9781 23.0448 23.5589 22.9049C23.1396 22.765 22.6824 22.7931 22.2834 22.9832C21.8844 23.1734 21.5747 23.5108 21.4193 23.9246C20.1975 26.9234 18.995 29.9406 17.8118 32.976C14.5712 41.2808 11.4933 49.692 8.75905 58.1298C8.74682 58.1665 8.74608 58.1985 8.73546 58.2353C7.73322 61.7012 13.043 63.4455 14.2404 59.9588Z" fill="#1C1C1C"/>
<path d="M244.567 95.9846C242.711 100.424 240.957 104.898 239.307 109.407C238.666 111.151 238.036 112.898 237.422 114.656C236.06 118.555 234.108 122.707 233.155 126.895C232.74 128.614 232.553 130.379 232.599 132.146C232.595 132.405 232.645 132.662 232.745 132.901C232.846 133.14 232.995 133.355 233.184 133.533C233.372 133.711 233.595 133.848 233.839 133.936C234.083 134.023 234.343 134.059 234.601 134.04C234.877 134.02 235.144 133.942 235.388 133.812C235.631 133.682 235.844 133.503 236.015 133.285C239.759 128.687 240.889 121.965 242.66 116.404C244.684 110.044 246.52 103.656 248.161 97.1862C248.299 96.7156 248.25 96.2098 248.023 95.775C247.796 95.3402 247.409 95.0104 246.944 94.8552C246.479 94.6999 245.972 94.7314 245.529 94.9428C245.086 95.1542 244.743 95.5291 244.572 95.9885" fill="#1C1C1C"/>
<path d="M27.5126 46.7964C27.7291 48.9895 27.7017 51.1997 27.4309 53.3867C27.3499 54.4694 27.1379 55.52 26.9877 56.5864L26.3407 59.7358L25.4983 62.8394C25.1487 63.8574 24.8673 64.8921 24.4484 65.8939C23.7023 67.9671 22.7259 69.9502 21.5376 71.8061C21.318 69.6136 21.3436 67.4036 21.614 65.2168C21.6929 64.1351 21.9107 63.0848 22.0581 62.0191L22.7076 58.8721L23.5545 55.77C23.9026 54.7515 24.1891 53.7165 24.6044 52.7155C25.3525 50.6434 26.3273 48.6601 27.5108 46.8018" fill="#141414"/>
<path d="M41.157 53.1877C41.2302 55.7865 41.0595 58.3867 40.6474 60.9535C40.4944 62.2296 40.2154 63.4637 39.9954 64.717L39.1411 68.4255L38.0934 72.0848C37.6754 73.2875 37.3256 74.5076 36.8386 75.6936C35.9544 78.1396 34.8403 80.4964 33.5113 82.7319C33.4288 80.1437 33.5949 77.5537 34.0073 74.997C34.1588 73.7204 34.4455 72.4784 34.6641 71.2194L35.5278 67.4902L36.5887 63.8135C37.0066 62.606 37.363 61.3813 37.8475 60.1928C38.7271 57.7573 39.8367 55.4107 41.1611 53.1854" fill="#141414"/>
<path d="M52.6828 65.2294C52.7151 66.9854 52.5644 68.7404 52.2338 70.4653C52.1232 71.3109 51.8985 72.1111 51.7416 72.9344C51.5264 73.7402 51.3212 74.545 51.1276 75.3536C50.8721 76.1435 50.6272 76.9378 50.3924 77.7359C50.0917 78.5197 49.8701 79.3205 49.5208 80.099C48.9022 81.7435 48.1117 83.3181 47.1627 84.7967C46.7013 83.0646 46.5353 81.2668 46.6721 79.4793C46.7216 78.6081 46.8175 77.7402 46.959 76.8796C47.1391 76.0301 47.33 75.1835 47.5321 74.3398C47.8029 73.5138 48.0843 72.6921 48.3772 71.8747C48.7053 71.067 49.0763 70.2768 49.489 69.5091C50.3076 67.9144 51.3872 66.4676 52.6828 65.2294Z" fill="#141414"/>
<path d="M65.3466 68.8079C65.7274 70.4469 65.8721 72.1319 65.7768 73.8118C65.78 74.6307 65.6536 75.4242 65.5864 76.229L65.1927 78.6047L64.6008 80.9384C64.3346 81.7014 64.136 82.4777 63.8008 83.2285C63.211 84.806 62.3967 86.2899 61.3825 87.635C60.9992 85.9951 60.8528 84.3092 60.9481 82.6281C60.9444 81.8073 61.0733 81.011 61.139 80.2094L61.5389 77.8358L62.134 75.5056C62.3971 74.7415 62.6008 73.9653 62.9338 73.2153C63.5251 71.6392 64.3371 70.1549 65.3462 68.8069" fill="#141414"/>
<path d="M87.7197 76.913C87.6214 79.25 87.3361 81.5755 86.8664 83.8669C86.6894 85.0022 86.3941 86.0997 86.1724 87.2165L85.3571 90.5208L84.4271 93.7977C84.0604 94.8762 83.7733 95.9748 83.3613 97.0486C82.6286 99.2709 81.7159 101.429 80.6325 103.503C80.2892 101.161 80.2483 98.7836 80.512 96.4308C80.5905 95.261 80.8185 94.1205 80.9874 92.9675L81.752 89.5635L82.7888 86.2327C83.2137 85.1478 83.5893 84.0465 84.1019 82.9928C85.0446 80.8218 86.2614 78.7801 87.7224 76.9179" fill="#141414"/>
<path d="M118.652 87.864C118.755 89.8192 118.616 91.7794 118.237 93.7004C118.102 94.6504 117.839 95.5582 117.639 96.4865L116.84 99.206L115.844 101.866C115.446 102.728 115.117 103.613 114.653 104.454C113.803 106.217 112.736 107.867 111.477 109.366C111.371 107.411 111.509 105.451 111.888 103.532C112.022 102.581 112.29 101.675 112.49 100.746L113.293 98.0287L114.287 95.3748C114.682 94.5112 115.018 93.6281 115.482 92.7876C116.332 91.0252 117.396 89.3747 118.652 87.8741" fill="#141414"/>
<path d="M145.531 92.4391C145.228 95.1528 144.768 97.8467 144.151 100.507C143.899 101.833 143.539 103.114 143.26 104.42C142.918 105.709 142.593 107.001 142.284 108.297C141.916 109.577 141.564 110.862 141.228 112.152C140.829 113.429 140.516 114.724 140.081 115.999C139.309 118.618 138.382 121.189 137.303 123.698C136.943 120.954 136.916 118.176 137.223 115.426C137.324 114.05 137.579 112.71 137.783 111.354C138.064 110.015 138.361 108.68 138.674 107.347C139.058 106.032 139.458 104.723 139.877 103.421C140.366 102.14 140.809 100.847 141.396 99.6019C142.484 97.0577 143.874 94.6532 145.535 92.4406" fill="#141414"/>
<path d="M166.845 100.171C166.785 102.612 166.525 105.044 166.069 107.443C165.899 108.634 165.608 109.788 165.386 110.959L164.564 114.43L163.61 117.866C163.233 118.998 162.932 120.148 162.509 121.273C161.748 123.594 160.797 125.848 159.665 128.012C159.371 125.566 159.37 123.093 159.661 120.646C159.753 119.433 159.991 118.244 160.17 117.043L160.949 113.496L161.987 110.017C162.409 108.878 162.78 107.726 163.287 106.618C164.215 104.336 165.411 102.171 166.848 100.17" fill="#141414"/>
<path d="M192.761 109.442C192.831 111.787 192.655 114.133 192.237 116.443C192.084 117.589 191.799 118.701 191.578 119.828L190.718 123.152L189.665 126.423C189.245 127.494 188.894 128.583 188.407 129.634C187.522 131.808 186.41 133.883 185.089 135.825C185.015 133.479 185.189 131.132 185.606 128.823C185.759 127.675 186.048 126.565 186.267 125.439L187.128 122.112L188.187 118.844C188.604 117.773 188.96 116.684 189.445 115.633C190.33 113.459 191.44 111.384 192.756 109.44" fill="#141414"/>
<path d="M207.741 111.3C207.91 113.35 207.836 115.414 207.52 117.447C207.417 118.452 207.184 119.421 207.013 120.407L206.303 123.311L205.4 126.16C205.03 127.09 204.728 128.04 204.292 128.952C203.502 130.851 202.488 132.65 201.271 134.309C201.098 132.258 201.17 130.194 201.487 128.161C201.589 127.155 201.826 126.187 201.995 125.2L202.708 122.298L203.618 119.45C203.985 118.52 204.291 117.571 204.727 116.658C205.517 114.759 206.529 112.961 207.741 111.3Z" fill="#141414"/>
<path d="M219.683 111.521C219.612 113.565 219.356 115.599 218.917 117.598C218.754 118.584 218.478 119.525 218.269 120.494C218.001 121.44 217.744 122.388 217.498 123.339C217.191 124.274 216.894 125.211 216.607 126.15C216.255 127.074 215.983 128.02 215.582 128.936C214.869 130.854 213.979 132.702 212.926 134.456C212.564 132.41 212.504 130.322 212.748 128.259C212.814 127.236 213.031 126.246 213.189 125.239C213.421 124.253 213.664 123.268 213.917 122.286C214.238 121.322 214.57 120.364 214.912 119.41C215.322 118.476 215.682 117.529 216.178 116.632C217.094 114.768 218.275 113.047 219.683 111.521Z" fill="#141414"/>
<path d="M231.671 111.109C231.818 112.918 231.725 114.739 231.394 116.524C231.283 117.399 231.043 118.24 230.866 119.1L230.138 121.608L229.218 124.053C228.843 124.846 228.537 125.661 228.097 126.431C227.291 128.057 226.27 129.568 225.061 130.923C224.909 129.114 225 127.293 225.331 125.508C225.44 124.632 225.687 123.793 225.863 122.934L226.596 120.426L227.52 117.983C227.892 117.189 228.204 116.376 228.645 115.606C229.451 113.98 230.47 112.469 231.674 111.112" fill="#141414"/>
<path d="M234.346 115.792C234.723 117.278 234.866 118.814 234.771 120.345C234.772 121.086 234.648 121.796 234.581 122.525L234.186 124.659L233.598 126.747C233.331 127.427 233.134 128.122 232.801 128.787C232.206 130.201 231.393 131.513 230.393 132.676C230.012 131.19 229.867 129.654 229.962 128.123C229.96 127.381 230.089 126.668 230.154 125.941L230.552 123.809L231.146 121.722C231.411 121.042 231.612 120.346 231.944 119.681C232.539 118.269 233.349 116.957 234.346 115.792Z" fill="#141414"/>
<path d="M66.2563 26.4214C64.8788 27.8723 63.3301 29.1504 61.6446 30.2279C60.8467 30.7993 59.9886 31.2511 59.1597 31.7566L56.5848 33.0977L53.9219 34.2577C53.0031 34.5806 52.1163 34.9664 51.1681 35.2256C49.2678 35.8565 47.2974 36.2523 45.3009 36.4045C46.6767 34.9503 48.2253 33.67 49.9121 32.5921C50.7098 32.0206 51.5695 31.5743 52.3969 31.0633L54.9775 29.7274L57.6356 28.5716C58.5534 28.2468 59.4423 27.8649 60.3888 27.6052C62.2883 26.9746 64.2571 26.5766 66.2523 26.4201" fill="#141414"/>
<path d="M70.9802 31.1619C69.3761 32.6836 67.6763 34.1013 65.8912 35.4062C65.0501 36.0876 64.158 36.6666 63.309 37.3146C62.4289 37.9134 61.5608 38.5269 60.7044 39.1551C59.8151 39.7352 58.9349 40.3317 58.0642 40.9447C57.156 41.5067 56.3007 42.141 55.365 42.6838C53.514 43.8946 51.5858 44.9824 49.5924 45.9403C50.6048 43.9149 51.9253 42.0588 53.5067 40.4382C54.2539 39.5986 55.1045 38.8814 55.9297 38.1233C56.7997 37.4278 57.6839 36.748 58.5814 36.0838C59.5209 35.4811 60.4704 34.8959 61.4309 34.3284C62.428 33.8251 63.4044 33.285 64.4529 32.8818C66.528 31.9775 68.7302 31.3977 70.9817 31.1624" fill="#141414"/>
<path d="M71.2052 38.1894C70.5618 39.3484 69.784 40.4276 68.8882 41.4047C68.5011 41.8984 68.0482 42.2897 67.642 42.7413C67.1993 43.1432 66.7649 43.5536 66.3386 43.9726C65.8734 44.3448 65.4131 44.7279 64.9609 45.1194C64.4621 45.4655 64.0215 45.8716 63.4836 46.1956C62.4044 46.9679 61.2367 47.6085 60.0054 48.1036C60.1467 46.7248 60.6031 45.397 61.3395 44.2228C61.6795 43.6527 62.0619 43.1088 62.4829 42.5956C62.932 42.1146 63.3909 41.6424 63.8595 41.1789C64.3776 40.7702 64.9036 40.3729 65.4382 39.9873C65.9981 39.631 66.5839 39.3172 67.1905 39.0484C68.4451 38.4615 69.8172 38.1685 71.202 38.1917" fill="#141414"/>
<path d="M71.0127 47.5663C70.9785 48.3809 70.8171 49.1849 70.5353 49.9499C70.4295 50.2559 70.3026 50.5542 70.1544 50.8421C69.9869 51.0964 69.8269 51.3545 69.6752 51.6169C69.4721 51.841 69.2752 52.0706 69.0829 52.3083C68.8535 52.5364 68.6075 52.7475 68.3478 52.9405C67.7016 53.4393 66.9802 53.8331 66.2113 54.1071C65.7887 53.3237 65.6388 52.4223 65.7848 51.5445C65.8438 51.1537 65.9481 50.771 66.0955 50.4042C66.2747 50.0667 66.4643 49.7319 66.6623 49.4023C66.9197 49.1133 67.1833 48.8347 67.4546 48.5636C67.7588 48.3134 68.0921 48.1006 68.4467 47.9293C69.2392 47.53 70.1409 47.4025 71.0127 47.5663Z" fill="#141414"/>
<path d="M81.8353 31.8107C82.0289 32.4555 82.141 33.1221 82.1687 33.7947C82.1794 34.0275 82.1697 34.261 82.1389 34.4922C82.0808 34.6917 82.0297 34.892 81.9864 35.0907C81.884 35.2672 81.7848 35.4472 81.6948 35.6345C81.5603 35.8248 81.4083 36.0022 81.2418 36.165C80.763 36.6409 80.2249 37.0526 79.6403 37.3898C79.0039 36.9715 78.5545 36.3231 78.3863 35.5805C78.3125 35.2681 78.285 34.9469 78.3039 34.6266C78.3621 34.325 78.4302 34.0243 78.511 33.7253C78.6565 33.4512 78.8132 33.185 78.9776 32.9256C79.1818 32.6776 79.4218 32.4614 79.6896 32.284C80.318 31.8555 81.0877 31.6857 81.8379 31.8099" fill="#141414"/>
<path d="M198.611 92.0233C200.732 91.4293 202.908 91.0488 205.105 90.8873C206.183 90.7577 207.253 90.7544 208.32 90.682L211.527 90.6538L214.729 90.7944C215.798 90.9074 216.867 90.9386 217.935 91.1124C220.125 91.3542 222.285 91.8159 224.383 92.4903C222.306 93.2632 220.143 93.7798 217.94 94.0283C216.862 94.2036 215.782 94.2341 214.701 94.331L211.458 94.3876L208.221 94.2085C207.143 94.0753 206.064 94.0015 204.993 93.789C202.802 93.4592 200.66 92.8667 198.611 92.0233Z" fill="#141414"/>
<path d="M199.164 86.04C200.149 85.1106 201.287 84.3585 202.528 83.817C203.104 83.549 203.695 83.3131 204.297 83.1106L206.113 82.6081L207.971 82.3015C208.603 82.2345 209.238 82.2016 209.874 82.2027C210.194 82.2031 210.517 82.2111 210.839 82.2329C211.124 82.2414 211.408 82.2773 211.686 82.3404C211.769 82.361 211.851 82.3893 211.929 82.4248L211.98 82.4426L212.007 82.4508L212.021 82.4547L212.029 82.4555C211.998 82.4361 212.299 82.6261 212.171 82.5461C212.158 82.5282 212.044 82.5087 212.124 82.5136C212.261 82.4803 212.468 82.1042 212.12 81.9453C212.245 81.7977 212.557 81.8118 212.75 81.9625C212.858 82.0394 212.949 82.1373 213.018 82.2503C213.088 82.3632 213.134 82.489 213.153 82.62C213.159 82.911 213.086 83.1982 212.942 83.4514C212.799 83.7046 212.59 83.9146 212.337 84.0594C211.932 84.3285 211.642 84.47 211.362 84.6259C211.083 84.782 210.786 84.9227 210.494 85.0554C209.917 85.3227 209.325 85.5589 208.723 85.7629L206.907 86.2604L205.05 86.5553C204.418 86.6224 203.783 86.6551 203.148 86.6528C201.794 86.6793 200.446 86.4713 199.164 86.0384" fill="#141414"/>
<path d="M192.023 85.3537C193.267 84.0343 194.6 82.8024 196.013 81.6668C196.66 81.0763 197.362 80.5892 198.016 80.0318C198.702 79.5215 199.373 78.9963 200.032 78.4564C200.725 77.9635 201.408 77.4507 202.08 76.918C202.791 76.4365 203.443 75.8859 204.184 75.4171C205.651 74.3523 207.193 73.392 208.795 72.5429C208.263 74.3502 207.385 76.0372 206.212 77.5108C205.647 78.2444 205.037 78.942 204.385 79.5996C203.707 80.2221 203.01 80.8292 202.297 81.421C201.539 81.9508 200.769 82.461 199.989 82.9515C199.183 83.4069 198.349 83.8114 197.493 84.1628C195.763 84.9067 193.906 85.3103 192.023 85.3515" fill="#141414"/>
<path d="M128.876 42.2601C128.969 43.3138 129.037 44.0141 129.075 44.6485C129.131 44.9759 129.087 45.2466 129.119 45.5351C129.095 45.8056 129.088 46.0773 129.097 46.3487C129.049 46.616 129.017 46.8861 129.002 47.1572C128.924 47.4364 128.933 47.7089 128.827 48.0269C128.702 48.6488 128.526 49.3279 128.274 50.3603C127.796 50.2723 127.344 50.0794 126.95 49.7956C126.556 49.5119 126.23 49.1441 125.995 48.7192C125.76 48.3207 125.584 47.8897 125.475 47.44C125.41 46.987 125.376 46.53 125.373 46.0723C125.445 45.6198 125.548 45.1728 125.68 44.7343C125.855 44.3068 126.092 43.9074 126.382 43.5487C126.678 43.1642 127.054 42.8493 127.486 42.6266C127.916 42.4038 128.392 42.2789 128.876 42.2601Z" fill="#141414"/>
<path d="M183.165 67.8977C184.074 68.1747 184.928 68.6078 185.688 69.1775C186.019 69.4138 186.334 69.6719 186.631 69.95C186.896 70.2402 187.165 70.5249 187.437 70.8044C187.661 71.1278 187.888 71.4401 188.126 71.7549C188.341 72.1 188.533 72.4585 188.703 72.8282C189.118 73.684 189.379 74.6066 189.473 75.5534C188.474 75.592 187.485 75.3526 186.614 74.8616C186.216 74.6483 185.84 74.3983 185.489 74.1146C185.172 73.809 184.859 73.4957 184.553 73.1761C184.299 72.8135 184.051 72.4439 183.814 72.0746C183.603 71.6764 183.43 71.2591 183.297 70.8279C182.985 69.8813 182.938 68.8671 183.161 67.8955" fill="#141414"/>
<path d="M193.444 69.0005C194.082 68.5532 194.824 68.2754 195.6 68.1932C195.915 68.1547 196.233 68.1498 196.549 68.1783L197.43 68.3637L198.248 68.7401C199.187 69.3224 199.89 70.2173 200.234 71.2674C199.329 71.9004 198.229 72.1936 197.128 72.0954L196.249 71.9055L195.433 71.5246C195.163 71.3576 194.911 71.1624 194.682 70.9424C194.111 70.41 193.685 69.7413 193.444 68.999" fill="#141414"/>
<path d="M216.197 72.6617C217.187 72.1961 218.275 71.9777 219.368 72.0254C219.871 72.0362 220.371 72.0887 220.865 72.1823L222.293 72.5809L223.634 73.2114C224.068 73.4645 224.48 73.753 224.866 74.0739C225.725 74.7547 226.403 75.636 226.841 76.6405C225.803 76.8592 224.733 76.8924 223.683 76.7387C223.217 76.6823 222.754 76.5982 222.297 76.4868L220.985 76.0798L219.731 75.5219C219.313 75.3072 218.908 75.0674 218.518 74.8037C217.626 74.2299 216.841 73.505 216.197 72.6617Z" fill="#141414"/>
<path d="M212.827 101.582C213.651 101.119 214.57 100.851 215.513 100.799C215.924 100.767 216.337 100.77 216.748 100.807L217.931 101.017L219.06 101.421C219.435 101.594 219.795 101.797 220.136 102.029C220.928 102.546 221.589 103.24 222.067 104.056C221.245 104.522 220.325 104.792 219.382 104.844C218.97 104.874 218.557 104.872 218.146 104.835L216.966 104.62L215.836 104.211C215.462 104.039 215.103 103.835 214.762 103.603C213.97 103.087 213.309 102.395 212.827 101.582Z" fill="#141414"/>
</g>
<path d="M83.66 52.8143C83.8146 53.2134 83.9612 53.5685 84.0774 53.9565C84.3202 54.8395 84.3734 55.7299 84.0915 56.6269C83.7177 57.7678 82.9637 58.569 81.8487 59.036C80.7833 59.4757 79.7177 59.4154 78.6343 59.0584C77.5893 58.7125 76.6387 58.1858 75.7104 57.5822C75.6584 57.5463 75.6063 57.5103 75.5351 57.4687C75.4632 57.5728 75.3888 57.6136 75.268 57.5993C74.4223 57.4989 73.5631 57.3737 72.7174 57.2733C72.6598 57.2566 72.6022 57.2398 72.5198 57.2366C72.5453 57.0774 72.5708 56.9182 72.6156 56.7646C72.792 56.0869 72.9685 55.4092 73.1257 54.7259C73.3078 54.029 73.4651 53.3458 73.6415 52.6681C73.7988 51.9848 73.9752 51.3071 74.1269 50.643C74.273 49.9982 74.4439 49.3397 74.5899 48.6948C74.7608 48.0363 74.9125 47.3722 75.0833 46.7137C75.2462 46.0113 75.4227 45.3336 75.5855 44.6311C75.6669 44.2799 75.7347 43.9038 75.8162 43.5526C75.8329 43.495 75.8441 43.4566 75.8857 43.3853C75.9625 43.4077 76.0201 43.4245 76.0777 43.4412C77.4027 43.827 78.7221 44.2319 80.0415 44.6369C80.5984 44.799 81.1745 44.9667 81.7394 45.1728C82.6443 45.4988 83.5046 45.9783 84.2569 46.614C84.8643 47.1033 85.375 47.7102 85.6074 48.4861C85.9159 49.4299 85.8235 50.3196 85.3248 51.1742C84.9675 51.7576 84.5061 52.269 83.9191 52.6397C83.8391 52.6998 83.7592 52.7598 83.66 52.8143ZM77.9813 50.6403C78.8902 50.7382 79.8989 50.6361 80.5875 50.2742C80.7611 50.1789 80.9402 50.0644 81.1058 49.9251C81.2825 49.7475 81.4127 49.5146 81.447 49.2538C81.4764 48.8666 81.2635 48.5963 80.9458 48.3996C80.5049 48.1254 80.0248 47.9857 79.5391 47.8651C79.3607 47.834 79.2015 47.8085 79.0039 47.7718C78.6612 48.7344 78.324 49.6777 77.9813 50.6403ZM76.7837 53.8953C76.7278 54.0873 76.6775 54.2602 76.6216 54.4522C76.7665 54.5985 76.8866 54.7584 77.0618 54.872C77.626 55.2237 78.2317 55.5042 78.8766 55.6503C79.2031 55.7453 79.5575 55.7443 79.8846 55.6938C80.5446 55.5734 81.0266 54.7764 80.7006 54.0357C80.6189 53.887 80.5205 53.7958 80.3253 53.8223C80.2373 53.8384 80.1605 53.816 80.0725 53.8321C79.3773 53.8588 78.6765 53.9048 77.9869 53.9123C77.6077 53.9269 77.2205 53.8975 76.7837 53.8953ZM88.0143 46.7913C88.0911 46.8137 88.1295 46.8249 88.1871 46.8416C89.5641 47.2633 90.9467 47.6658 92.3237 48.0876C92.5158 48.1435 92.5238 48.1875 92.4543 48.3547C92.4015 48.4643 92.3488 48.5739 92.3152 48.6892C91.9086 49.7998 91.4964 50.9296 91.1033 52.065C90.7134 53.118 90.3372 54.1958 89.9417 55.2679C89.7356 55.8329 89.5239 56.417 89.3178 56.9819C89.273 57.1355 89.2835 57.2427 89.346 57.3858C89.5822 57.9337 89.9896 58.3231 90.4634 58.6277C90.7099 58.7828 91.0035 58.8474 91.2755 58.8433C92.0611 58.8637 92.7626 58.6721 93.3752 58.1422C93.7422 57.8117 94.0164 57.3707 94.2137 56.9074C94.336 56.6306 94.4143 56.3617 94.5173 56.0793C94.7937 55.2015 95.0756 54.3046 95.3328 53.4213C95.6203 52.5051 95.8255 51.5858 95.9922 50.6553C96.0656 50.2601 96.1638 49.8512 96.2676 49.4232C97.7469 49.7081 99.2151 50.0313 100.727 50.3466C100.694 50.4618 100.671 50.5386 100.649 50.6154C100.086 52.2637 99.5226 53.912 98.9347 55.5739C98.6391 56.446 98.3627 57.3237 98.048 58.1903C97.3266 60.1675 95.9872 61.5481 93.9948 62.2387C92.8638 62.6177 91.7262 62.6615 90.5541 62.466C89.6236 62.2993 88.8042 61.8941 88.0376 61.3793C88.0047 61.3489 87.9663 61.3377 87.9335 61.3074C87.767 61.0922 87.5254 61.0636 87.303 61.0405C86.4381 60.9345 85.5789 60.8093 84.7332 60.7089C84.6756 60.6922 84.618 60.6754 84.5604 60.6586C84.558 60.5954 84.5692 60.557 84.5859 60.4994C84.7823 59.6817 84.9787 58.864 85.1751 58.0463C85.2677 57.6567 85.3795 57.2726 85.4913 56.8886C85.6007 56.4413 85.7293 55.9996 85.8579 55.558C86.0375 54.7979 86.2363 54.0434 86.4159 53.2833C86.5197 52.8553 86.6235 52.4272 86.7409 52.0239C86.8726 51.4999 87.01 50.9566 87.1417 50.4325C87.307 49.7933 87.4531 49.1484 87.5991 48.5035C87.7253 47.9987 87.8266 47.5074 87.9528 47.0025C87.9696 46.9449 87.9919 46.8681 88.0143 46.7913ZM101.307 51.9317C101.865 51.8026 102.393 51.7063 102.926 51.5909C103.724 51.4273 104.502 51.2581 105.3 51.0945C105.363 51.092 105.407 51.084 105.47 51.0816C105.533 51.0792 105.605 51.1207 105.601 51.2031C105.63 51.4615 105.634 51.7335 105.663 51.9919C105.869 53.7182 106.099 55.4309 106.305 57.1572C106.313 57.2012 106.335 57.27 106.351 57.3579C106.406 57.3115 106.436 57.2787 106.486 57.2515C107.916 55.918 109.34 54.6037 110.77 53.2701C110.825 53.2237 110.88 53.1773 110.916 53.1253C111.043 52.9748 111.106 52.9724 111.226 53.1323C111.379 53.3226 111.532 53.513 111.685 53.7033C112.321 54.451 112.933 55.2123 113.564 55.9791C113.597 56.0095 113.605 56.0535 113.651 56.1087C113.485 56.248 113.32 56.3873 113.154 56.5266C111.866 57.5888 110.597 58.6566 109.295 59.6941C108.865 60.0271 108.383 60.3241 107.939 60.6324C107.754 60.766 107.537 60.8694 107.409 61.0198C107.277 61.1895 107.229 61.4255 107.148 61.6311C106.725 62.7994 106.301 63.9676 105.897 65.1414C105.794 65.4238 105.691 65.7063 105.588 65.9887C105.513 66.1752 105.507 66.1944 105.285 66.1713C104.242 66.0342 103.198 65.8971 102.149 65.7792C101.952 65.7425 101.919 65.7122 101.956 65.5145C102.029 65.1193 102.127 64.7105 102.22 64.3208C102.475 63.2287 102.731 62.1366 103.005 61.05C103.073 60.8196 103.071 60.6108 103.006 60.4044C102.728 59.4278 102.45 58.4511 102.216 57.4664C102.089 56.9713 102.012 56.4489 101.929 55.9458C101.788 55.0714 101.652 54.1779 101.517 53.2844C101.437 52.8444 101.381 52.3908 101.307 51.9317ZM120.824 56.5098C122.265 56.9291 123.642 57.3508 125.038 57.7781C125.015 57.8549 125.012 57.9373 124.99 58.0141C124.845 58.5134 124.694 59.0319 124.529 59.5255C124.286 60.2881 124.024 61.045 123.762 61.8019C123.69 62.0516 123.598 62.2956 123.506 62.5397C123.525 62.5453 123.539 62.57 123.558 62.5756C123.607 62.5484 123.657 62.5212 123.693 62.4692C125.146 61.4132 126.465 60.1726 127.845 59.0119C127.991 58.867 128.151 58.7469 128.317 58.6077C128.681 58.8595 129.039 59.1305 129.403 59.3823C130.055 59.8636 130.712 60.3257 131.382 60.8125C131.415 60.8429 131.454 60.8541 131.487 60.8845C131.566 60.97 131.563 61.0524 131.483 61.1125C131.422 61.1781 131.317 61.2518 131.237 61.3118C129.544 62.5478 127.851 63.7839 126.153 65.0391C126.128 65.0528 126.103 65.0664 126.067 65.1184C126.201 65.3031 126.348 65.5126 126.482 65.6974C127.639 67.3048 128.795 68.9122 129.958 70.5004C130.119 70.7348 130.11 70.8364 129.856 70.9917C129.468 71.2535 129.06 71.5097 128.652 71.7659C128.04 72.1502 127.428 72.5345 126.817 72.9188C126.632 73.0525 126.599 73.0221 126.49 72.8238C126.422 72.6998 126.354 72.5758 126.286 72.4519C125.215 70.7652 124.149 69.0593 123.097 67.3783C123.07 67.3287 123.037 67.2983 122.99 67.2431C122.787 67.3712 122.596 67.5241 122.373 67.6466C122.007 67.8316 121.835 68.1357 121.723 68.5197C121.491 69.2439 121.202 69.9512 120.951 70.6697C120.865 70.8946 120.865 70.8946 120.643 70.8715C119.619 70.74 118.619 70.5949 117.615 70.469C117.551 70.4714 117.513 70.4602 117.474 70.4491C117.321 70.4043 117.288 70.374 117.308 70.234C117.384 69.9019 117.465 69.5507 117.541 69.2186C117.964 67.5504 118.407 65.8878 118.83 64.2196C119.177 62.8834 119.519 61.5664 119.861 60.2495C120.158 59.0861 120.455 57.9228 120.746 56.7786C120.768 56.7018 120.796 56.6058 120.824 56.5098ZM134.173 60.4792C134.269 60.5071 134.326 60.5239 134.403 60.5462C135.498 60.8649 136.581 61.222 137.681 61.5214C138.507 61.7618 139.325 61.9582 140.156 62.1794C141.594 62.5355 143.026 62.9107 144.464 63.2668C144.56 63.2948 144.656 63.3227 144.752 63.3507C144.938 63.4258 144.952 63.4506 144.89 63.6618C144.84 63.8346 144.79 64.0075 144.715 64.1939C144.397 65.1429 144.079 66.0918 143.766 67.0216C143.75 67.0792 143.733 67.1368 143.71 67.2136C143.486 67.1273 143.28 67.0466 143.069 66.9851C142.375 66.7207 141.681 66.4562 140.963 66.2054C140.384 65.9745 139.8 65.7628 139.197 65.5455C138.67 65.3505 138.119 65.1692 137.573 64.9687C137.516 64.9519 137.439 64.9295 137.343 64.9016C137.043 65.5017 136.897 66.1466 136.63 66.7771C136.745 66.8107 136.817 66.8522 136.918 66.861C138.12 67.1692 139.327 67.4582 140.535 67.7472C140.631 67.7751 140.708 67.7975 140.804 67.8255C140.919 67.859 140.954 67.9526 140.907 68.043C140.843 68.191 140.779 68.3391 140.715 68.4871C140.323 69.3313 139.932 70.1755 139.56 71.0253C139.448 71.2637 139.429 71.2581 139.204 71.1718C138.703 70.9633 138.182 70.7492 137.674 70.5598C137.063 70.2985 136.427 70.0508 135.81 69.8087C135.733 69.7864 135.676 69.7696 135.585 69.7225C135.338 70.3586 135.12 70.9619 134.892 71.6036C134.988 71.6316 135.059 71.6731 135.122 71.6707C136.118 71.8982 137.101 72.1009 138.078 72.3228C139.003 72.5088 139.908 72.6891 140.828 72.8942C141.237 72.9924 141.25 73.0172 141.114 73.4149C140.776 74.5039 140.419 75.5872 140.081 76.6762C140 76.8819 139.975 76.8955 139.789 76.8204C139.372 76.6782 138.974 76.5416 138.577 76.405C137.384 75.9952 136.21 75.5909 135.03 75.2059C134.594 75.0581 134.183 74.8968 133.741 74.7682C133.39 74.6868 133.009 74.6381 132.652 74.5759C131.908 74.4843 131.164 74.3927 130.444 74.2874C130.362 74.2843 130.304 74.2675 130.228 74.2451C130.255 74.1491 130.259 74.0667 130.281 73.9899C130.412 73.6114 130.549 73.2138 130.66 72.8297C131.094 71.2687 131.547 69.7133 131.975 68.1715C132.182 67.461 132.383 66.7697 132.565 66.0728C133.04 64.4405 133.496 62.8027 133.971 61.1705C134.039 60.94 134.1 60.7288 134.173 60.4792ZM145.897 63.809C147.337 64.2283 148.714 64.65 150.11 65.0773C150.088 65.1541 150.085 65.2365 150.062 65.3133C149.917 65.8126 149.766 66.3311 149.601 66.8248C149.359 67.5873 149.097 68.3442 148.835 69.1011C148.762 69.3508 148.67 69.5948 148.578 69.8389C148.597 69.8445 148.611 69.8693 148.63 69.8748C148.68 69.8476 148.729 69.8204 148.765 69.7684C150.218 68.7125 151.538 67.4718 152.917 66.3111C153.064 66.1662 153.223 66.0462 153.389 65.9069C153.753 66.1587 154.112 66.4297 154.476 66.6815C155.127 67.1628 155.784 67.6249 156.455 68.1117C156.488 68.1421 156.526 68.1533 156.559 68.1837C156.638 68.2693 156.635 68.3517 156.555 68.4117C156.494 68.4773 156.389 68.551 156.31 68.611C154.617 69.8471 152.924 71.0831 151.225 72.3384C151.2 72.352 151.175 72.3656 151.139 72.4176C151.273 72.6023 151.42 72.8119 151.554 72.9966C152.711 74.604 153.868 76.2114 155.03 77.7997C155.191 78.034 155.182 78.1356 154.929 78.2909C154.54 78.5527 154.132 78.8089 153.724 79.0651C153.113 79.4494 152.501 79.8337 151.889 80.218C151.704 80.3517 151.671 80.3213 151.562 80.123C151.494 79.999 151.426 79.8751 151.358 79.7511C150.287 78.0644 149.221 76.3586 148.169 74.6775C148.142 74.6279 148.109 74.5975 148.063 74.5423C147.859 74.6704 147.669 74.8233 147.445 74.9458C147.079 75.1308 146.907 75.4349 146.796 75.819C146.564 76.5431 146.275 77.2504 146.024 77.9689C145.938 78.1938 145.938 78.1938 145.715 78.1707C144.691 78.0392 143.692 77.8941 142.687 77.7682C142.624 77.7706 142.585 77.7595 142.547 77.7483C142.393 77.7036 142.36 77.6732 142.38 77.5332C142.456 77.2011 142.538 76.8499 142.613 76.5179C143.037 74.8496 143.479 73.187 143.902 71.5188C144.25 70.1826 144.591 68.8657 144.933 67.5487C145.23 66.3853 145.527 65.222 145.818 64.0778C145.841 64.001 145.869 63.905 145.897 63.809ZM163.327 68.4251C164.53 68.9421 165.715 69.4535 166.885 69.9402C167.322 74.8791 167.751 79.7741 168.188 84.7131C166.913 84.6546 165.689 84.5688 164.42 84.491C164.303 83.6031 164.201 82.7399 164.09 81.8328C163.722 81.8089 163.373 81.7907 163.005 81.7669C161.774 81.7003 160.558 81.6585 159.314 81.5671C159.168 81.5664 159.055 81.5961 158.972 81.7385C158.859 81.9138 158.751 82.0698 158.643 82.2259C158.51 82.3955 158.403 82.406 158.222 82.3117C157.362 81.8321 156.521 81.3581 155.66 80.8786C155.608 80.8426 155.537 80.801 155.472 80.7403C158.028 76.6102 160.617 72.5105 163.327 68.4251ZM163.333 75.4883C163.314 75.4827 163.295 75.4772 163.275 75.4716C162.689 76.3423 162.107 77.1937 161.49 78.0973C162.221 78.1641 162.932 78.2253 163.662 78.2922C163.549 77.3218 163.438 76.4147 163.333 75.4883ZM181.33 89.2681C181.13 89.1682 180.949 89.0739 180.787 88.9851C180.064 88.6079 179.34 88.2307 178.631 87.8782C178.507 87.8007 178.442 87.7399 178.418 87.6079C178.083 86.4689 177.767 85.3354 177.432 84.1964C177.337 83.8773 177.248 83.5389 177.14 83.195C177.132 83.151 177.111 83.0822 177.075 82.9886C176.94 83.0951 176.824 83.2071 176.714 83.3C175.635 84.2149 174.556 85.1298 173.491 86.0696C173.32 86.2281 173.144 86.2601 172.922 86.2371C171.988 86.1527 171.054 86.0684 170.121 85.9841C170.058 85.9865 170 85.9697 169.923 85.9474C170.438 81.2439 170.959 76.5212 171.486 71.7794C171.747 71.8136 172.007 71.8479 172.293 71.8686C173.603 72.0207 174.907 72.1921 176.216 72.3442C176.439 72.3673 176.466 72.4169 176.366 72.6169C176.349 72.6745 176.338 72.713 176.327 72.7514C176.113 73.7723 175.88 74.7876 175.672 75.7893C175.416 76.8814 175.186 77.9599 174.936 79.0329C174.893 79.2497 174.851 79.4665 174.842 79.7137C174.902 79.6481 174.958 79.6016 175.018 79.536C175.841 78.7132 176.645 77.8848 177.454 77.0372C177.479 77.0236 177.504 77.01 177.515 76.9716C177.617 76.8347 177.749 76.8107 177.922 76.861C178.594 77.0566 179.272 77.2331 179.944 77.4288C180.001 77.4455 180.059 77.4623 180.117 77.4791C180.277 78.859 180.424 80.2141 180.566 81.5884C180.585 81.594 180.604 81.5996 180.623 81.6052C180.663 81.4708 180.715 81.3612 180.749 81.246C181.225 79.9681 181.676 78.7039 182.133 77.4205C182.426 76.6307 182.724 75.8218 183.016 75.032C183.061 74.8784 183.125 74.7304 183.15 74.5712C183.206 74.3791 183.256 74.3519 183.437 74.4462C183.675 74.5573 183.914 74.6684 184.152 74.7795C185.262 75.3317 186.358 75.8592 187.454 76.3866C187.693 76.4977 187.72 76.5473 187.609 76.7857C186.879 78.2189 186.174 79.6384 185.445 81.0716C184.557 82.8337 183.663 84.6149 182.795 86.3825C182.348 87.2732 181.876 88.1774 181.43 89.068C181.413 89.1256 181.377 89.1776 181.33 89.2681ZM189.714 86.8346C189.611 87.117 189.508 87.3995 189.41 87.6627C189.09 88.5485 188.775 89.4151 188.455 90.3008C188.357 90.5641 188.357 90.5641 188.096 90.5298C187.053 90.3927 186.01 90.2556 184.967 90.1186C184.947 90.113 184.928 90.1074 184.871 90.0906C184.887 90.033 184.885 89.9698 184.902 89.9122C185.008 89.5473 185.114 89.1825 185.22 88.8176C186.025 86.0524 186.83 83.2872 187.641 80.5028C188.016 79.2162 188.396 77.9105 188.751 76.6183C188.779 76.5223 188.801 76.4455 188.829 76.3494C188.906 76.3718 188.95 76.3638 189.008 76.3805C190.289 76.7743 191.575 77.1489 192.875 77.5482C193.523 77.7575 194.17 77.9668 194.801 78.2337C195.714 78.6036 196.568 79.1024 197.29 79.7708C197.815 80.257 198.222 80.792 198.419 81.4743C198.695 82.3877 198.608 83.2582 198.14 84.08C197.552 85.0963 196.672 85.7567 195.593 86.1717C194.82 86.4673 194.028 86.6116 193.236 86.756C192.155 86.9622 191.065 86.9155 189.98 86.8497C189.898 86.8465 189.815 86.8433 189.714 86.8346ZM190.862 83.6068C191.191 83.6195 191.463 83.6153 191.735 83.6112C192.373 83.5677 192.994 83.4362 193.545 83.1175C193.78 82.9566 193.981 82.7653 194.098 82.5076C194.281 82.1651 194.209 81.7692 193.913 81.4957C193.829 81.4293 193.725 81.3574 193.621 81.2854C193.116 81.0137 192.573 80.8764 192.005 80.7527C191.986 80.7471 191.967 80.7415 191.903 80.7439C191.566 81.6873 191.229 82.6306 190.862 83.6068Z" fill="black"/>
</g>
<defs>
<clipPath id="clip0_11_16855">
<rect width="241.525" height="87.2707" fill="white" transform="translate(27.6235) rotate(18.453)"/>
</clipPath>
</defs>
</svg>
