<svg width="257" height="160" viewBox="0 0 257 160" fill="none" xmlns="http://www.w3.org/2000/svg">
<g clip-path="url(#clip0_11_16855)">
<mask id="mask0_11_16855" style="mask-type:luminance" maskUnits="userSpaceOnUse" x="0" y="0" width="257" height="159">
<path d="M256.382 76.3329L27.6235 0L0.0757526 82.5566L228.834 158.89L256.382 76.3329Z" fill="white"/>
</mask>
<g mask="url(#mask0_11_16855)">
<path d="M237.423 114.654C238.038 112.896 238.668 111.149 239.308 109.405C238.362 109.86 237.392 110.261 236.401 110.607C236.035 110.737 235.643 110.777 235.258 110.724C217.41 117.166 195.525 112.364 177.704 108.177C155.444 102.944 133.486 96.5044 111.925 88.8871C95.1573 82.9663 78.3579 76.5798 62.158 69.2252C48.3092 62.9412 34.3622 55.4361 24.0615 43.9928C22.8068 42.6259 21.6538 41.1686 20.6112 39.6336C18.91 45.5157 17.0956 51.3548 15.1682 57.1509C15.4483 57.6051 15.6221 58.1166 15.6765 58.6476C16.6626 66.8323 27.3844 74.0186 33.688 78.2776C41.0884 83.1418 48.9035 87.3435 57.042 90.8343C74.1908 98.4483 91.8887 105.164 109.6 111.334C130.028 118.466 150.813 124.532 171.871 129.506C182.131 131.877 192.533 133.59 203.012 134.634C211.152 135.478 228.917 138.56 232.343 128.092C232.49 127.621 232.774 127.204 233.158 126.895C234.111 122.705 236.063 118.553 237.425 114.656" fill="#5F9191"/>
<path d="M37.6066 46.6028C42.6844 50.5294 48.0982 54.0008 53.7852 56.9774C65.6279 63.3345 78.2601 68.0912 90.7423 73.0145C106.522 79.2402 122.459 85.0209 138.657 90.07C154.189 94.9119 169.933 99.3393 185.837 102.792C200.739 106.027 218.6 109.724 233.849 106.794C234.008 106.684 234.18 106.592 234.359 106.521C237.885 105.153 242.21 103.125 241.768 98.6258C241.341 94.2876 236.829 90.1953 233.851 87.2899C228.031 81.6158 221.217 76.9922 214.17 72.9796C198.18 63.8778 180.12 58.3316 162.859 52.1581C132.383 41.2575 101.109 31.8453 68.918 27.7319C60.7251 26.6662 52.4807 26.0395 44.2207 25.8545C39.4378 25.7597 29.2867 24.951 25.8968 29.5524C22.1749 34.6045 34.0467 43.7827 37.6066 46.6028Z" fill="#7EBEBE"/>
<path d="M24.6584 25.0071C23.3733 29.8797 22.0192 34.7631 20.6073 39.6331C21.651 41.1677 22.804 42.6246 24.0573 43.993C34.3603 55.4371 48.3052 62.9415 62.1526 69.2282C78.3533 76.5815 95.1516 82.9676 111.92 88.8903C133.481 96.5064 155.44 102.945 177.7 108.179C195.521 112.368 217.406 117.168 235.253 110.725C235.638 110.779 236.031 110.739 236.398 110.609C237.388 110.262 238.359 109.86 239.305 109.405C240.961 104.895 242.714 100.421 244.565 95.9827C244.677 95.6772 244.867 95.4061 245.115 95.1955C245.363 94.9849 245.662 94.8422 245.982 94.781C244.61 91.1302 241.811 87.8128 239.313 85.1696C227.466 72.6348 211.551 64.4554 195.712 58.1419C159.858 43.8509 123.06 30.1767 85.0453 22.9343C75.754 21.1556 66.371 19.8933 56.94 19.1534C48.7487 18.5185 40.0057 17.6878 31.8645 19.1918C26.6238 20.1609 20.2992 22.5291 18.2863 27.9972C17.7048 29.5906 17.5412 31.3063 17.8111 32.9807C18.9961 29.9481 20.1985 26.931 21.4185 23.9294C21.574 23.5154 21.8839 23.1778 22.2831 22.9876C22.6822 22.7973 23.1396 22.7692 23.5591 22.9092C23.9786 23.0491 24.3274 23.3463 24.5324 23.7381C24.7373 24.13 24.7824 24.586 24.6581 25.0104M25.8964 29.5563C29.2863 24.9548 39.4372 25.7619 44.2202 25.8584C52.48 26.0409 60.7241 26.6658 68.9168 27.7305C101.108 31.8422 132.382 41.2569 162.858 52.1567C180.121 58.332 198.176 63.8757 214.169 72.9782C221.216 76.9886 228.032 81.6109 233.85 87.2885C236.828 90.194 241.339 94.285 241.766 98.6244C242.211 103.128 237.882 105.154 234.358 106.519C234.178 106.591 234.007 106.682 233.848 106.792C218.605 109.725 200.739 106.028 185.836 102.791C169.931 99.3381 154.188 94.9107 138.656 90.0684C122.457 85.02 106.523 79.2394 90.7412 73.0129C78.261 68.0886 65.6239 63.3347 53.7855 56.9767C48.0985 54.0001 42.6848 50.5283 37.607 46.6021C34.0458 43.7856 22.175 34.6044 25.8969 29.5523" fill="#1C1C1C"/>
<path d="M25.5108 81.2522C32.7441 86.4194 40.3862 90.9895 48.361 94.9167C68.7929 104.72 90.459 112.666 111.918 119.874C135.143 127.673 159.094 134.922 183.279 139.042C194.556 140.961 205.328 142.195 216.63 140.816C222.763 140.067 230.196 138.611 234.603 134.041C234.345 134.059 234.085 134.023 233.84 133.936C233.596 133.849 233.373 133.712 233.185 133.533C232.996 133.355 232.847 133.14 232.746 132.901C232.645 132.662 232.595 132.405 232.599 132.146C232.553 130.379 232.74 128.614 233.155 126.895C232.771 127.205 232.487 127.623 232.34 128.094C228.914 138.562 211.149 135.479 203.009 134.635C192.531 133.592 182.131 131.879 171.872 129.506C150.815 124.532 130.03 118.467 109.602 111.337C91.8907 105.165 74.1926 98.4504 57.044 90.8374C48.9051 87.346 41.0904 83.1437 33.6901 78.2791C27.3875 74.0196 16.6645 66.8345 15.6794 58.6466C15.6249 58.1159 15.4511 57.6044 15.1711 57.1502C14.8588 58.0859 14.5632 59.0291 14.2437 59.9591C13.0438 63.4458 7.73403 61.7014 8.73615 58.2359C8.48506 58.8425 8.39568 59.5043 8.47681 60.1565C9.47465 68.4875 16.4508 74.8419 22.9148 79.428C23.7801 80.0428 24.6457 80.65 25.5108 81.2522Z" fill="#1C1C1C"/>
<path d="M14.2404 59.9588C14.5592 59.0286 14.8541 58.0851 15.1678 57.1499C17.1009 51.3666 18.9152 45.5275 20.6108 39.6326C22.0187 34.7621 23.3736 29.8789 24.6574 25.0051C24.7816 24.5809 24.7365 24.1251 24.5317 23.7335C24.3268 23.3418 23.9781 23.0448 23.5589 22.9049C23.1396 22.765 22.6824 22.7931 22.2834 22.9832C21.8844 23.1734 21.5747 23.5108 21.4193 23.9246C20.1975 26.9234 18.995 29.9406 17.8118 32.976C14.5712 41.2808 11.4933 49.692 8.75905 58.1298C8.74682 58.1665 8.74608 58.1985 8.73546 58.2353C7.73322 61.7012 13.043 63.4455 14.2404 59.9588Z" fill="#1C1C1C"/>
<path d="M244.567 95.9846C242.711 100.424 240.957 104.898 239.307 109.407C238.666 111.151 238.036 112.898 237.422 114.656C236.06 118.555 234.108 122.707 233.155 126.895C232.74 128.614 232.553 130.379 232.599 132.146C232.595 132.405 232.645 132.662 232.745 132.901C232.846 133.14 232.995 133.355 233.184 133.533C233.372 133.711 233.595 133.848 233.839 133.936C234.083 134.023 234.343 134.059 234.601 134.04C234.877 134.02 235.144 133.942 235.388 133.812C235.631 133.682 235.844 133.503 236.015 133.285C239.759 128.687 240.889 121.965 242.66 116.404C244.684 110.044 246.52 103.656 248.161 97.1862C248.299 96.7156 248.25 96.2098 248.023 95.775C247.796 95.3402 247.409 95.0104 246.944 94.8552C246.479 94.6999 245.972 94.7314 245.529 94.9428C245.086 95.1542 244.743 95.5291 244.572 95.9885" fill="#1C1C1C"/>
<path d="M27.5126 46.7964C27.7291 48.9895 27.7017 51.1997 27.4309 53.3867C27.3499 54.4694 27.1379 55.52 26.9877 56.5864L26.3407 59.7358L25.4983 62.8394C25.1487 63.8574 24.8673 64.8921 24.4484 65.8939C23.7023 67.9671 22.7259 69.9502 21.5376 71.8061C21.318 69.6136 21.3436 67.4036 21.614 65.2168C21.6929 64.1351 21.9107 63.0848 22.0581 62.0191L22.7076 58.8721L23.5545 55.77C23.9026 54.7515 24.1891 53.7165 24.6044 52.7155C25.3525 50.6434 26.3273 48.6601 27.5108 46.8018" fill="#141414"/>
<path d="M41.157 53.1877C41.2302 55.7865 41.0595 58.3867 40.6474 60.9535C40.4944 62.2296 40.2154 63.4637 39.9954 64.717L39.1411 68.4255L38.0934 72.0848C37.6754 73.2875 37.3256 74.5076 36.8386 75.6936C35.9544 78.1396 34.8403 80.4964 33.5113 82.7319C33.4288 80.1437 33.5949 77.5537 34.0073 74.997C34.1588 73.7204 34.4455 72.4784 34.6641 71.2194L35.5278 67.4902L36.5887 63.8135C37.0066 62.606 37.363 61.3813 37.8475 60.1928C38.7271 57.7573 39.8367 55.4107 41.1611 53.1854" fill="#141414"/>
<path d="M52.6828 65.2294C52.7151 66.9854 52.5644 68.7404 52.2338 70.4653C52.1232 71.3109 51.8985 72.1111 51.7416 72.9344C51.5264 73.7402 51.3212 74.545 51.1276 75.3536C50.8721 76.1435 50.6272 76.9378 50.3924 77.7359C50.0917 78.5197 49.8701 79.3205 49.5208 80.099C48.9022 81.7435 48.1117 83.3181 47.1627 84.7967C46.7013 83.0646 46.5353 81.2668 46.6721 79.4793C46.7216 78.6081 46.8175 77.7402 46.959 76.8796C47.1391 76.0301 47.33 75.1835 47.5321 74.3398C47.8029 73.5138 48.0843 72.6921 48.3772 71.8747C48.7053 71.067 49.0763 70.2768 49.489 69.5091C50.3076 67.9144 51.3872 66.4676 52.6828 65.2294Z" fill="#141414"/>
<path d="M65.3466 68.8079C65.7274 70.4469 65.8721 72.1319 65.7768 73.8118C65.78 74.6307 65.6536 75.4242 65.5864 76.229L65.1927 78.6047L64.6008 80.9384C64.3346 81.7014 64.136 82.4777 63.8008 83.2285C63.211 84.806 62.3967 86.2899 61.3825 87.635C60.9992 85.9951 60.8528 84.3092 60.9481 82.6281C60.9444 81.8073 61.0733 81.011 61.139 80.2094L61.5389 77.8358L62.134 75.5056C62.3971 74.7415 62.6008 73.9653 62.9338 73.2153C63.5251 71.6392 64.3371 70.1549 65.3462 68.8069" fill="#141414"/>
<path d="M87.7197 76.913C87.6214 79.25 87.3361 81.5755 86.8664 83.8669C86.6894 85.0022 86.3941 86.0997 86.1724 87.2165L85.3571 90.5208L84.4271 93.7977C84.0604 94.8762 83.7733 95.9748 83.3613 97.0486C82.6286 99.2709 81.7159 101.429 80.6325 103.503C80.2892 101.161 80.2483 98.7836 80.512 96.4308C80.5905 95.261 80.8185 94.1205 80.9874 92.9675L81.752 89.5635L82.7888 86.2327C83.2137 85.1478 83.5893 84.0465 84.1019 82.9928C85.0446 80.8218 86.2614 78.7801 87.7224 76.9179" fill="#141414"/>
<path d="M118.652 87.864C118.755 89.8192 118.616 91.7794 118.237 93.7004C118.102 94.6504 117.839 95.5582 117.639 96.4865L116.84 99.206L115.844 101.866C115.446 102.728 115.117 103.613 114.653 104.454C113.803 106.217 112.736 107.867 111.477 109.366C111.371 107.411 111.509 105.451 111.888 103.532C112.022 102.581 112.29 101.675 112.49 100.746L113.293 98.0287L114.287 95.3748C114.682 94.5112 115.018 93.6281 115.482 92.7876C116.332 91.0252 117.396 89.3747 118.652 87.8741" fill="#141414"/>
<path d="M145.531 92.4391C145.228 95.1528 144.768 97.8467 144.151 100.507C143.899 101.833 143.539 103.114 143.26 104.42C142.918 105.709 142.593 107.001 142.284 108.297C141.916 109.577 141.564 110.862 141.228 112.152C140.829 113.429 140.516 114.724 140.081 115.999C139.309 118.618 138.382 121.189 137.303 123.698C136.943 120.954 136.916 118.176 137.223 115.426C137.324 114.05 137.579 112.71 137.783 111.354C138.064 110.015 138.361 108.68 138.674 107.347C139.058 106.032 139.458 104.723 139.877 103.421C140.366 102.14 140.809 100.847 141.396 99.6019C142.484 97.0577 143.874 94.6532 145.535 92.4406" fill="#141414"/>
<path d="M166.845 100.171C166.785 102.612 166.525 105.044 166.069 107.443C165.899 108.634 165.608 109.788 165.386 110.959L164.564 114.43L163.61 117.866C163.233 118.998 162.932 120.148 162.509 121.273C161.748 123.594 160.797 125.848 159.665 128.012C159.371 125.566 159.37 123.093 159.661 120.646C159.753 119.433 159.991 118.244 160.17 117.043L160.949 113.496L161.987 110.017C162.409 108.878 162.78 107.726 163.287 106.618C164.215 104.336 165.411 102.171 166.848 100.17" fill="#141414"/>
<path d="M192.761 109.442C192.831 111.787 192.655 114.133 192.237 116.443C192.084 117.589 191.799 118.701 191.578 119.828L190.718 123.152L189.665 126.423C189.245 127.494 188.894 128.583 188.407 129.634C187.522 131.808 186.41 133.883 185.089 135.825C185.015 133.479 185.189 131.132 185.606 128.823C185.759 127.675 186.048 126.565 186.267 125.439L187.128 122.112L188.187 118.844C188.604 117.773 188.96 116.684 189.445 115.633C190.33 113.459 191.44 111.384 192.756 109.44" fill="#141414"/>
<path d="M207.741 111.3C207.91 113.35 207.836 115.414 207.52 117.447C207.417 118.452 207.184 119.421 207.013 120.407L206.303 123.311L205.4 126.16C205.03 127.09 204.728 128.04 204.292 128.952C203.502 130.851 202.488 132.65 201.271 134.309C201.098 132.258 201.17 130.194 201.487 128.161C201.589 127.155 201.826 126.187 201.995 125.2L202.708 122.298L203.618 119.45C203.985 118.52 204.291 117.571 204.727 116.658C205.517 114.759 206.529 112.961 207.741 111.3Z" fill="#141414"/>
<path d="M219.683 111.521C219.612 113.565 219.356 115.599 218.917 117.598C218.754 118.584 218.478 119.525 218.269 120.494C218.001 121.44 217.744 122.388 217.498 123.339C217.191 124.274 216.894 125.211 216.607 126.15C216.255 127.074 215.983 128.02 215.582 128.936C214.869 130.854 213.979 132.702 212.926 134.456C212.564 132.41 212.504 130.322 212.748 128.259C212.814 127.236 213.031 126.246 213.189 125.239C213.421 124.253 213.664 123.268 213.917 122.286C214.238 121.322 214.57 120.364 214.912 119.41C215.322 118.476 215.682 117.529 216.178 116.632C217.094 114.768 218.275 113.047 219.683 111.521Z" fill="#141414"/>
<path d="M231.671 111.109C231.818 112.918 231.725 114.739 231.394 116.524C231.283 117.399 231.043 118.24 230.866 119.1L230.138 121.608L229.218 124.053C228.843 124.846 228.537 125.661 228.097 126.431C227.291 128.057 226.27 129.568 225.061 130.923C224.909 129.114 225 127.293 225.331 125.508C225.44 124.632 225.687 123.793 225.863 122.934L226.596 120.426L227.52 117.983C227.892 117.189 228.204 116.376 228.645 115.606C229.451 113.98 230.47 112.469 231.674 111.112" fill="#141414"/>
<path d="M234.346 115.792C234.723 117.278 234.866 118.814 234.771 120.345C234.772 121.086 234.648 121.796 234.581 122.525L234.186 124.659L233.598 126.747C233.331 127.427 233.134 128.122 232.801 128.787C232.206 130.201 231.393 131.513 230.393 132.676C230.012 131.19 229.867 129.654 229.962 128.123C229.96 127.381 230.089 126.668 230.154 125.941L230.552 123.809L231.146 121.722C231.411 121.042 231.612 120.346 231.944 119.681C232.539 118.269 233.349 116.957 234.346 115.792Z" fill="#141414"/>
<path d="M66.2563 26.4214C64.8788 27.8723 63.3301 29.1504 61.6446 30.2279C60.8467 30.7993 59.9886 31.2511 59.1597 31.7566L56.5848 33.0977L53.9219 34.2577C53.0031 34.5806 52.1163 34.9664 51.1681 35.2256C49.2678 35.8565 47.2974 36.2523 45.3009 36.4045C46.6767 34.9503 48.2253 33.67 49.9121 32.5921C50.7098 32.0206 51.5695 31.5743 52.3969 31.0633L54.9775 29.7274L57.6356 28.5716C58.5534 28.2468 59.4423 27.8649 60.3888 27.6052C62.2883 26.9746 64.2571 26.5766 66.2523 26.4201" fill="#141414"/>
<path d="M70.9802 31.1619C69.3761 32.6836 67.6763 34.1013 65.8912 35.4062C65.0501 36.0876 64.158 36.6666 63.309 37.3146C62.4289 37.9134 61.5608 38.5269 60.7044 39.1551C59.8151 39.7352 58.9349 40.3317 58.0642 40.9447C57.156 41.5067 56.3007 42.141 55.365 42.6838C53.514 43.8946 51.5858 44.9824 49.5924 45.9403C50.6048 43.9149 51.9253 42.0588 53.5067 40.4382C54.2539 39.5986 55.1045 38.8814 55.9297 38.1233C56.7997 37.4278 57.6839 36.748 58.5814 36.0838C59.5209 35.4811 60.4704 34.8959 61.4309 34.3284C62.428 33.8251 63.4044 33.285 64.4529 32.8818C66.528 31.9775 68.7302 31.3977 70.9817 31.1624" fill="#141414"/>
<path d="M71.2052 38.1894C70.5618 39.3484 69.784 40.4276 68.8882 41.4047C68.5011 41.8984 68.0482 42.2897 67.642 42.7413C67.1993 43.1432 66.7649 43.5536 66.3386 43.9726C65.8734 44.3448 65.4131 44.7279 64.9609 45.1194C64.4621 45.4655 64.0215 45.8716 63.4836 46.1956C62.4044 46.9679 61.2367 47.6085 60.0054 48.1036C60.1467 46.7248 60.6031 45.397 61.3395 44.2228C61.6795 43.6527 62.0619 43.1088 62.4829 42.5956C62.932 42.1146 63.3909 41.6424 63.8595 41.1789C64.3776 40.7702 64.9036 40.3729 65.4382 39.9873C65.9981 39.631 66.5839 39.3172 67.1905 39.0484C68.4451 38.4615 69.8172 38.1685 71.202 38.1917" fill="#141414"/>
<path d="M71.0127 47.5663C70.9785 48.3809 70.8171 49.1849 70.5353 49.9499C70.4295 50.2559 70.3026 50.5542 70.1544 50.8421C69.9869 51.0964 69.8269 51.3545 69.6752 51.6169C69.4721 51.841 69.2752 52.0706 69.0829 52.3083C68.8535 52.5364 68.6075 52.7475 68.3478 52.9405C67.7016 53.4393 66.9802 53.8331 66.2113 54.1071C65.7887 53.3237 65.6388 52.4223 65.7848 51.5445C65.8438 51.1537 65.9481 50.771 66.0955 50.4042C66.2747 50.0667 66.4643 49.7319 66.6623 49.4023C66.9197 49.1133 67.1833 48.8347 67.4546 48.5636C67.7588 48.3134 68.0921 48.1006 68.4467 47.9293C69.2392 47.53 70.1409 47.4025 71.0127 47.5663Z" fill="#141414"/>
<path d="M81.8353 31.8107C82.0289 32.4555 82.141 33.1221 82.1687 33.7947C82.1794 34.0275 82.1697 34.261 82.1389 34.4922C82.0808 34.6917 82.0297 34.892 81.9864 35.0907C81.884 35.2672 81.7848 35.4472 81.6948 35.6345C81.5603 35.8248 81.4083 36.0022 81.2418 36.165C80.763 36.6409 80.2249 37.0526 79.6403 37.3898C79.0039 36.9715 78.5545 36.3231 78.3863 35.5805C78.3125 35.2681 78.285 34.9469 78.3039 34.6266C78.3621 34.325 78.4302 34.0243 78.511 33.7253C78.6565 33.4512 78.8132 33.185 78.9776 32.9256C79.1818 32.6776 79.4218 32.4614 79.6896 32.284C80.318 31.8555 81.0877 31.6857 81.8379 31.8099" fill="#141414"/>
<path d="M198.611 92.0233C200.732 91.4293 202.908 91.0488 205.105 90.8873C206.183 90.7577 207.253 90.7544 208.32 90.682L211.527 90.6538L214.729 90.7944C215.798 90.9074 216.867 90.9386 217.935 91.1124C220.125 91.3542 222.285 91.8159 224.383 92.4903C222.306 93.2632 220.143 93.7798 217.94 94.0283C216.862 94.2036 215.782 94.2341 214.701 94.331L211.458 94.3876L208.221 94.2085C207.143 94.0753 206.064 94.0015 204.993 93.789C202.802 93.4592 200.66 92.8667 198.611 92.0233Z" fill="#141414"/>
<path d="M199.164 86.04C200.149 85.1106 201.287 84.3585 202.528 83.817C203.104 83.549 203.695 83.3131 204.297 83.1106L206.113 82.6081L207.971 82.3015C208.603 82.2345 209.238 82.2016 209.874 82.2027C210.194 82.2031 210.517 82.2111 210.839 82.2329C211.124 82.2414 211.408 82.2773 211.686 82.3404C211.769 82.361 211.851 82.3893 211.929 82.4248L211.98 82.4426L212.007 82.4508L212.021 82.4547L212.029 82.4555C211.998 82.4361 212.299 82.6261 212.171 82.5461C212.158 82.5282 212.044 82.5087 212.124 82.5136C212.261 82.4803 212.468 82.1042 212.12 81.9453C212.245 81.7977 212.557 81.8118 212.75 81.9625C212.858 82.0394 212.949 82.1373 213.018 82.2503C213.088 82.3632 213.134 82.489 213.153 82.62C213.159 82.911 213.086 83.1982 212.942 83.4514C212.799 83.7046 212.59 83.9146 212.337 84.0594C211.932 84.3285 211.642 84.47 211.362 84.6259C211.083 84.782 210.786 84.9227 210.494 85.0554C209.917 85.3227 209.325 85.5589 208.723 85.7629L206.907 86.2604L205.05 86.5553C204.418 86.6224 203.783 86.6551 203.148 86.6528C201.794 86.6793 200.446 86.4713 199.164 86.0384" fill="#141414"/>
<path d="M192.023 85.3537C193.267 84.0343 194.6 82.8024 196.013 81.6668C196.66 81.0763 197.362 80.5892 198.016 80.0318C198.702 79.5215 199.373 78.9963 200.032 78.4564C200.725 77.9635 201.408 77.4507 202.08 76.918C202.791 76.4365 203.443 75.8859 204.184 75.4171C205.651 74.3523 207.193 73.392 208.795 72.5429C208.263 74.3502 207.385 76.0372 206.212 77.5108C205.647 78.2444 205.037 78.942 204.385 79.5996C203.707 80.2221 203.01 80.8292 202.297 81.421C201.539 81.9508 200.769 82.461 199.989 82.9515C199.183 83.4069 198.349 83.8114 197.493 84.1628C195.763 84.9067 193.906 85.3103 192.023 85.3515" fill="#141414"/>
<path d="M128.876 42.2601C128.969 43.3138 129.037 44.0141 129.075 44.6485C129.131 44.9759 129.087 45.2466 129.119 45.5351C129.095 45.8056 129.088 46.0773 129.097 46.3487C129.049 46.616 129.017 46.8861 129.002 47.1572C128.924 47.4364 128.933 47.7089 128.827 48.0269C128.702 48.6488 128.526 49.3279 128.274 50.3603C127.796 50.2723 127.344 50.0794 126.95 49.7956C126.556 49.5119 126.23 49.1441 125.995 48.7192C125.76 48.3207 125.584 47.8897 125.475 47.44C125.41 46.987 125.376 46.53 125.373 46.0723C125.445 45.6198 125.548 45.1728 125.68 44.7343C125.855 44.3068 126.092 43.9074 126.382 43.5487C126.678 43.1642 127.054 42.8493 127.486 42.6266C127.916 42.4038 128.392 42.2789 128.876 42.2601Z" fill="#141414"/>
<path d="M183.165 67.8977C184.074 68.1747 184.928 68.6078 185.688 69.1775C186.019 69.4138 186.334 69.6719 186.631 69.95C186.896 70.2402 187.165 70.5249 187.437 70.8044C187.661 71.1278 187.888 71.4401 188.126 71.7549C188.341 72.1 188.533 72.4585 188.703 72.8282C189.118 73.684 189.379 74.6066 189.473 75.5534C188.474 75.592 187.485 75.3526 186.614 74.8616C186.216 74.6483 185.84 74.3983 185.489 74.1146C185.172 73.809 184.859 73.4957 184.553 73.1761C184.299 72.8135 184.051 72.4439 183.814 72.0746C183.603 71.6764 183.43 71.2591 183.297 70.8279C182.985 69.8813 182.938 68.8671 183.161 67.8955" fill="#141414"/>
<path d="M193.444 69.0005C194.082 68.5532 194.824 68.2754 195.6 68.1932C195.915 68.1547 196.233 68.1498 196.549 68.1783L197.43 68.3637L198.248 68.7401C199.187 69.3224 199.89 70.2173 200.234 71.2674C199.329 71.9004 198.229 72.1936 197.128 72.0954L196.249 71.9055L195.433 71.5246C195.163 71.3576 194.911 71.1624 194.682 70.9424C194.111 70.41 193.685 69.7413 193.444 68.999" fill="#141414"/>
<path d="M216.197 72.6617C217.187 72.1961 218.275 71.9777 219.368 72.0254C219.871 72.0362 220.371 72.0887 220.865 72.1823L222.293 72.5809L223.634 73.2114C224.068 73.4645 224.48 73.753 224.866 74.0739C225.725 74.7547 226.403 75.636 226.841 76.6405C225.803 76.8592 224.733 76.8924 223.683 76.7387C223.217 76.6823 222.754 76.5982 222.297 76.4868L220.985 76.0798L219.731 75.5219C219.313 75.3072 218.908 75.0674 218.518 74.8037C217.626 74.2299 216.841 73.505 216.197 72.6617Z" fill="#141414"/>
<path d="M212.827 101.582C213.651 101.119 214.57 100.851 215.513 100.799C215.924 100.767 216.337 100.77 216.748 100.807L217.931 101.017L219.06 101.421C219.435 101.594 219.795 101.797 220.136 102.029C220.928 102.546 221.589 103.24 222.067 104.056C221.245 104.522 220.325 104.792 219.382 104.844C218.97 104.874 218.557 104.872 218.146 104.835L216.966 104.62L215.836 104.211C215.462 104.039 215.103 103.835 214.762 103.603C213.97 103.087 213.309 102.395 212.827 101.582Z" fill="#141414"/>
</g>
<path d="M77.0966 50.9035C77.2512 51.3026 77.3977 51.6577 77.5139 52.0457C77.7568 52.9287 77.81 53.8191 77.5281 54.7161C77.1542 55.8571 76.4002 56.6582 75.2853 57.1252C74.2199 57.5649 73.1543 57.5046 72.0709 57.1476C71.0259 56.8017 70.0752 56.275 69.1469 55.6714C69.0949 55.6355 69.0429 55.5995 68.9717 55.5579C68.8997 55.662 68.8254 55.7028 68.7046 55.6885C67.8589 55.5881 66.9996 55.4629 66.154 55.3625C66.0964 55.3458 66.0388 55.329 65.9564 55.3258C65.9819 55.1666 66.0074 55.0074 66.0521 54.8538C66.2286 54.1761 66.4051 53.4984 66.5623 52.8151C66.7444 52.1182 66.9016 51.435 67.0781 50.7573C67.2354 50.074 67.4118 49.3963 67.5635 48.7322C67.7096 48.0874 67.8804 47.4289 68.0265 46.784C68.1974 46.1255 68.3491 45.4614 68.5199 44.803C68.6828 44.1005 68.8592 43.4228 69.0221 42.7203C69.1035 42.3691 69.1713 41.993 69.2527 41.6418C69.2695 41.5842 69.2807 41.5458 69.3223 41.4746C69.3991 41.4969 69.4567 41.5137 69.5143 41.5305C70.8393 41.9162 72.1587 42.3211 73.4781 42.7261C74.035 42.8882 74.6111 43.0559 75.176 43.262C76.0809 43.588 76.9412 44.0676 77.6935 44.7032C78.3009 45.1925 78.8116 45.7994 79.044 46.5753C79.3525 47.5192 79.2601 48.4088 78.7614 49.2634C78.404 49.8468 77.9427 50.3583 77.3557 50.7289C77.2757 50.789 77.1957 50.849 77.0966 50.9035ZM71.4179 48.7295C72.3267 48.8275 73.3355 48.7254 74.0241 48.3634C74.1977 48.2681 74.3768 48.1536 74.5423 48.0144C74.719 47.8367 74.8493 47.6038 74.8836 47.343C74.913 46.9558 74.7001 46.6855 74.3824 46.4888C73.9414 46.2147 73.4614 46.0749 72.9757 45.9543C72.7973 45.9232 72.6381 45.8977 72.4405 45.861C72.0977 46.8236 71.7606 47.7669 71.4179 48.7295ZM70.2203 51.9845C70.1644 52.1765 70.1141 52.3494 70.0582 52.5414C70.2031 52.6877 70.3231 52.8477 70.4984 52.9612C71.0626 53.3129 71.6683 53.5934 72.3132 53.7395C72.6396 53.8345 72.994 53.8335 73.3212 53.783C73.9811 53.6626 74.4631 52.8656 74.1372 52.125C74.0555 51.9762 73.9571 51.885 73.7619 51.9115C73.6739 51.9276 73.5971 51.9052 73.5091 51.9213C72.8139 51.948 72.1131 51.994 71.4235 52.0015C71.0443 52.0161 70.6571 51.9867 70.2203 51.9845ZM81.4509 44.8805C81.5277 44.9029 81.5661 44.9141 81.6237 44.9308C83.0007 45.3525 84.3833 45.7551 85.7603 46.1768C85.9523 46.2327 85.9604 46.2767 85.8908 46.4439C85.8381 46.5535 85.7854 46.6632 85.7518 46.7784C85.3452 47.889 84.9329 49.0188 84.5399 50.1542C84.15 51.2072 83.7738 52.285 83.3783 53.3572C83.1722 53.9221 82.9605 54.5062 82.7543 55.0711C82.7096 55.2247 82.7201 55.3319 82.7825 55.4751C83.0188 56.0229 83.4262 56.4123 83.9 56.7169C84.1464 56.872 84.4401 56.9366 84.7121 56.9325C85.4977 56.9529 86.1992 56.7614 86.8117 56.2314C87.1788 55.9009 87.4529 55.4599 87.6503 54.9966C87.7726 54.7198 87.8508 54.4509 87.9539 54.1685C88.2303 53.2907 88.5122 52.3938 88.7694 51.5105C89.0569 50.5943 89.2621 49.675 89.4288 48.7445C89.5022 48.3493 89.6004 47.9405 89.7042 47.5124C91.1835 47.7973 92.6517 48.1205 94.1638 48.4358C94.1303 48.551 94.1079 48.6278 94.0856 48.7046C93.5224 50.3529 92.9592 52.0012 92.3712 53.6631C92.0757 54.5352 91.7993 55.413 91.4846 56.2795C90.7631 58.2567 89.4238 59.6373 87.4314 60.3279C86.3004 60.7069 85.1628 60.7507 83.9907 60.5553C83.0602 60.3885 82.2408 59.9833 81.4741 59.4685C81.4413 59.4381 81.4029 59.4269 81.3701 59.3966C81.2036 59.1814 80.962 59.1528 80.7396 59.1297C79.8747 59.0237 79.0155 58.8985 78.1698 58.7982C78.1122 58.7814 78.0546 58.7646 77.997 58.7478C77.9945 58.6846 78.0057 58.6462 78.0225 58.5886C78.2189 57.7709 78.4153 56.9532 78.6117 56.1355C78.7043 55.7459 78.8161 55.3618 78.9279 54.9778C79.0373 54.5305 79.1659 54.0889 79.2944 53.6472C79.4741 52.8871 79.6729 52.1326 79.8525 51.3725C79.9563 50.9445 80.0601 50.5164 80.1775 50.1132C80.3092 49.5891 80.4465 49.0458 80.5783 48.5218C80.7436 47.8825 80.8896 47.2376 81.0357 46.5927C81.1619 46.0879 81.2632 45.5966 81.3894 45.0917C81.4061 45.0341 81.4285 44.9573 81.4509 44.8805ZM94.7431 50.0209C95.3014 49.8918 95.8294 49.7955 96.3629 49.6801C97.1604 49.5165 97.9387 49.3473 98.7363 49.1837C98.7995 49.1812 98.8435 49.1732 98.9067 49.1708C98.9699 49.1684 99.0411 49.2099 99.0379 49.2923C99.0668 49.5507 99.071 49.8227 99.0999 50.0811C99.3056 51.8074 99.536 53.5201 99.7417 55.2464C99.7497 55.2904 99.7713 55.3592 99.7874 55.4472C99.8426 55.4007 99.8729 55.3679 99.9225 55.3407C101.352 54.0072 102.776 52.6929 104.206 51.3594C104.261 51.3129 104.317 51.2665 104.352 51.2145C104.48 51.064 104.543 51.0616 104.663 51.2215C104.816 51.4118 104.969 51.6022 105.122 51.7925C105.758 52.5402 106.37 53.3015 107 54.0684C107.033 54.0987 107.041 54.1427 107.088 54.1979C106.922 54.3372 106.757 54.4765 106.591 54.6158C105.303 55.678 104.034 56.7458 102.732 57.7833C102.302 58.1163 101.819 58.4133 101.375 58.7216C101.191 58.8553 100.973 58.9586 100.846 59.109C100.713 59.2787 100.665 59.5147 100.585 59.7204C100.161 60.8886 99.7379 62.0568 99.3337 63.2306C99.2306 63.513 99.1276 63.7955 99.0245 64.0779C98.9494 64.2644 98.9438 64.2836 98.7214 64.2605C97.6781 64.1234 96.6348 63.9863 95.586 63.8685C95.3884 63.8318 95.3556 63.8014 95.3923 63.6037C95.4657 63.2085 95.5639 62.7997 95.6565 62.41C95.9119 61.3179 96.1674 60.2258 96.442 59.1392C96.5091 58.9088 96.5074 58.7 96.4425 58.4936C96.1644 57.517 95.8863 56.5403 95.6522 55.5556C95.5256 55.0605 95.4485 54.5381 95.3659 54.035C95.2246 53.1606 95.089 52.2671 94.9534 51.3736C94.8731 50.9336 94.8177 50.48 94.7431 50.0209ZM114.261 54.599C115.701 55.0183 117.078 55.44 118.474 55.8673C118.452 55.9441 118.449 56.0265 118.426 56.1033C118.281 56.6026 118.13 57.1211 117.966 57.6148C117.723 58.3773 117.461 59.1342 117.199 59.8911C117.126 60.1408 117.034 60.3848 116.942 60.6289C116.962 60.6345 116.975 60.6593 116.994 60.6648C117.044 60.6376 117.094 60.6104 117.129 60.5584C118.583 59.5025 119.902 58.2618 121.281 57.1011C121.428 56.9562 121.588 56.8362 121.753 56.6969C122.117 56.9487 122.476 57.2197 122.84 57.4715C123.491 57.9528 124.148 58.4149 124.819 58.9017C124.852 58.9321 124.89 58.9433 124.923 58.9737C125.002 59.0592 124.999 59.1417 124.919 59.2017C124.858 59.2673 124.754 59.341 124.674 59.401C122.981 60.6371 121.288 61.8731 119.589 63.1283C119.564 63.142 119.54 63.1556 119.504 63.2076C119.637 63.3923 119.785 63.6019 119.918 63.7866C121.075 65.394 122.232 67.0014 123.394 68.5897C123.555 68.824 123.546 68.9256 123.293 69.0809C122.904 69.3427 122.496 69.5989 122.089 69.8551C121.477 70.2394 120.865 70.6237 120.253 71.008C120.068 71.1417 120.036 71.1113 119.927 70.913C119.859 70.789 119.791 70.665 119.722 70.5411C118.651 68.8544 117.586 67.1485 116.534 65.4675C116.506 65.4179 116.473 65.3875 116.427 65.3323C116.223 65.4604 116.033 65.6133 115.81 65.7358C115.443 65.9208 115.272 66.2249 115.16 66.609C114.928 67.3331 114.639 68.0404 114.388 68.7589C114.302 68.9838 114.302 68.9838 114.079 68.9607C113.055 68.8292 112.056 68.6841 111.051 68.5582C110.988 68.5606 110.949 68.5495 110.911 68.5383C110.757 68.4936 110.725 68.4632 110.745 68.3232C110.82 67.9911 110.902 67.6399 110.978 67.3078C111.401 65.6396 111.843 63.977 112.266 62.3088C112.614 60.9726 112.955 59.6557 113.297 58.3387C113.594 57.1753 113.891 56.012 114.183 54.8678C114.205 54.791 114.233 54.695 114.261 54.599ZM127.609 58.5684C127.705 58.5963 127.763 58.6131 127.84 58.6355C128.934 58.9541 130.018 59.3112 131.118 59.6106C131.943 59.851 132.761 60.0474 133.592 60.2686C135.03 60.6247 136.462 61 137.9 61.356C137.996 61.384 138.092 61.4119 138.188 61.4399C138.375 61.515 138.388 61.5398 138.327 61.751C138.277 61.9238 138.226 62.0967 138.151 62.2831C137.833 63.2321 137.515 64.181 137.203 65.1108C137.186 65.1684 137.169 65.226 137.147 65.3028C136.922 65.2165 136.717 65.1358 136.505 65.0743C135.812 64.8099 135.118 64.5454 134.399 64.2946C133.821 64.0637 133.237 63.852 132.633 63.6347C132.107 63.4397 131.556 63.2584 131.01 63.0579C130.952 63.0411 130.875 63.0187 130.779 62.9908C130.48 63.5909 130.334 64.2358 130.067 64.8663C130.182 64.8999 130.253 64.9414 130.355 64.9502C131.557 65.2584 132.764 65.5474 133.971 65.8364C134.067 65.8643 134.144 65.8867 134.24 65.9147C134.355 65.9482 134.391 66.0418 134.343 66.1322C134.279 66.2802 134.216 66.4283 134.152 66.5763C133.76 67.4205 133.368 68.2647 132.996 69.1145C132.885 69.3529 132.866 69.3473 132.641 69.2611C132.139 69.0525 131.618 68.8384 131.111 68.649C130.5 68.3877 129.864 68.14 129.247 67.898C129.17 67.8756 129.112 67.8588 129.022 67.8117C128.774 68.4478 128.557 69.0511 128.328 69.6928C128.424 69.7208 128.496 69.7623 128.559 69.7599C129.555 69.9874 130.537 70.1901 131.514 70.412C132.439 70.598 133.345 70.7783 134.264 70.9834C134.673 71.0816 134.687 71.1064 134.55 71.5041C134.212 72.5931 133.855 73.6765 133.517 74.7654C133.437 74.9711 133.412 74.9847 133.225 74.9096C132.809 74.7674 132.411 74.6308 132.013 74.4942C130.82 74.0844 129.646 73.6802 128.467 73.2951C128.031 73.1474 127.62 72.986 127.178 72.8574C126.827 72.776 126.445 72.7273 126.088 72.6651C125.344 72.5735 124.6 72.4819 123.881 72.3766C123.799 72.3735 123.741 72.3567 123.664 72.3343C123.692 72.2383 123.695 72.1559 123.718 72.0791C123.849 71.7006 123.985 71.303 124.097 70.9189C124.531 69.3579 124.983 67.8025 125.411 66.2607C125.618 65.5502 125.82 64.8589 126.002 64.162C126.477 62.5297 126.933 60.8919 127.408 59.2597C127.475 59.0292 127.537 58.818 127.609 58.5684ZM139.333 61.8982C140.774 62.3175 142.151 62.7392 143.547 63.1665C143.524 63.2433 143.521 63.3257 143.499 63.4025C143.354 63.9018 143.203 64.4203 143.038 64.914C142.795 65.6765 142.533 66.4334 142.271 67.1904C142.198 67.44 142.107 67.684 142.015 67.9281C142.034 67.9337 142.048 67.9585 142.067 67.9641C142.116 67.9368 142.166 67.9096 142.202 67.8576C143.655 66.8017 144.974 65.561 146.354 64.4003C146.5 64.2554 146.66 64.1354 146.826 63.9961C147.19 64.2479 147.548 64.5189 147.912 64.7707C148.564 65.252 149.221 65.7141 149.891 66.201C149.924 66.2313 149.963 66.2425 149.995 66.2729C150.075 66.3585 150.072 66.4409 149.992 66.5009C149.931 66.5665 149.826 66.6402 149.746 66.7002C148.053 67.9363 146.36 69.1723 144.662 70.4276C144.637 70.4412 144.612 70.4548 144.576 70.5068C144.71 70.6915 144.857 70.9011 144.991 71.0858C146.147 72.6932 147.304 74.3006 148.467 75.8889C148.628 76.1232 148.619 76.2248 148.365 76.3801C147.977 76.6419 147.569 76.8981 147.161 77.1543C146.549 77.5386 145.937 77.9229 145.325 78.3072C145.141 78.4409 145.108 78.4105 144.999 78.2122C144.931 78.0882 144.863 77.9643 144.795 77.8403C143.724 76.1536 142.658 74.4478 141.606 72.7667C141.579 72.7171 141.546 72.6867 141.499 72.6315C141.296 72.7596 141.105 72.9125 140.882 73.035C140.516 73.22 140.344 73.5241 140.232 73.9082C140 74.6323 139.711 75.3396 139.46 76.0582C139.374 76.283 139.374 76.283 139.152 76.2599C138.128 76.1284 137.128 75.9833 136.123 75.8574C136.06 75.8599 136.022 75.8487 135.983 75.8375C135.83 75.7928 135.797 75.7624 135.817 75.6224C135.893 75.2903 135.974 74.9391 136.05 74.6071C136.473 72.9388 136.916 71.2762 137.339 69.608C137.686 68.2718 138.028 66.9549 138.37 65.6379C138.667 64.4746 138.964 63.3112 139.255 62.1671C139.277 62.0902 139.305 61.9942 139.333 61.8982ZM156.764 66.5143C157.967 67.0313 159.151 67.5428 160.322 68.0294C160.759 72.9684 161.188 77.8633 161.624 82.8023C160.35 82.7438 159.125 82.658 157.856 82.5802C157.74 81.6923 157.637 80.8291 157.526 79.922C157.158 79.8982 156.809 79.8799 156.441 79.8561C155.211 79.7895 153.994 79.7477 152.75 79.6563C152.605 79.6556 152.492 79.6853 152.409 79.8277C152.295 80.003 152.187 80.159 152.079 80.3151C151.947 80.4848 151.839 80.4952 151.658 80.4009C150.798 79.9213 149.957 79.4473 149.097 78.9678C149.045 78.9318 148.974 78.8902 148.908 78.8295C151.464 74.6994 154.054 70.5997 156.764 66.5143ZM156.769 73.5775C156.75 73.572 156.731 73.5664 156.712 73.5608C156.125 74.4315 155.544 75.283 154.927 76.1865C155.657 76.2533 156.368 76.3145 157.099 76.3814C156.986 75.411 156.875 74.5039 156.769 73.5775ZM174.766 87.3573C174.566 87.2574 174.385 87.1631 174.224 87.0743C173.5 86.6971 172.777 86.3199 172.067 85.9674C171.944 85.8899 171.878 85.8291 171.854 85.6971C171.519 84.5581 171.203 83.4247 170.868 82.2856C170.774 81.9665 170.685 81.6281 170.577 81.2842C170.569 81.2402 170.547 81.1714 170.512 81.0778C170.377 81.1843 170.261 81.2963 170.15 81.3892C169.072 82.3041 167.993 83.2191 166.928 84.1588C166.757 84.3173 166.581 84.3494 166.358 84.3263C165.425 84.2419 164.491 84.1576 163.557 84.0733C163.494 84.0757 163.437 84.0589 163.36 84.0366C163.875 79.3331 164.396 74.6104 164.922 69.8686C165.183 69.9029 165.444 69.9371 165.73 69.9578C167.039 70.1099 168.343 70.2813 169.653 70.4334C169.875 70.4565 169.903 70.5061 169.803 70.7061C169.786 70.7638 169.775 70.8022 169.764 70.8406C169.55 71.8615 169.317 72.8768 169.108 73.8785C168.853 74.9706 168.622 76.0491 168.372 77.1221C168.33 77.3389 168.288 77.5557 168.278 77.8029C168.339 77.7373 168.394 77.6909 168.455 77.6252C169.278 76.8024 170.081 75.974 170.891 75.1264C170.915 75.1128 170.94 75.0992 170.951 75.0608C171.054 74.9239 171.186 74.8999 171.358 74.9502C172.031 75.1458 172.708 75.3223 173.38 75.518C173.438 75.5347 173.496 75.5515 173.553 75.5683C173.714 76.9482 173.861 78.3033 174.002 79.6777C174.022 79.6832 174.041 79.6888 174.06 79.6944C174.099 79.56 174.152 79.4504 174.185 79.3352C174.662 78.0573 175.113 76.7931 175.57 75.5097C175.862 74.7199 176.16 73.911 176.453 73.1212C176.497 72.9676 176.561 72.8196 176.587 72.6604C176.643 72.4683 176.692 72.4411 176.873 72.5354C177.112 72.6465 177.35 72.7576 177.589 72.8687C178.698 73.4209 179.795 73.9484 180.891 74.4758C181.129 74.5869 181.157 74.6365 181.046 74.8749C180.316 76.3081 179.611 77.7277 178.881 79.1608C177.993 80.9229 177.1 82.7041 176.231 84.4717C175.784 85.3624 175.313 86.2666 174.866 87.1572C174.849 87.2148 174.813 87.2669 174.766 87.3573ZM185.718 74.9437C186.921 75.4607 188.105 75.9721 189.276 76.4587C189.713 81.3977 190.142 86.2927 190.579 91.2316C189.304 91.1731 188.079 91.0873 186.811 91.0095C186.694 90.1216 186.591 89.2584 186.48 88.3513C186.112 88.3275 185.764 88.3092 185.396 88.2854C184.165 88.2188 182.948 88.177 181.704 88.0857C181.559 88.0849 181.446 88.1146 181.363 88.257C181.249 88.4323 181.141 88.5883 181.033 88.7444C180.901 88.9141 180.794 88.9245 180.613 88.8302C179.752 88.3506 178.911 87.8767 178.051 87.3971C177.999 87.3611 177.928 87.3195 177.862 87.2588C180.419 83.1287 183.008 79.029 185.718 74.9437ZM185.724 82.0069C185.704 82.0013 185.685 81.9957 185.666 81.9901C185.079 82.8608 184.498 83.7123 183.881 84.6158C184.611 84.6826 185.323 84.7439 186.053 84.8107C185.94 83.8403 185.829 82.9332 185.724 82.0069ZM196.277 88.7454C196.174 89.0278 196.071 89.3103 195.974 89.5735C195.653 90.4593 195.338 91.3259 195.018 92.2116C194.921 92.4749 194.921 92.4749 194.66 92.4406C193.617 92.3035 192.573 92.1664 191.53 92.0294C191.511 92.0238 191.492 92.0182 191.434 92.0014C191.451 91.9438 191.448 91.8806 191.465 91.823C191.571 91.4581 191.678 91.0933 191.784 90.7284C192.589 87.9632 193.394 85.198 194.204 82.4136C194.579 81.127 194.959 79.8212 195.315 78.5291C195.342 78.4331 195.365 78.3562 195.393 78.2602C195.47 78.2826 195.514 78.2746 195.571 78.2913C196.852 78.6851 198.139 79.0597 199.439 79.459C200.086 79.6683 200.734 79.8776 201.364 80.1444C202.277 80.5144 203.132 81.0132 203.854 81.6816C204.379 82.1677 204.785 82.7027 204.983 83.385C205.258 84.2985 205.171 85.1689 204.703 85.9908C204.116 87.0071 203.236 87.6675 202.157 88.0825C201.383 88.378 200.591 88.5224 199.8 88.6668C198.719 88.873 197.628 88.8263 196.544 88.7605C196.461 88.7573 196.379 88.7541 196.277 88.7454ZM197.425 85.5176C197.755 85.5302 198.027 85.5261 198.299 85.522C198.936 85.4785 199.558 85.3469 200.109 85.0283C200.343 84.8674 200.545 84.6761 200.661 84.4184C200.844 84.0759 200.772 83.6799 200.477 83.4065C200.392 83.3401 200.288 83.2682 200.184 83.1962C199.68 82.9245 199.137 82.7872 198.569 82.6634C198.549 82.6579 198.53 82.6523 198.467 82.6547C198.13 83.5981 197.793 84.5414 197.425 85.5176Z" fill="black"/>
</g>
<defs>
<clipPath id="clip0_11_16855">
<rect width="241.525" height="87.2707" fill="white" transform="translate(27.6235) rotate(18.453)"/>
</clipPath>
</defs>
</svg>
