<svg width="257" height="160" viewBox="0 0 257 160" fill="none" xmlns="http://www.w3.org/2000/svg">
<g clip-path="url(#clip0_11_16855)">
<mask id="mask0_11_16855" style="mask-type:luminance" maskUnits="userSpaceOnUse" x="0" y="0" width="257" height="159">
<path d="M256.382 76.3329L27.6235 0L0.0757526 82.5566L228.834 158.89L256.382 76.3329Z" fill="white"/>
</mask>
<g mask="url(#mask0_11_16855)">
<path d="M237.423 114.654C238.038 112.896 238.668 111.149 239.308 109.405C238.362 109.86 237.392 110.261 236.401 110.607C236.035 110.737 235.643 110.777 235.258 110.724C217.41 117.166 195.525 112.364 177.704 108.177C155.444 102.944 133.486 96.5044 111.925 88.8871C95.1573 82.9663 78.3579 76.5798 62.158 69.2252C48.3092 62.9412 34.3622 55.4361 24.0615 43.9928C22.8068 42.6259 21.6538 41.1686 20.6112 39.6336C18.91 45.5157 17.0956 51.3548 15.1682 57.1509C15.4483 57.6051 15.6221 58.1166 15.6765 58.6476C16.6626 66.8323 27.3844 74.0186 33.688 78.2776C41.0884 83.1418 48.9035 87.3435 57.042 90.8343C74.1908 98.4483 91.8887 105.164 109.6 111.334C130.028 118.466 150.813 124.532 171.871 129.506C182.131 131.877 192.533 133.59 203.012 134.634C211.152 135.478 228.917 138.56 232.343 128.092C232.49 127.621 232.774 127.204 233.158 126.895C234.111 122.705 236.063 118.553 237.425 114.656" fill="#5F9191"/>
<path d="M37.6066 46.6028C42.6844 50.5294 48.0982 54.0008 53.7852 56.9774C65.6279 63.3345 78.2601 68.0912 90.7423 73.0145C106.522 79.2402 122.459 85.0209 138.657 90.07C154.189 94.9119 169.933 99.3393 185.837 102.792C200.739 106.027 218.6 109.724 233.849 106.794C234.008 106.684 234.18 106.592 234.359 106.521C237.885 105.153 242.21 103.125 241.768 98.6258C241.341 94.2876 236.829 90.1953 233.851 87.2899C228.031 81.6158 221.217 76.9922 214.17 72.9796C198.18 63.8778 180.12 58.3316 162.859 52.1581C132.383 41.2575 101.109 31.8453 68.918 27.7319C60.7251 26.6662 52.4807 26.0395 44.2207 25.8545C39.4378 25.7597 29.2867 24.951 25.8968 29.5524C22.1749 34.6045 34.0467 43.7827 37.6066 46.6028Z" fill="#7EBEBE"/>
<path d="M24.6584 25.0071C23.3733 29.8797 22.0192 34.7631 20.6073 39.6331C21.651 41.1677 22.804 42.6246 24.0573 43.993C34.3603 55.4371 48.3052 62.9415 62.1526 69.2282C78.3533 76.5815 95.1516 82.9676 111.92 88.8903C133.481 96.5064 155.44 102.945 177.7 108.179C195.521 112.368 217.406 117.168 235.253 110.725C235.638 110.779 236.031 110.739 236.398 110.609C237.388 110.262 238.359 109.86 239.305 109.405C240.961 104.895 242.714 100.421 244.565 95.9827C244.677 95.6772 244.867 95.4061 245.115 95.1955C245.363 94.9849 245.662 94.8422 245.982 94.781C244.61 91.1302 241.811 87.8128 239.313 85.1696C227.466 72.6348 211.551 64.4554 195.712 58.1419C159.858 43.8509 123.06 30.1767 85.0453 22.9343C75.754 21.1556 66.371 19.8933 56.94 19.1534C48.7487 18.5185 40.0057 17.6878 31.8645 19.1918C26.6238 20.1609 20.2992 22.5291 18.2863 27.9972C17.7048 29.5906 17.5412 31.3063 17.8111 32.9807C18.9961 29.9481 20.1985 26.931 21.4185 23.9294C21.574 23.5154 21.8839 23.1778 22.2831 22.9876C22.6822 22.7973 23.1396 22.7692 23.5591 22.9092C23.9786 23.0491 24.3274 23.3463 24.5324 23.7381C24.7373 24.13 24.7824 24.586 24.6581 25.0104M25.8964 29.5563C29.2863 24.9548 39.4372 25.7619 44.2202 25.8584C52.48 26.0409 60.7241 26.6658 68.9168 27.7305C101.108 31.8422 132.382 41.2569 162.858 52.1567C180.121 58.332 198.176 63.8757 214.169 72.9782C221.216 76.9886 228.032 81.6109 233.85 87.2885C236.828 90.194 241.339 94.285 241.766 98.6244C242.211 103.128 237.882 105.154 234.358 106.519C234.178 106.591 234.007 106.682 233.848 106.792C218.605 109.725 200.739 106.028 185.836 102.791C169.931 99.3381 154.188 94.9107 138.656 90.0684C122.457 85.02 106.523 79.2394 90.7412 73.0129C78.261 68.0886 65.6239 63.3347 53.7855 56.9767C48.0985 54.0001 42.6848 50.5283 37.607 46.6021C34.0458 43.7856 22.175 34.6044 25.8969 29.5523" fill="#1C1C1C"/>
<path d="M25.5108 81.2522C32.7441 86.4194 40.3862 90.9895 48.361 94.9167C68.7929 104.72 90.459 112.666 111.918 119.874C135.143 127.673 159.094 134.922 183.279 139.042C194.556 140.961 205.328 142.195 216.63 140.816C222.763 140.067 230.196 138.611 234.603 134.041C234.345 134.059 234.085 134.023 233.84 133.936C233.596 133.849 233.373 133.712 233.185 133.533C232.996 133.355 232.847 133.14 232.746 132.901C232.645 132.662 232.595 132.405 232.599 132.146C232.553 130.379 232.74 128.614 233.155 126.895C232.771 127.205 232.487 127.623 232.34 128.094C228.914 138.562 211.149 135.479 203.009 134.635C192.531 133.592 182.131 131.879 171.872 129.506C150.815 124.532 130.03 118.467 109.602 111.337C91.8907 105.165 74.1926 98.4504 57.044 90.8374C48.9051 87.346 41.0904 83.1437 33.6901 78.2791C27.3875 74.0196 16.6645 66.8345 15.6794 58.6466C15.6249 58.1159 15.4511 57.6044 15.1711 57.1502C14.8588 58.0859 14.5632 59.0291 14.2437 59.9591C13.0438 63.4458 7.73403 61.7014 8.73615 58.2359C8.48506 58.8425 8.39568 59.5043 8.47681 60.1565C9.47465 68.4875 16.4508 74.8419 22.9148 79.428C23.7801 80.0428 24.6457 80.65 25.5108 81.2522Z" fill="#1C1C1C"/>
<path d="M14.2404 59.9588C14.5592 59.0286 14.8541 58.0851 15.1678 57.1499C17.1009 51.3666 18.9152 45.5275 20.6108 39.6326C22.0187 34.7621 23.3736 29.8789 24.6574 25.0051C24.7816 24.5809 24.7365 24.1251 24.5317 23.7335C24.3268 23.3418 23.9781 23.0448 23.5589 22.9049C23.1396 22.765 22.6824 22.7931 22.2834 22.9832C21.8844 23.1734 21.5747 23.5108 21.4193 23.9246C20.1975 26.9234 18.995 29.9406 17.8118 32.976C14.5712 41.2808 11.4933 49.692 8.75905 58.1298C8.74682 58.1665 8.74608 58.1985 8.73546 58.2353C7.73322 61.7012 13.043 63.4455 14.2404 59.9588Z" fill="#1C1C1C"/>
<path d="M244.567 95.9846C242.711 100.424 240.957 104.898 239.307 109.407C238.666 111.151 238.036 112.898 237.422 114.656C236.06 118.555 234.108 122.707 233.155 126.895C232.74 128.614 232.553 130.379 232.599 132.146C232.595 132.405 232.645 132.662 232.745 132.901C232.846 133.14 232.995 133.355 233.184 133.533C233.372 133.711 233.595 133.848 233.839 133.936C234.083 134.023 234.343 134.059 234.601 134.04C234.877 134.02 235.144 133.942 235.388 133.812C235.631 133.682 235.844 133.503 236.015 133.285C239.759 128.687 240.889 121.965 242.66 116.404C244.684 110.044 246.52 103.656 248.161 97.1862C248.299 96.7156 248.25 96.2098 248.023 95.775C247.796 95.3402 247.409 95.0104 246.944 94.8552C246.479 94.6999 245.972 94.7314 245.529 94.9428C245.086 95.1542 244.743 95.5291 244.572 95.9885" fill="#1C1C1C"/>
<path d="M27.5126 46.7964C27.7291 48.9895 27.7017 51.1997 27.4309 53.3867C27.3499 54.4694 27.1379 55.52 26.9877 56.5864L26.3407 59.7358L25.4983 62.8394C25.1487 63.8574 24.8673 64.8921 24.4484 65.8939C23.7023 67.9671 22.7259 69.9502 21.5376 71.8061C21.318 69.6136 21.3436 67.4036 21.614 65.2168C21.6929 64.1351 21.9107 63.0848 22.0581 62.0191L22.7076 58.8721L23.5545 55.77C23.9026 54.7515 24.1891 53.7165 24.6044 52.7155C25.3525 50.6434 26.3273 48.6601 27.5108 46.8018" fill="#141414"/>
<path d="M41.157 53.1877C41.2302 55.7865 41.0595 58.3867 40.6474 60.9535C40.4944 62.2296 40.2154 63.4637 39.9954 64.717L39.1411 68.4255L38.0934 72.0848C37.6754 73.2875 37.3256 74.5076 36.8386 75.6936C35.9544 78.1396 34.8403 80.4964 33.5113 82.7319C33.4288 80.1437 33.5949 77.5537 34.0073 74.997C34.1588 73.7204 34.4455 72.4784 34.6641 71.2194L35.5278 67.4902L36.5887 63.8135C37.0066 62.606 37.363 61.3813 37.8475 60.1928C38.7271 57.7573 39.8367 55.4107 41.1611 53.1854" fill="#141414"/>
<path d="M52.6828 65.2294C52.7151 66.9854 52.5644 68.7404 52.2338 70.4653C52.1232 71.3109 51.8985 72.1111 51.7416 72.9344C51.5264 73.7402 51.3212 74.545 51.1276 75.3536C50.8721 76.1435 50.6272 76.9378 50.3924 77.7359C50.0917 78.5197 49.8701 79.3205 49.5208 80.099C48.9022 81.7435 48.1117 83.3181 47.1627 84.7967C46.7013 83.0646 46.5353 81.2668 46.6721 79.4793C46.7216 78.6081 46.8175 77.7402 46.959 76.8796C47.1391 76.0301 47.33 75.1835 47.5321 74.3398C47.8029 73.5138 48.0843 72.6921 48.3772 71.8747C48.7053 71.067 49.0763 70.2768 49.489 69.5091C50.3076 67.9144 51.3872 66.4676 52.6828 65.2294Z" fill="#141414"/>
<path d="M65.3466 68.8079C65.7274 70.4469 65.8721 72.1319 65.7768 73.8118C65.78 74.6307 65.6536 75.4242 65.5864 76.229L65.1927 78.6047L64.6008 80.9384C64.3346 81.7014 64.136 82.4777 63.8008 83.2285C63.211 84.806 62.3967 86.2899 61.3825 87.635C60.9992 85.9951 60.8528 84.3092 60.9481 82.6281C60.9444 81.8073 61.0733 81.011 61.139 80.2094L61.5389 77.8358L62.134 75.5056C62.3971 74.7415 62.6008 73.9653 62.9338 73.2153C63.5251 71.6392 64.3371 70.1549 65.3462 68.8069" fill="#141414"/>
<path d="M87.7197 76.913C87.6214 79.25 87.3361 81.5755 86.8664 83.8669C86.6894 85.0022 86.3941 86.0997 86.1724 87.2165L85.3571 90.5208L84.4271 93.7977C84.0604 94.8762 83.7733 95.9748 83.3613 97.0486C82.6286 99.2709 81.7159 101.429 80.6325 103.503C80.2892 101.161 80.2483 98.7836 80.512 96.4308C80.5905 95.261 80.8185 94.1205 80.9874 92.9675L81.752 89.5635L82.7888 86.2327C83.2137 85.1478 83.5893 84.0465 84.1019 82.9928C85.0446 80.8218 86.2614 78.7801 87.7224 76.9179" fill="#141414"/>
<path d="M118.652 87.864C118.755 89.8192 118.616 91.7794 118.237 93.7004C118.102 94.6504 117.839 95.5582 117.639 96.4865L116.84 99.206L115.844 101.866C115.446 102.728 115.117 103.613 114.653 104.454C113.803 106.217 112.736 107.867 111.477 109.366C111.371 107.411 111.509 105.451 111.888 103.532C112.022 102.581 112.29 101.675 112.49 100.746L113.293 98.0287L114.287 95.3748C114.682 94.5112 115.018 93.6281 115.482 92.7876C116.332 91.0252 117.396 89.3747 118.652 87.8741" fill="#141414"/>
<path d="M145.531 92.4391C145.228 95.1528 144.768 97.8467 144.151 100.507C143.899 101.833 143.539 103.114 143.26 104.42C142.918 105.709 142.593 107.001 142.284 108.297C141.916 109.577 141.564 110.862 141.228 112.152C140.829 113.429 140.516 114.724 140.081 115.999C139.309 118.618 138.382 121.189 137.303 123.698C136.943 120.954 136.916 118.176 137.223 115.426C137.324 114.05 137.579 112.71 137.783 111.354C138.064 110.015 138.361 108.68 138.674 107.347C139.058 106.032 139.458 104.723 139.877 103.421C140.366 102.14 140.809 100.847 141.396 99.6019C142.484 97.0577 143.874 94.6532 145.535 92.4406" fill="#141414"/>
<path d="M166.845 100.171C166.785 102.612 166.525 105.044 166.069 107.443C165.899 108.634 165.608 109.788 165.386 110.959L164.564 114.43L163.61 117.866C163.233 118.998 162.932 120.148 162.509 121.273C161.748 123.594 160.797 125.848 159.665 128.012C159.371 125.566 159.37 123.093 159.661 120.646C159.753 119.433 159.991 118.244 160.17 117.043L160.949 113.496L161.987 110.017C162.409 108.878 162.78 107.726 163.287 106.618C164.215 104.336 165.411 102.171 166.848 100.17" fill="#141414"/>
<path d="M192.761 109.442C192.831 111.787 192.655 114.133 192.237 116.443C192.084 117.589 191.799 118.701 191.578 119.828L190.718 123.152L189.665 126.423C189.245 127.494 188.894 128.583 188.407 129.634C187.522 131.808 186.41 133.883 185.089 135.825C185.015 133.479 185.189 131.132 185.606 128.823C185.759 127.675 186.048 126.565 186.267 125.439L187.128 122.112L188.187 118.844C188.604 117.773 188.96 116.684 189.445 115.633C190.33 113.459 191.44 111.384 192.756 109.44" fill="#141414"/>
<path d="M207.741 111.3C207.91 113.35 207.836 115.414 207.52 117.447C207.417 118.452 207.184 119.421 207.013 120.407L206.303 123.311L205.4 126.16C205.03 127.09 204.728 128.04 204.292 128.952C203.502 130.851 202.488 132.65 201.271 134.309C201.098 132.258 201.17 130.194 201.487 128.161C201.589 127.155 201.826 126.187 201.995 125.2L202.708 122.298L203.618 119.45C203.985 118.52 204.291 117.571 204.727 116.658C205.517 114.759 206.529 112.961 207.741 111.3Z" fill="#141414"/>
<path d="M219.683 111.521C219.612 113.565 219.356 115.599 218.917 117.598C218.754 118.584 218.478 119.525 218.269 120.494C218.001 121.44 217.744 122.388 217.498 123.339C217.191 124.274 216.894 125.211 216.607 126.15C216.255 127.074 215.983 128.02 215.582 128.936C214.869 130.854 213.979 132.702 212.926 134.456C212.564 132.41 212.504 130.322 212.748 128.259C212.814 127.236 213.031 126.246 213.189 125.239C213.421 124.253 213.664 123.268 213.917 122.286C214.238 121.322 214.57 120.364 214.912 119.41C215.322 118.476 215.682 117.529 216.178 116.632C217.094 114.768 218.275 113.047 219.683 111.521Z" fill="#141414"/>
<path d="M231.671 111.109C231.818 112.918 231.725 114.739 231.394 116.524C231.283 117.399 231.043 118.24 230.866 119.1L230.138 121.608L229.218 124.053C228.843 124.846 228.537 125.661 228.097 126.431C227.291 128.057 226.27 129.568 225.061 130.923C224.909 129.114 225 127.293 225.331 125.508C225.44 124.632 225.687 123.793 225.863 122.934L226.596 120.426L227.52 117.983C227.892 117.189 228.204 116.376 228.645 115.606C229.451 113.98 230.47 112.469 231.674 111.112" fill="#141414"/>
<path d="M234.346 115.792C234.723 117.278 234.866 118.814 234.771 120.345C234.772 121.086 234.648 121.796 234.581 122.525L234.186 124.659L233.598 126.747C233.331 127.427 233.134 128.122 232.801 128.787C232.206 130.201 231.393 131.513 230.393 132.676C230.012 131.19 229.867 129.654 229.962 128.123C229.96 127.381 230.089 126.668 230.154 125.941L230.552 123.809L231.146 121.722C231.411 121.042 231.612 120.346 231.944 119.681C232.539 118.269 233.349 116.957 234.346 115.792Z" fill="#141414"/>
<path d="M66.2563 26.4214C64.8788 27.8723 63.3301 29.1504 61.6446 30.2279C60.8467 30.7993 59.9886 31.2511 59.1597 31.7566L56.5848 33.0977L53.9219 34.2577C53.0031 34.5806 52.1163 34.9664 51.1681 35.2256C49.2678 35.8565 47.2974 36.2523 45.3009 36.4045C46.6767 34.9503 48.2253 33.67 49.9121 32.5921C50.7098 32.0206 51.5695 31.5743 52.3969 31.0633L54.9775 29.7274L57.6356 28.5716C58.5534 28.2468 59.4423 27.8649 60.3888 27.6052C62.2883 26.9746 64.2571 26.5766 66.2523 26.4201" fill="#141414"/>
<path d="M70.9802 31.1619C69.3761 32.6836 67.6763 34.1013 65.8912 35.4062C65.0501 36.0876 64.158 36.6666 63.309 37.3146C62.4289 37.9134 61.5608 38.5269 60.7044 39.1551C59.8151 39.7352 58.9349 40.3317 58.0642 40.9447C57.156 41.5067 56.3007 42.141 55.365 42.6838C53.514 43.8946 51.5858 44.9824 49.5924 45.9403C50.6048 43.9149 51.9253 42.0588 53.5067 40.4382C54.2539 39.5986 55.1045 38.8814 55.9297 38.1233C56.7997 37.4278 57.6839 36.748 58.5814 36.0838C59.5209 35.4811 60.4704 34.8959 61.4309 34.3284C62.428 33.8251 63.4044 33.285 64.4529 32.8818C66.528 31.9775 68.7302 31.3977 70.9817 31.1624" fill="#141414"/>
<path d="M71.2052 38.1894C70.5618 39.3484 69.784 40.4276 68.8882 41.4047C68.5011 41.8984 68.0482 42.2897 67.642 42.7413C67.1993 43.1432 66.7649 43.5536 66.3386 43.9726C65.8734 44.3448 65.4131 44.7279 64.9609 45.1194C64.4621 45.4655 64.0215 45.8716 63.4836 46.1956C62.4044 46.9679 61.2367 47.6085 60.0054 48.1036C60.1467 46.7248 60.6031 45.397 61.3395 44.2228C61.6795 43.6527 62.0619 43.1088 62.4829 42.5956C62.932 42.1146 63.3909 41.6424 63.8595 41.1789C64.3776 40.7702 64.9036 40.3729 65.4382 39.9873C65.9981 39.631 66.5839 39.3172 67.1905 39.0484C68.4451 38.4615 69.8172 38.1685 71.202 38.1917" fill="#141414"/>
<path d="M71.0127 47.5663C70.9785 48.3809 70.8171 49.1849 70.5353 49.9499C70.4295 50.2559 70.3026 50.5542 70.1544 50.8421C69.9869 51.0964 69.8269 51.3545 69.6752 51.6169C69.4721 51.841 69.2752 52.0706 69.0829 52.3083C68.8535 52.5364 68.6075 52.7475 68.3478 52.9405C67.7016 53.4393 66.9802 53.8331 66.2113 54.1071C65.7887 53.3237 65.6388 52.4223 65.7848 51.5445C65.8438 51.1537 65.9481 50.771 66.0955 50.4042C66.2747 50.0667 66.4643 49.7319 66.6623 49.4023C66.9197 49.1133 67.1833 48.8347 67.4546 48.5636C67.7588 48.3134 68.0921 48.1006 68.4467 47.9293C69.2392 47.53 70.1409 47.4025 71.0127 47.5663Z" fill="#141414"/>
<path d="M81.8353 31.8107C82.0289 32.4555 82.141 33.1221 82.1687 33.7947C82.1794 34.0275 82.1697 34.261 82.1389 34.4922C82.0808 34.6917 82.0297 34.892 81.9864 35.0907C81.884 35.2672 81.7848 35.4472 81.6948 35.6345C81.5603 35.8248 81.4083 36.0022 81.2418 36.165C80.763 36.6409 80.2249 37.0526 79.6403 37.3898C79.0039 36.9715 78.5545 36.3231 78.3863 35.5805C78.3125 35.2681 78.285 34.9469 78.3039 34.6266C78.3621 34.325 78.4302 34.0243 78.511 33.7253C78.6565 33.4512 78.8132 33.185 78.9776 32.9256C79.1818 32.6776 79.4218 32.4614 79.6896 32.284C80.318 31.8555 81.0877 31.6857 81.8379 31.8099" fill="#141414"/>
<path d="M198.611 92.0233C200.732 91.4293 202.908 91.0488 205.105 90.8873C206.183 90.7577 207.253 90.7544 208.32 90.682L211.527 90.6538L214.729 90.7944C215.798 90.9074 216.867 90.9386 217.935 91.1124C220.125 91.3542 222.285 91.8159 224.383 92.4903C222.306 93.2632 220.143 93.7798 217.94 94.0283C216.862 94.2036 215.782 94.2341 214.701 94.331L211.458 94.3876L208.221 94.2085C207.143 94.0753 206.064 94.0015 204.993 93.789C202.802 93.4592 200.66 92.8667 198.611 92.0233Z" fill="#141414"/>
<path d="M199.164 86.04C200.149 85.1106 201.287 84.3585 202.528 83.817C203.104 83.549 203.695 83.3131 204.297 83.1106L206.113 82.6081L207.971 82.3015C208.603 82.2345 209.238 82.2016 209.874 82.2027C210.194 82.2031 210.517 82.2111 210.839 82.2329C211.124 82.2414 211.408 82.2773 211.686 82.3404C211.769 82.361 211.851 82.3893 211.929 82.4248L211.98 82.4426L212.007 82.4508L212.021 82.4547L212.029 82.4555C211.998 82.4361 212.299 82.6261 212.171 82.5461C212.158 82.5282 212.044 82.5087 212.124 82.5136C212.261 82.4803 212.468 82.1042 212.12 81.9453C212.245 81.7977 212.557 81.8118 212.75 81.9625C212.858 82.0394 212.949 82.1373 213.018 82.2503C213.088 82.3632 213.134 82.489 213.153 82.62C213.159 82.911 213.086 83.1982 212.942 83.4514C212.799 83.7046 212.59 83.9146 212.337 84.0594C211.932 84.3285 211.642 84.47 211.362 84.6259C211.083 84.782 210.786 84.9227 210.494 85.0554C209.917 85.3227 209.325 85.5589 208.723 85.7629L206.907 86.2604L205.05 86.5553C204.418 86.6224 203.783 86.6551 203.148 86.6528C201.794 86.6793 200.446 86.4713 199.164 86.0384" fill="#141414"/>
<path d="M192.023 85.3537C193.267 84.0343 194.6 82.8024 196.013 81.6668C196.66 81.0763 197.362 80.5892 198.016 80.0318C198.702 79.5215 199.373 78.9963 200.032 78.4564C200.725 77.9635 201.408 77.4507 202.08 76.918C202.791 76.4365 203.443 75.8859 204.184 75.4171C205.651 74.3523 207.193 73.392 208.795 72.5429C208.263 74.3502 207.385 76.0372 206.212 77.5108C205.647 78.2444 205.037 78.942 204.385 79.5996C203.707 80.2221 203.01 80.8292 202.297 81.421C201.539 81.9508 200.769 82.461 199.989 82.9515C199.183 83.4069 198.349 83.8114 197.493 84.1628C195.763 84.9067 193.906 85.3103 192.023 85.3515" fill="#141414"/>
<path d="M128.876 42.2601C128.969 43.3138 129.037 44.0141 129.075 44.6485C129.131 44.9759 129.087 45.2466 129.119 45.5351C129.095 45.8056 129.088 46.0773 129.097 46.3487C129.049 46.616 129.017 46.8861 129.002 47.1572C128.924 47.4364 128.933 47.7089 128.827 48.0269C128.702 48.6488 128.526 49.3279 128.274 50.3603C127.796 50.2723 127.344 50.0794 126.95 49.7956C126.556 49.5119 126.23 49.1441 125.995 48.7192C125.76 48.3207 125.584 47.8897 125.475 47.44C125.41 46.987 125.376 46.53 125.373 46.0723C125.445 45.6198 125.548 45.1728 125.68 44.7343C125.855 44.3068 126.092 43.9074 126.382 43.5487C126.678 43.1642 127.054 42.8493 127.486 42.6266C127.916 42.4038 128.392 42.2789 128.876 42.2601Z" fill="#141414"/>
<path d="M183.165 67.8977C184.074 68.1747 184.928 68.6078 185.688 69.1775C186.019 69.4138 186.334 69.6719 186.631 69.95C186.896 70.2402 187.165 70.5249 187.437 70.8044C187.661 71.1278 187.888 71.4401 188.126 71.7549C188.341 72.1 188.533 72.4585 188.703 72.8282C189.118 73.684 189.379 74.6066 189.473 75.5534C188.474 75.592 187.485 75.3526 186.614 74.8616C186.216 74.6483 185.84 74.3983 185.489 74.1146C185.172 73.809 184.859 73.4957 184.553 73.1761C184.299 72.8135 184.051 72.4439 183.814 72.0746C183.603 71.6764 183.43 71.2591 183.297 70.8279C182.985 69.8813 182.938 68.8671 183.161 67.8955" fill="#141414"/>
<path d="M193.444 69.0005C194.082 68.5532 194.824 68.2754 195.6 68.1932C195.915 68.1547 196.233 68.1498 196.549 68.1783L197.43 68.3637L198.248 68.7401C199.187 69.3224 199.89 70.2173 200.234 71.2674C199.329 71.9004 198.229 72.1936 197.128 72.0954L196.249 71.9055L195.433 71.5246C195.163 71.3576 194.911 71.1624 194.682 70.9424C194.111 70.41 193.685 69.7413 193.444 68.999" fill="#141414"/>
<path d="M216.197 72.6617C217.187 72.1961 218.275 71.9777 219.368 72.0254C219.871 72.0362 220.371 72.0887 220.865 72.1823L222.293 72.5809L223.634 73.2114C224.068 73.4645 224.48 73.753 224.866 74.0739C225.725 74.7547 226.403 75.636 226.841 76.6405C225.803 76.8592 224.733 76.8924 223.683 76.7387C223.217 76.6823 222.754 76.5982 222.297 76.4868L220.985 76.0798L219.731 75.5219C219.313 75.3072 218.908 75.0674 218.518 74.8037C217.626 74.2299 216.841 73.505 216.197 72.6617Z" fill="#141414"/>
<path d="M212.827 101.582C213.651 101.119 214.57 100.851 215.513 100.799C215.924 100.767 216.337 100.77 216.748 100.807L217.931 101.017L219.06 101.421C219.435 101.594 219.795 101.797 220.136 102.029C220.928 102.546 221.589 103.24 222.067 104.056C221.245 104.522 220.325 104.792 219.382 104.844C218.97 104.874 218.557 104.872 218.146 104.835L216.966 104.62L215.836 104.211C215.462 104.039 215.103 103.835 214.762 103.603C213.97 103.087 213.309 102.395 212.827 101.582Z" fill="#141414"/>
</g>
<path d="M83.9124 50.6614C84.0747 51.134 84.2296 51.5549 84.3476 52.0127C84.5909 53.0539 84.6127 54.095 84.2432 55.1286C83.7555 56.4427 82.8397 57.3432 81.5179 57.8375C80.2551 58.3022 79.0147 58.1837 77.7671 57.7181C76.5637 57.2674 75.4785 56.6099 74.4229 55.8638C74.3639 55.8195 74.3048 55.7752 74.2236 55.7235C74.135 55.8416 74.0464 55.8858 73.9061 55.8637C72.9241 55.7083 71.9274 55.5234 70.9454 55.368C70.879 55.3459 70.8126 55.3237 70.7166 55.3163C70.7535 55.1317 70.7905 54.9471 70.8496 54.7699C71.0862 53.9874 71.3227 53.2048 71.5371 52.4148C71.781 51.6101 71.9953 50.8201 72.2319 50.0375C72.4462 49.2476 72.6827 48.465 72.8897 47.6972C73.0893 46.9515 73.3184 46.1911 73.518 45.4454C73.7472 44.685 73.9541 43.9171 74.1833 43.1567C74.405 42.3446 74.6416 41.562 74.8633 40.7499C74.9742 40.3438 75.0703 39.9082 75.1812 39.5022C75.2034 39.4357 75.2182 39.3914 75.2699 39.3102C75.3585 39.3398 75.4249 39.362 75.4913 39.3841C77.0196 39.8941 78.5404 40.4262 80.0612 40.9583C80.7035 41.1726 81.368 41.3943 82.0177 41.6603C83.0586 42.0815 84.0404 42.6799 84.8893 43.4554C85.5758 44.0537 86.1441 44.7848 86.3801 45.7005C86.6972 46.8155 86.5492 47.8491 85.9287 48.8236C85.4854 49.4879 84.9241 50.0637 84.2226 50.4696C84.1266 50.536 84.0305 50.6024 83.9124 50.6614ZM77.3862 47.8684C78.442 48.0238 79.6234 47.9503 80.4431 47.5593C80.6499 47.4559 80.864 47.3305 81.0634 47.1755C81.2776 46.9762 81.4402 46.7105 81.4919 46.4078C81.5438 45.9574 81.3076 45.6324 80.9459 45.3887C80.4439 45.0489 79.8902 44.8641 79.3291 44.7015C79.1224 44.6571 78.9378 44.6201 78.7089 44.5684C78.2656 45.6758 77.8296 46.761 77.3862 47.8684ZM75.8419 51.6114C75.768 51.8328 75.7015 52.0322 75.6276 52.2537C75.79 52.4309 75.9228 52.6229 76.1221 52.7633C76.7643 53.1991 77.4583 53.5537 78.204 53.7533C78.5805 53.879 78.9939 53.8939 79.3779 53.8497C80.1532 53.7392 80.7516 52.8312 80.4048 51.9524C80.3163 51.7752 80.2055 51.6644 79.9767 51.6865C79.8733 51.7012 79.7847 51.6717 79.6813 51.6864C78.8691 51.6861 78.0495 51.708 77.2447 51.6856C76.8017 51.6855 76.3514 51.6337 75.8419 51.6114ZM89.2643 43.8323C89.3529 43.8618 89.3972 43.8766 89.4637 43.8988C91.0509 44.453 92.6456 44.9852 94.2329 45.5394C94.4544 45.6133 94.4617 45.665 94.3731 45.857C94.3066 45.9825 94.2401 46.108 94.1958 46.2408C93.6711 47.518 93.1391 48.8174 92.6292 50.1241C92.1268 51.3348 91.6391 52.5751 91.1292 53.808C90.8632 54.4577 90.5898 55.1295 90.3238 55.7791C90.2647 55.9563 90.272 56.0818 90.3384 56.2517C90.5892 56.9015 91.0469 57.3742 91.5857 57.7509C91.8663 57.943 92.2059 58.0317 92.5234 58.0392C93.4389 58.0985 94.2659 57.9068 95.0045 57.3164C95.4476 56.9473 95.7874 56.4454 96.0386 55.9138C96.1937 55.5964 96.2972 55.2863 96.4302 54.9615C96.7923 53.9501 97.1618 52.9165 97.5018 51.8977C97.8787 50.8419 98.1596 49.7788 98.3962 48.7009C98.4997 48.2431 98.6328 47.7706 98.7732 47.276C100.486 47.6752 102.184 48.1188 103.934 48.555C103.89 48.6878 103.86 48.7764 103.83 48.865C103.099 50.7624 102.367 52.6597 101.606 54.5718C101.222 55.5758 100.86 56.5873 100.453 57.5839C99.5224 59.8577 97.8975 61.4078 95.5419 62.1232C94.2054 62.5141 92.8764 62.5137 91.5179 62.2327C90.44 61.9961 89.5024 61.4863 88.6314 60.8511C88.5945 60.8141 88.5502 60.7994 88.5133 60.7624C88.3287 60.504 88.0482 60.4596 87.7898 60.4226C86.7857 60.2598 85.789 60.0749 84.807 59.9196C84.7406 59.8974 84.6741 59.8752 84.6077 59.853C84.6077 59.7792 84.6225 59.7349 84.6446 59.6685C84.9107 58.7235 85.1768 57.7784 85.4429 56.8334C85.5686 56.3831 85.7164 55.9401 85.8642 55.4972C86.0121 54.9804 86.182 54.4709 86.352 53.9615C86.596 53.083 86.862 52.2118 87.106 51.3332C87.2464 50.8386 87.3869 50.3439 87.5421 49.8788C87.7195 49.2734 87.9042 48.6459 88.0816 48.0405C88.3034 47.3022 88.503 46.5565 88.7026 45.8109C88.8726 45.2276 89.013 44.6591 89.183 44.0759C89.2052 44.0095 89.2348 43.9209 89.2643 43.8323ZM104.538 50.4303C105.195 50.305 105.815 50.2166 106.443 50.106C107.381 49.9513 108.296 49.7891 109.234 49.6344C109.308 49.6344 109.36 49.627 109.434 49.6271C109.507 49.6271 109.589 49.6788 109.581 49.7748C109.603 50.0775 109.596 50.395 109.618 50.6977C109.78 52.7209 109.971 54.7292 110.133 56.7524C110.14 56.8041 110.162 56.8853 110.177 56.9887C110.243 56.937 110.28 56.9001 110.339 56.8706C112.068 55.3797 113.788 53.9109 115.517 52.4199C115.583 52.3683 115.65 52.3166 115.694 52.2576C115.849 52.0878 115.923 52.0878 116.056 52.2798C116.225 52.5088 116.395 52.7377 116.565 52.9667C117.274 53.8677 117.953 54.7834 118.654 55.7066C118.691 55.7435 118.698 55.7952 118.75 55.8617C118.55 56.0167 118.351 56.1717 118.151 56.3267C116.6 57.5075 115.072 58.6958 113.506 59.8471C112.989 60.2161 112.413 60.5408 111.881 60.8803C111.66 61.0279 111.401 61.1386 111.246 61.3084C111.084 61.5003 111.017 61.7734 110.914 62.0097C110.367 63.3533 109.82 64.6969 109.295 66.048C109.162 66.3728 109.029 66.6976 108.896 67.0225C108.8 67.2366 108.793 67.2587 108.535 67.2217C107.324 67.0146 106.113 66.8075 104.895 66.6225C104.666 66.5707 104.629 66.5338 104.681 66.3049C104.784 65.8472 104.917 65.3747 105.043 64.9243C105.39 63.6619 105.738 62.3994 106.107 61.1443C106.196 60.8785 106.203 60.6349 106.137 60.3912C105.857 59.2393 105.577 58.0874 105.348 56.9281C105.223 56.3447 105.157 55.7319 105.083 55.1412C104.958 54.1148 104.84 53.0663 104.722 52.0178C104.648 51.501 104.604 50.9693 104.538 50.4303ZM127.1 56.6542C128.761 57.2085 130.348 57.7628 131.958 58.3244C131.928 58.413 131.921 58.509 131.891 58.5976C131.699 59.1735 131.499 59.7715 131.285 60.3399C130.967 61.2185 130.627 62.0896 130.287 62.9608C130.191 63.2487 130.073 63.5292 129.955 63.8098C129.977 63.8172 129.992 63.8467 130.014 63.8541C130.073 63.8246 130.132 63.795 130.176 63.736C131.919 62.5699 133.515 61.1823 135.176 59.8908C135.354 59.7284 135.546 59.5955 135.745 59.4405C136.158 59.7508 136.564 60.0832 136.978 60.3934C137.716 60.9843 138.461 61.5531 139.222 62.1514C139.259 62.1883 139.303 62.2031 139.34 62.24C139.428 62.3434 139.421 62.4394 139.325 62.5058C139.251 62.5796 139.126 62.6608 139.03 62.7272C136.999 64.0926 134.968 65.4579 132.93 66.8453C132.9 66.8601 132.87 66.8748 132.826 66.9339C132.974 67.1554 133.136 67.4065 133.284 67.6281C134.56 69.5556 135.837 71.4831 137.121 73.3884C137.298 73.6691 137.284 73.7872 136.981 73.9569C136.516 74.2447 136.028 74.5252 135.541 74.8056C134.81 75.2262 134.079 75.6468 133.347 76.0675C133.126 76.2151 133.089 76.1781 132.971 75.9418C132.897 75.7941 132.823 75.6464 132.75 75.4988C131.576 73.4827 130.41 71.4445 129.259 69.4358C129.23 69.3767 129.193 69.3398 129.141 69.2733C128.897 69.4135 128.668 69.5833 128.403 69.7161C127.967 69.9153 127.753 70.2623 127.605 70.7052C127.302 71.5395 126.932 72.3515 126.607 73.1784C126.496 73.4368 126.496 73.4368 126.238 73.3998C125.049 73.2001 123.89 72.9856 122.724 72.7932C122.65 72.7932 122.605 72.7784 122.561 72.7636C122.384 72.7045 122.347 72.6676 122.377 72.5052C122.48 72.1213 122.591 71.7152 122.695 71.3313C123.264 69.4044 123.855 67.4848 124.424 65.5579C124.89 64.0149 125.348 62.494 125.806 60.9732C126.205 59.6295 126.605 58.2858 126.996 56.9643C127.026 56.8757 127.063 56.765 127.1 56.6542ZM142.492 61.8887C142.602 61.9256 142.669 61.9478 142.757 61.9774C144.02 62.3986 145.267 62.8642 146.537 63.2633C147.49 63.5811 148.435 63.8472 149.394 64.1428C151.056 64.6233 152.709 65.1259 154.37 65.6063C154.481 65.6433 154.592 65.6802 154.703 65.7172C154.917 65.8132 154.931 65.8428 154.85 66.0864C154.784 66.2857 154.717 66.4851 154.621 66.6992C154.207 67.7918 153.793 68.8844 153.387 69.9549C153.365 70.0213 153.343 70.0878 153.313 70.1764C153.055 70.0656 152.819 69.9621 152.575 69.8808C151.778 69.5409 150.98 69.201 150.153 68.8759C149.489 68.5803 148.817 68.3069 148.123 68.0261C147.518 67.7749 146.883 67.5384 146.255 67.2798C146.189 67.2577 146.1 67.2281 145.99 67.1911C145.613 67.8777 145.413 68.6234 145.073 69.3468C145.206 69.3912 145.287 69.4429 145.406 69.4577C146.794 69.8716 148.189 70.2634 149.584 70.6551C149.695 70.6921 149.784 70.7217 149.894 70.7586C150.027 70.803 150.064 70.9137 150.005 71.0171C149.924 71.1869 149.843 71.3567 149.761 71.5265C149.266 72.4935 148.771 73.4606 148.298 74.4351C148.158 74.7082 148.136 74.7009 147.877 74.59C147.302 74.324 146.704 74.0507 146.12 73.8068C145.419 73.4743 144.688 73.1566 143.98 72.8463C143.891 72.8167 143.824 72.7945 143.721 72.7354C143.403 73.4663 143.123 74.1603 142.827 74.8985C142.938 74.9355 143.019 74.9872 143.093 74.9872C144.245 75.2977 145.382 75.5786 146.511 75.8817C147.582 76.1405 148.63 76.3918 149.693 76.6727C150.166 76.8058 150.18 76.8353 150.003 77.2931C149.56 78.5481 149.094 79.7958 148.651 81.0508C148.547 81.2871 148.518 81.3018 148.304 81.2058C147.824 81.0211 147.366 80.8437 146.908 80.6664C145.535 80.1343 144.184 79.6097 142.826 79.1071C142.324 78.915 141.851 78.7081 141.342 78.5381C140.936 78.4273 140.493 78.3533 140.079 78.2646C139.215 78.124 138.352 77.9834 137.517 77.8281C137.421 77.8207 137.355 77.7985 137.266 77.769C137.303 77.6582 137.311 77.5623 137.34 77.4737C137.51 77.0381 137.688 76.5804 137.835 76.1374C138.412 74.336 139.011 72.542 139.58 70.7627C139.853 69.9433 140.119 69.1459 140.363 68.3412C140.991 66.4586 141.597 64.5686 142.225 62.686C142.314 62.4202 142.395 62.1766 142.492 61.8887ZM156.018 66.3037C157.679 66.858 159.266 67.4122 160.876 67.9739C160.846 68.0625 160.839 68.1585 160.809 68.2471C160.617 68.8229 160.417 69.4209 160.203 69.9894C159.885 70.8679 159.545 71.7391 159.205 72.6102C159.109 72.8981 158.991 73.1787 158.873 73.4592C158.895 73.4666 158.91 73.4961 158.932 73.5035C158.991 73.474 159.05 73.4445 159.094 73.3854C160.837 72.2194 162.433 70.8318 164.094 69.5402C164.272 69.3778 164.464 69.245 164.663 69.09C165.076 69.4002 165.482 69.7326 165.896 70.0429C166.634 70.6338 167.379 71.2025 168.14 71.8008C168.177 71.8378 168.221 71.8525 168.258 71.8895C168.346 71.9929 168.339 72.0889 168.243 72.1553C168.169 72.2291 168.044 72.3103 167.948 72.3767C165.917 73.742 163.886 75.1073 161.847 76.4948C161.818 76.5095 161.788 76.5243 161.744 76.5833C161.892 76.8049 162.054 77.056 162.202 77.2775C163.478 79.205 164.755 81.1325 166.039 83.0379C166.216 83.3185 166.202 83.4367 165.899 83.6064C165.434 83.8942 164.946 84.1746 164.459 84.455C163.728 84.8757 162.997 85.2963 162.265 85.7169C162.044 85.8645 162.007 85.8276 161.889 85.5913C161.815 85.4436 161.741 85.2959 161.668 85.1482C160.494 83.1321 159.328 81.0939 158.177 79.0852C158.148 79.0262 158.111 78.9892 158.059 78.9228C157.815 79.063 157.586 79.2327 157.32 79.3655C156.885 79.5648 156.671 79.9117 156.523 80.3547C156.22 81.1889 155.85 82.001 155.525 82.8278C155.414 83.0862 155.414 83.0862 155.156 83.0492C153.967 82.8495 152.808 82.635 151.642 82.4427C151.568 82.4426 151.523 82.4279 151.479 82.4131C151.302 82.354 151.265 82.317 151.295 82.1546C151.398 81.7707 151.509 81.3646 151.612 80.9807C152.182 79.0538 152.773 77.1343 153.342 75.2074C153.808 73.6644 154.266 72.1435 154.724 70.6226C155.123 69.279 155.522 67.9353 155.914 66.6137C155.944 66.5252 155.981 66.4144 156.018 66.3037ZM176.142 72.4774C177.523 73.135 178.881 73.7852 180.225 74.4058C180.511 80.1872 180.79 85.9169 181.076 91.6983C179.592 91.5723 178.167 91.4168 176.69 91.2687C176.595 90.2276 176.514 89.216 176.425 88.1527C175.997 88.1083 175.591 88.0713 175.163 88.0268C173.73 87.8935 172.313 87.7897 170.866 87.6268C170.696 87.6193 170.563 87.6488 170.46 87.8112C170.319 88.0105 170.186 88.1877 170.053 88.3649C169.891 88.5568 169.765 88.5641 169.559 88.4459C168.577 87.8475 167.617 87.2566 166.635 86.6582C166.576 86.6139 166.495 86.5622 166.421 86.4883C169.59 81.786 172.796 77.1206 176.142 72.4774ZM175.83 80.7173C175.808 80.71 175.785 80.7026 175.763 80.6952C175.039 81.6843 174.323 82.6514 173.562 83.6774C174.411 83.7884 175.238 83.8921 176.087 84.0031C175.999 82.866 175.911 81.8027 175.83 80.7173ZM188.877 90.6583C189.194 90.7397 189.489 90.8136 189.785 90.8875C189.57 91.9728 189.23 92.9916 188.957 94.1065C186.882 93.7588 184.807 93.485 182.703 93.0782C183.051 91.8157 183.405 90.6049 183.745 89.3646C183.908 89.3942 184.07 89.4238 184.225 89.4755C184.388 89.5051 184.543 89.5568 184.727 89.5938C184.772 89.4609 184.801 89.3723 184.838 89.2616C185.001 88.7005 185.186 88.1468 185.341 87.6078C185.6 86.685 185.851 85.7843 186.124 84.8909C186.398 83.9238 186.686 82.9862 186.96 82.019C187.056 81.7311 187.13 81.4358 187.218 81.0962C186.871 81.0296 186.554 80.9483 186.214 80.8596C186.503 79.4789 186.872 78.15 187.279 76.7842C187.53 76.8433 187.781 76.9025 188.024 76.9838C188.32 77.0577 188.586 77.1464 188.873 77.2425C189.722 77.5012 190.594 77.7673 191.443 78.0259C192.284 78.3068 193.133 78.5655 193.975 78.8463C194.13 78.8981 194.3 78.9793 194.492 79.068C194.004 80.3821 193.502 81.6667 193.014 82.9808C192.63 82.8773 192.246 82.7738 191.84 82.6629C190.85 85.3354 189.867 87.9858 188.877 90.6583Z" fill="black"/>
</g>
<defs>
<clipPath id="clip0_11_16855">
<rect width="241.525" height="87.2707" fill="white" transform="translate(27.6235) rotate(18.453)"/>
</clipPath>
</defs>
</svg>
