<svg width="402" height="425" viewBox="0 0 402 425" fill="none" xmlns="http://www.w3.org/2000/svg">
<path d="M343.766 5.65469H75.1401V134.099H343.766V5.65469Z" fill="black"/>
<path d="M155.894 99.1085C155.618 99.219 155.285 99.34 155.009 99.4505C152.677 100.298 150.277 101.099 147.888 101.957C147.773 101.978 147.659 101.999 147.498 102.089C147.107 102.22 146.904 102.079 146.611 101.776C145.265 100.239 143.871 98.7696 142.467 97.2428C138.548 92.966 134.582 88.7574 130.605 84.4911C130.38 84.2348 130.088 83.9316 129.728 83.5814C129.77 83.8119 129.745 83.9951 129.766 84.1103C129.931 85.985 130.153 87.8492 130.375 89.7131C130.878 94.0855 131.438 98.4472 131.941 102.819C131.989 103.406 131.989 103.406 131.437 103.627C128.704 104.548 125.982 105.528 123.202 106.518C123.031 106.549 122.859 106.581 122.572 106.634C122.378 105.896 122.241 105.147 122.047 104.409C121.259 100.744 120.482 97.1372 119.694 93.4726C119.19 91.3629 118.801 89.232 118.354 87.1118C117.949 85.2217 117.613 83.3788 117.218 81.5465C116.835 79.7717 116.462 78.0545 116.089 76.3373C115.773 74.6096 115.4 72.8926 115.027 71.1754C114.675 69.5734 114.324 67.9715 114.039 66.4163C113.997 66.1861 113.955 65.9556 113.913 65.7254C114.074 65.636 114.189 65.6149 114.361 65.5832C118.151 64.9423 121.999 64.291 125.837 63.5819C126.352 63.4867 126.613 63.6172 126.973 63.9674C131.064 68.2125 134.682 72.7832 138.462 77.2646C139.438 78.394 140.357 79.5341 141.275 80.6741C141.422 80.8257 141.5 80.9302 141.714 81.1289C141.598 80.4954 141.514 80.0347 141.43 79.574C140.285 74.6058 139.083 69.6482 137.949 64.7377C137.713 63.7693 137.487 62.8584 137.319 61.9368C137.224 61.4185 137.328 61.3398 137.844 61.2446C137.901 61.234 137.958 61.2234 138.015 61.2128C141.91 60.4933 145.758 59.8419 149.663 59.18C149.835 59.1481 150.064 59.1058 150.361 59.1105C150.43 59.8122 150.556 60.5034 150.625 61.2049C150.789 62.4249 150.953 63.645 151.116 64.865C151.339 66.7291 151.514 68.6613 151.804 70.5725C151.963 72.0909 152.18 73.599 152.406 75.1645C152.612 76.6148 152.808 78.0077 152.956 79.4686C153.072 80.1021 153.188 80.7356 153.293 81.3115C153.53 82.9347 153.757 84.5002 153.994 86.1233C154.242 87.804 154.433 89.4954 154.681 91.1761C154.828 91.9824 154.965 92.7312 155.055 93.548C155.371 95.2757 155.629 97.0141 155.888 98.7524C155.909 98.8676 155.919 98.9252 155.894 99.1085ZM153.23 58.759C153.517 58.7061 153.689 58.6744 153.918 58.632C157.182 58.0289 160.468 57.5408 163.722 56.8801C166.185 56.4251 168.569 55.8656 171.022 55.3529C175.229 54.3972 179.446 53.4988 183.653 52.543C183.939 52.4901 184.225 52.4372 184.512 52.3844C185.095 52.336 185.163 52.383 185.279 53.0166C185.373 53.5349 185.468 54.0532 185.516 54.6397C185.928 57.5405 186.339 60.4412 186.74 63.2844C186.772 63.4572 186.803 63.6298 186.845 63.8603C186.148 63.9296 185.507 63.9886 184.877 64.1049C182.726 64.3236 180.576 64.5424 178.378 64.8293C176.571 64.9846 174.775 65.1974 172.921 65.4209C171.296 65.602 169.624 65.8512 167.942 66.0429C167.771 66.0746 167.542 66.117 167.255 66.1698C167.259 68.1339 167.721 70.0134 167.849 72.0137C168.193 71.9502 168.433 71.9655 168.708 71.855C172.238 71.0838 175.758 70.2549 179.277 69.4261C179.564 69.3732 179.793 69.3309 180.079 69.2778C180.423 69.2143 180.637 69.4131 180.632 69.7115C180.659 70.183 180.686 70.6543 180.713 71.1255C180.796 73.8487 180.879 76.5721 181.02 79.2848C181.042 80.0547 180.985 80.0653 180.287 80.1346C178.709 80.2475 177.073 80.3711 175.506 80.5416C173.574 80.6605 171.595 80.8475 169.673 81.0239C169.444 81.0662 169.272 81.0979 168.975 81.0932C169.161 83.0831 169.384 84.9471 169.627 86.9265C169.913 86.8736 170.153 86.8889 170.314 86.7995C173.204 86.087 176.025 85.3275 178.857 84.6256C181.507 83.898 184.1 83.1808 186.76 82.5108C187.952 82.2309 188.02 82.2779 188.185 83.4979C188.726 86.7912 189.212 90.0951 189.755 93.3883C189.814 94.0325 189.767 94.1007 189.182 94.149C187.912 94.3241 186.699 94.4888 185.486 94.6533C181.846 95.1473 178.263 95.6305 174.691 96.1714C173.363 96.3571 172.082 96.4748 170.765 96.7183C169.744 96.9663 168.688 97.3401 167.678 97.6457C165.622 98.3828 163.566 99.1198 161.556 99.7888C161.338 99.8888 161.166 99.9205 160.937 99.9628C160.884 99.6748 160.785 99.4551 160.743 99.2246C160.59 98.0622 160.426 96.8422 160.216 95.6903C159.306 91.0361 158.453 86.3711 157.554 81.7745C157.165 79.6435 156.786 77.5702 156.35 75.5076C155.455 70.6123 154.504 65.7276 153.609 60.8322C153.483 60.1413 153.367 59.5077 153.23 58.759ZM188.585 54.7872C192.795 52.8781 196.959 51.0374 201.054 49.1494C202.315 51.8339 203.564 54.4606 204.813 57.0875C206.053 59.6568 207.302 62.2836 208.542 64.8529C209.78 67.4222 211.031 70.0489 212.327 72.6076C212.384 72.597 212.442 72.5864 212.442 72.5864C212.596 71.4863 212.761 70.4436 212.857 69.3541C213.129 66.6251 213.4 63.8958 213.682 61.2242C214.104 56.7403 214.529 52.2563 215.01 47.7617C214.98 47.5888 215.004 47.4056 215.042 47.2798C214.993 46.6933 215.087 46.5569 215.69 46.6238C216.659 46.7426 217.629 46.8612 218.54 46.9904C221.87 47.3875 225.141 47.7951 228.46 48.1345C228.584 48.171 228.768 48.1969 228.95 48.2227C228.935 48.4636 228.909 48.647 228.873 48.7728C227.213 57.8313 225.599 66.8217 223.871 75.8332C223.148 79.6578 222.233 83.399 221.444 87.1766C221.371 87.4282 221.344 87.6116 221.32 87.795C221.273 88.5177 221.273 88.5177 220.644 88.6342C219.107 88.9774 217.572 89.3206 216.036 89.664C214.557 89.9967 213.079 90.3295 211.6 90.6621C211.542 90.6727 211.542 90.6727 211.486 90.6833C211.257 90.7256 210.945 90.9619 210.81 90.8678C210.558 90.7951 210.438 90.46 210.282 90.2509C204.958 81.5301 199.634 72.8093 194.322 64.1461C192.483 61.2115 190.7 58.2662 188.919 55.3208C188.831 55.1586 188.741 54.9965 188.585 54.7872ZM231.201 44.3537C231.486 44.3009 231.659 44.2691 231.888 44.2268C235.153 43.6237 238.439 43.1358 241.692 42.475C244.155 42.02 246.539 41.4603 248.992 40.9477C253.198 39.9919 257.415 39.0938 261.623 38.1378C261.909 38.0849 262.196 38.032 262.482 37.9791C263.066 37.931 263.133 37.978 263.248 38.6113C263.344 39.1298 263.438 39.6481 263.487 40.2346C263.898 43.1352 264.309 46.036 264.709 48.8791C264.741 49.052 264.773 49.2248 264.815 49.4551C264.118 49.5246 263.477 49.5833 262.848 49.6997C260.697 49.9184 258.546 50.1371 256.348 50.4241C254.541 50.5793 252.745 50.7922 250.891 51.0157C249.266 51.1968 247.594 51.446 245.913 51.6377C245.74 51.6694 245.511 51.7117 245.226 51.7648C245.229 53.7287 245.69 55.6081 245.819 57.6085C246.163 57.545 246.402 57.5603 246.678 57.4498C250.207 56.6786 253.728 55.8497 257.248 55.0209C257.534 54.968 257.763 54.9257 258.048 54.8728C258.392 54.8093 258.606 55.0078 258.602 55.3065C258.629 55.7777 258.655 56.249 258.683 56.7203C258.766 59.4437 258.849 62.1669 258.989 64.8795C259.012 65.6495 258.954 65.66 258.257 65.7294C256.679 65.8423 255.043 65.9658 253.476 66.1364C251.543 66.2552 249.565 66.4422 247.643 66.6186C247.414 66.661 247.243 66.6927 246.944 66.688C247.13 68.6779 247.354 70.5421 247.596 72.5212C247.884 72.4683 248.122 72.4836 248.284 72.3943C251.173 71.6818 253.994 70.9223 256.827 70.2206C259.478 69.4928 262.07 68.7758 264.73 68.1056C265.923 67.8258 265.991 67.8727 266.154 69.0927C266.697 72.386 267.182 75.69 267.724 78.9833C267.783 79.6274 267.736 79.6954 267.153 79.7438C265.882 79.9189 264.668 80.0836 263.457 80.2481C259.816 80.742 256.234 81.2254 252.661 81.7662C251.333 81.9521 250.051 82.0696 248.735 82.313C247.715 82.5611 246.657 82.9349 245.648 83.2405C243.591 83.9777 241.536 84.7148 239.526 85.3836C239.308 85.4835 239.136 85.5153 238.906 85.5576C238.854 85.2697 238.754 85.0499 238.713 84.8194C238.559 83.657 238.395 82.4371 238.185 81.2853C237.276 76.6309 236.423 71.9661 235.525 67.3693C235.134 65.2384 234.757 63.165 234.319 61.1023C233.425 56.2071 232.474 51.3224 231.578 46.4272C231.452 45.736 231.338 45.1025 231.201 44.3537ZM265.981 36.9159C266.267 36.863 266.554 36.8101 266.781 36.7678C270.275 36.1223 273.713 35.4875 277.217 34.8995C280.091 34.428 283.023 33.946 286.002 34.0504C288.456 34.1925 290.873 34.4603 293.109 35.357C295.799 36.4674 297.839 38.2339 298.938 41.0076C299.629 42.8447 299.725 44.6724 299.364 46.5847C298.787 49.9063 297.078 52.5438 294.769 54.8159C294.516 55.0416 294.204 55.2779 293.96 55.5611C297.64 59.8228 301.947 63.3133 306.183 67.0554C303.183 69.7529 299.937 72.0792 296.409 74.1597C294.442 72.1418 292.579 70.0451 290.715 67.9484C288.852 65.8516 287.094 63.6761 285.486 61.3537C284.013 62.0426 282.655 62.7103 281.238 63.3886C281.317 64.1478 281.398 64.9071 281.466 65.6088C281.836 68.2792 282.138 70.9026 282.439 73.5259C282.625 74.8612 282.625 74.8612 281.406 75.3243C279.121 76.1037 276.835 76.883 274.551 77.6624C274.389 77.7517 274.218 77.7835 274.046 77.8152C274.004 77.585 273.914 77.4227 273.884 77.2499C273.525 75.2919 273.157 73.2762 272.8 71.318C272.152 68.1035 271.506 64.889 270.86 61.6745C270.14 58.0567 269.466 54.3709 268.746 50.7531C268.215 48.1721 267.674 45.5335 267.142 42.9526C266.785 40.9943 266.379 39.1045 265.966 37.1569C265.955 37.0993 266.002 37.0311 265.981 36.9159ZM278.964 44.4597C279.328 47.4287 279.683 50.34 280.059 53.3664C280.703 53.0092 281.199 52.7988 281.74 52.5202C283.363 51.6843 284.819 50.5818 285.972 49.1185C286.59 48.2896 286.97 47.4459 287.009 46.3667C287.075 45.1044 286.303 44.1161 285.129 43.8564C284.879 43.7835 284.573 43.7213 284.276 43.7166C282.531 43.5627 280.776 44.006 278.964 44.4597Z" fill="white"/>
<path d="M402 279.544H75.1401V424.989H402V279.544Z" fill="black"/>
<path d="M127.451 308.869C131.344 310.027 135.176 311.174 138.957 312.25C142.105 327.377 145.212 342.369 148.36 357.495C144.416 357.782 140.614 357.965 136.681 358.19C135.998 355.485 135.366 352.852 134.694 350.085C133.553 350.145 132.472 350.217 131.331 350.279C127.519 350.525 123.759 350.842 119.896 351.016C119.448 351.067 119.112 351.201 118.908 351.671C118.622 352.255 118.347 352.778 118.072 353.302C117.725 353.874 117.399 353.946 116.808 353.721C113.985 352.552 111.224 351.394 108.401 350.226C108.228 350.134 107.993 350.032 107.769 349.868C114.129 336.147 120.602 322.507 127.451 308.869ZM130.048 330.727C129.987 330.716 129.926 330.707 129.865 330.695C128.377 333.606 126.899 336.455 125.329 339.477C127.602 339.416 129.813 339.345 132.086 339.284C131.383 336.322 130.71 333.555 130.048 330.727ZM192.592 335.589C188.596 335.803 184.735 335.977 180.811 336.141C180.139 334.511 178.936 333.425 177.672 332.329C176.847 331.621 175.848 331.202 174.839 330.843C173.535 330.37 172.2 330.083 170.743 330.155C168.154 330.227 166.126 331.468 164.587 333.548C164.016 334.337 163.486 335.259 163.017 336.19C162.528 337.246 162.273 338.404 162.202 339.594C162.12 340.465 161.967 341.386 161.947 342.269C161.855 343.579 161.763 344.89 161.936 346.12C162.527 349.758 164.514 352.557 168.601 353.305C171.047 353.715 173.207 353.192 175.246 351.891C176.02 351.39 176.744 350.816 177.468 350.242C177.681 350.089 177.834 349.924 178.069 349.647C176.061 349.248 174.217 349.001 172.341 348.56C170.527 348.13 168.611 347.935 166.736 347.115C166.859 344.103 166.981 341.09 167.114 338.015C167.695 337.924 189.881 341.706 191.318 342.136C191.042 349.104 190.817 356.144 190.531 363.175C190.266 363.256 190.001 363.339 189.746 363.36C187.413 363.789 185.079 364.219 182.745 364.65C182.623 364.629 182.552 364.68 182.48 364.731C182.042 364.722 181.93 364.639 181.879 364.189C181.737 363.154 181.604 362.057 181.462 361.021C181.411 360.95 181.36 360.878 181.37 360.817C180.045 361.227 178.832 361.718 177.579 362.077C172.167 363.634 166.857 363.439 161.711 361.123C157.197 359.165 154.18 355.753 152.56 351.122C151.449 347.965 151.185 344.633 151.358 341.315C151.481 338.68 151.899 336.16 152.633 333.629C154.101 328.567 156.751 324.334 161.153 321.281C164.068 319.241 167.381 318.217 170.876 317.981C176.97 317.613 182.168 319.623 186.652 323.659C188.995 325.822 190.503 328.476 191.594 331.377C192.021 332.586 192.398 333.723 192.562 335.015C192.592 335.21 192.571 335.333 192.592 335.589ZM213.199 323.246C217.093 324.403 220.924 325.552 224.705 326.629C227.853 341.753 230.96 356.745 234.109 371.871C230.164 372.158 226.364 372.342 222.428 372.566C221.746 369.861 221.115 367.228 220.443 364.461C219.301 364.523 218.22 364.595 217.08 364.656C213.269 364.901 209.508 365.219 205.644 365.392C205.197 365.443 204.86 365.577 204.656 366.048C204.37 366.633 204.096 367.155 203.82 367.678C203.474 368.252 203.147 368.324 202.557 368.097C199.734 366.93 196.973 365.772 194.149 364.603C193.976 364.51 193.742 364.408 193.518 364.244C199.877 350.523 206.35 336.883 213.199 323.246ZM215.797 345.104C215.735 345.092 215.675 345.083 215.613 345.072C214.125 347.982 212.647 350.831 211.078 353.855C213.349 353.793 215.562 353.721 217.833 353.66C217.131 350.699 216.458 347.931 215.797 345.104ZM254.134 365.876C255 365.959 255.805 366.031 256.609 366.103C256.499 369.053 256.029 371.881 255.774 374.935C250.189 374.884 244.634 375.026 238.948 374.831C239.335 371.357 239.763 368.016 240.141 364.605C240.58 364.614 241.018 364.625 241.446 364.697C241.884 364.707 242.312 364.778 242.812 364.799C242.872 364.431 242.913 364.185 242.964 363.878C243.158 362.331 243.413 360.793 243.597 359.306C243.892 356.766 244.178 354.286 244.525 351.815C244.841 349.152 245.207 346.558 245.524 343.895C245.656 343.096 245.727 342.286 245.819 341.352C244.882 341.322 244.016 341.241 243.088 341.148C243.272 337.388 243.689 333.729 244.189 329.959C244.873 330.01 245.554 330.061 246.227 330.174C247.033 330.246 247.767 330.369 248.562 330.501C250.895 330.829 253.29 331.168 255.623 331.496C257.947 331.885 260.282 332.214 262.606 332.603C263.032 332.675 263.511 332.819 264.052 332.972C263.318 336.64 262.532 340.238 261.8 343.906C260.75 343.793 259.7 343.68 258.589 343.557C257.1 351.018 255.621 358.417 254.134 365.876ZM297.101 382.305C296.783 382.317 296.407 382.317 296.092 382.326C293.451 382.326 290.761 382.255 288.061 382.245C287.937 382.224 287.815 382.203 287.622 382.234C287.184 382.224 287.032 382.009 286.848 381.599C286.053 379.568 285.187 377.591 284.331 375.553C281.947 369.845 279.492 364.187 277.046 358.47C276.912 358.131 276.73 357.722 276.495 357.24C276.454 357.485 276.362 357.659 276.343 357.782C275.832 359.72 275.383 361.666 274.936 363.613C273.865 368.173 272.857 372.744 271.786 377.304C271.623 377.908 271.622 377.908 270.991 377.929C267.924 377.857 264.845 377.846 261.706 377.825C261.524 377.795 261.34 377.765 261.033 377.714C261.105 376.903 261.238 376.104 261.309 375.294C261.839 371.339 262.36 367.446 262.889 363.49C263.145 361.193 263.522 358.919 263.838 356.634C264.112 354.595 264.439 352.627 264.704 350.65C264.959 348.732 265.204 346.877 265.448 345.023C265.754 343.179 266 341.324 266.244 339.469C266.468 337.737 266.693 336.005 266.968 334.345C267.009 334.099 267.05 333.854 267.09 333.608C267.283 333.578 267.407 333.597 267.589 333.629C271.615 334.367 275.703 335.115 279.798 335.801C280.348 335.894 280.562 336.12 280.797 336.602C283.365 342.34 285.341 348.232 287.513 354.095C288.082 355.58 288.593 357.057 289.102 358.532C289.194 358.736 289.233 358.87 289.376 359.146C289.489 358.47 289.57 357.978 289.652 357.485C290.295 352.096 290.875 346.696 291.508 341.368C291.621 340.312 291.722 339.318 291.886 338.334C291.976 337.781 292.109 337.739 292.66 337.832C292.722 337.841 292.782 337.852 292.844 337.862C297.001 338.559 301.089 339.309 305.236 340.066C305.419 340.098 305.663 340.138 305.96 340.251C305.776 340.978 305.653 341.717 305.469 342.444C305.195 343.725 304.919 345.006 304.645 346.286C304.196 348.234 303.675 350.232 303.277 352.251C302.89 353.829 302.565 355.417 302.227 357.066C301.911 358.594 301.605 360.06 301.23 361.575C301.117 362.253 301.004 362.929 300.903 363.543C300.555 365.255 300.219 366.905 299.873 368.617C299.516 370.388 299.098 372.151 298.741 373.925C298.598 374.784 298.466 375.585 298.262 376.435C297.955 378.278 297.589 380.112 297.223 381.948C297.202 382.071 297.191 382.132 297.101 382.305ZM308.948 341.005C312.882 341.538 316.744 342.123 320.618 342.644C320.636 343.281 313.94 373.059 313.613 373.89C310.729 373.469 307.846 373.048 304.838 372.608C306.215 362.032 307.571 351.581 308.948 341.005ZM303.901 375.611C307.254 375.857 310.485 376.082 313.817 376.452C313.205 379.382 312.604 382.251 312.063 385.131C309.046 385.131 306.029 385.131 302.952 385.12C303.288 381.954 303.615 378.849 303.901 375.611ZM323.757 343.489C327.69 344.021 331.552 344.605 335.426 345.128C335.447 345.763 328.748 375.543 328.423 376.372C325.537 375.953 322.654 375.532 319.648 375.092C321.023 364.516 322.38 354.063 323.757 343.489ZM318.709 378.093C322.062 378.339 325.293 378.565 328.626 378.934C328.013 381.865 327.412 384.735 326.873 387.613C323.856 387.613 320.839 387.613 317.76 387.604C318.099 384.436 318.424 381.331 318.709 378.093ZM338.565 345.971C342.5 346.503 346.363 347.089 350.234 347.61C350.255 348.247 343.558 378.025 343.231 378.856C340.348 378.435 337.462 378.014 334.457 377.574C335.834 366.998 337.19 356.547 338.565 345.971ZM333.519 380.577C336.872 380.823 340.101 381.047 343.434 381.418C342.823 384.347 342.222 387.217 341.681 390.097C338.664 390.097 335.648 390.097 332.571 390.086C332.907 386.92 333.234 383.815 333.519 380.577ZM353.375 348.453C357.309 348.987 361.171 349.571 365.044 350.094C365.063 350.729 358.366 380.509 358.039 381.338C355.156 380.917 352.272 380.498 349.265 380.058C350.642 369.482 351.998 359.029 353.375 348.453ZM348.327 383.059C351.681 383.305 354.912 383.531 358.244 383.9C357.632 386.831 357.031 389.7 356.49 392.579C353.473 392.579 350.458 392.579 347.379 392.57C347.715 389.402 348.042 386.297 348.327 383.059Z" fill="white"/>
<path d="M386.972 115.21H212.271V220.988H386.972V115.21Z" fill="black"/>
<path d="M259.978 141.22C260.085 141.529 260.201 141.794 260.265 142.091C261.403 147.403 262.53 152.758 263.669 158.069C263.733 158.18 263.755 158.279 263.829 158.533C267.167 153.926 270.437 149.396 273.764 144.834C274.538 145.084 275.267 145.322 276.041 145.572C278.383 146.42 280.694 147.213 283.036 148.061C283.474 148.176 283.942 148.345 284.366 148.504C284.748 148.65 284.78 148.706 284.678 149.101C284.53 149.671 284.327 150.274 284.135 150.832C283.177 153.627 282.221 156.421 281.263 159.215C280.397 161.658 279.574 164.113 278.708 166.556C277.919 168.879 277.119 171.246 276.276 173.602C275.778 175.158 275.239 176.703 274.709 178.204C274.664 178.379 274.619 178.555 274.529 178.719C274.305 179.222 274.207 179.243 273.706 179.018C272.53 178.523 271.365 177.983 270.2 177.444C269.329 177.028 268.416 176.601 267.533 176.229C267.415 176.151 267.338 176.084 267.174 175.994C267.956 172.264 268.748 168.489 269.541 164.715C269.496 164.704 269.496 164.704 269.453 164.692C267.749 166.775 266.075 168.913 264.36 171.04C263.321 170.909 262.241 170.766 261.202 170.634C260.209 170.514 259.271 170.362 258.276 170.242C257.917 170.194 257.688 169.994 257.594 169.641C256.702 166.971 255.798 164.345 254.908 161.675C254.8 161.366 254.693 161.057 254.457 160.714C254.412 160.89 254.335 161.01 254.288 161.185C253.621 163.399 252.965 165.57 252.298 167.784C251.947 168.957 251.607 170.086 251.213 171.248C251.089 171.73 251.034 171.763 250.574 171.736C248.203 171.536 245.832 171.336 243.462 171.136C243.374 171.113 243.33 171.102 243.201 171.068C243.214 170.837 243.216 170.65 243.272 170.431C243.434 169.63 243.693 168.808 243.866 167.963C244.241 166.328 244.576 164.682 244.91 163.036C245.151 161.928 245.446 160.788 245.697 159.636C245.928 158.571 246.112 157.496 246.355 156.388C246.456 155.993 246.514 155.587 246.618 155.192C246.847 154.128 247.119 153.075 247.348 152.011C247.626 150.584 247.946 149.169 248.222 147.742C248.44 146.722 248.692 145.757 248.909 144.736C249.152 143.441 249.437 142.158 249.713 140.918C249.794 140.424 249.963 139.953 250.099 139.427C253.395 140.01 256.681 140.637 259.978 141.22ZM291.944 175.461C292.568 175.577 293.146 175.682 293.725 175.787C293.451 177.917 292.928 179.935 292.545 182.13C288.503 181.726 284.471 181.466 280.365 180.951C280.87 178.461 281.398 176.069 281.892 173.622C282.21 173.658 282.525 173.694 282.831 173.774C283.147 173.81 283.453 173.891 283.814 173.938C283.882 173.675 283.927 173.5 283.985 173.28C284.225 172.172 284.509 171.075 284.738 170.011C285.118 168.19 285.486 166.412 285.897 164.646C286.299 162.737 286.733 160.883 287.135 158.974C287.282 158.404 287.387 157.822 287.513 157.153C286.836 157.069 286.215 156.952 285.548 156.825C285.925 154.113 286.466 151.49 287.073 148.791C287.563 148.873 288.056 148.955 288.535 149.081C289.113 149.186 289.637 149.323 290.205 149.472C291.873 149.863 293.586 150.265 295.256 150.656C296.913 151.09 298.583 151.481 300.24 151.915C300.546 151.995 300.882 152.131 301.263 152.278C300.495 154.887 299.693 157.441 298.923 160.05C298.17 159.899 297.416 159.749 296.62 159.587C295.059 164.893 293.507 170.155 291.944 175.461ZM324.839 168.999C323.582 168.81 322.382 168.589 321.224 168.379C320.156 168.193 319.096 167.962 318.07 167.787C317.928 167.796 317.796 167.762 317.698 167.783C317.229 167.8 317.229 167.8 317.167 167.316C317.033 166.391 316.913 165.422 316.485 164.56C315.777 163.156 314.646 162.485 313.092 162.546C311.638 162.587 310.374 163.146 309.531 164.424C308.975 165.309 308.988 166.155 309.627 166.932C310.015 167.408 310.447 167.897 310.913 168.253C312.206 169.201 313.564 170.072 314.888 171.075C316.06 171.945 317.21 172.902 318.316 173.848C318.934 174.338 319.43 174.936 319.874 175.568C321.093 177.152 321.326 178.947 320.924 180.856C320.548 182.491 319.855 183.902 318.662 185.089C317.712 186.058 316.492 186.628 315.177 187.032C312.249 187.905 309.339 187.985 306.441 186.944C303.063 185.777 300.514 183.564 299.051 180.228C298.494 178.958 298.419 177.627 298.532 176.297C298.63 175.199 298.541 175.363 299.558 175.395C301.515 175.393 303.471 175.578 305.415 175.806C305.601 175.808 305.83 175.822 306.027 175.779C306.399 175.783 306.551 175.917 306.448 176.312C306.335 176.75 306.352 177.223 306.424 177.664C306.715 179.239 307.523 180.435 308.969 181.142C310.015 181.603 311.065 181.504 311.96 180.755C312.786 180.081 313.004 179.061 312.818 177.981C312.756 177.497 312.531 177.11 312.14 176.82C311.554 176.385 310.956 175.994 310.305 175.636C308.868 174.885 307.41 174.221 306.029 173.437C303.268 171.87 301.419 169.652 300.839 166.502C300.504 164.915 300.717 163.378 301.213 161.821C301.821 160.013 302.877 158.463 304.385 157.313C306.249 155.88 308.343 155.164 310.695 155.078C313.419 154.996 316.04 155.495 318.553 156.576C319.893 157.161 321.1 157.899 322.227 158.757C322.727 159.169 322.973 159.656 323.308 160.165C324.181 161.471 324.856 162.819 325.103 164.383C325.297 165.793 325.205 167.221 324.929 168.648C324.906 168.735 324.884 168.823 324.839 168.999ZM350.954 175.845C349.699 175.656 348.496 175.435 347.339 175.226C346.27 175.039 345.213 174.808 344.185 174.633C344.044 174.643 343.913 174.608 343.813 174.629C343.344 174.647 343.344 174.647 343.284 174.162C343.15 173.237 343.028 172.268 342.6 171.406C341.892 170.003 340.761 169.332 339.207 169.393C337.753 169.433 336.491 169.992 335.646 171.27C335.092 172.155 335.105 173.002 335.741 173.778C336.13 174.255 336.562 174.743 337.03 175.099C338.321 176.047 339.679 176.919 341.003 177.922C342.175 178.791 343.325 179.748 344.431 180.694C345.049 181.184 345.547 181.783 345.989 182.414C347.208 183.999 347.443 185.794 347.041 187.703C346.663 189.337 345.972 190.749 344.779 191.936C343.828 192.905 342.609 193.475 341.292 193.879C338.364 194.75 335.454 194.831 332.556 193.791C329.178 192.623 326.631 190.409 325.165 187.075C324.609 185.805 324.536 184.473 324.647 183.144C324.747 182.045 324.656 182.209 325.673 182.242C327.63 182.239 329.586 182.424 331.53 182.653C331.716 182.655 331.945 182.668 332.142 182.626C332.514 182.63 332.666 182.763 332.565 183.158C332.45 183.597 332.467 184.07 332.54 184.51C332.83 186.086 333.638 187.281 335.086 187.989C336.13 188.45 337.182 188.351 338.075 187.601C338.901 186.928 339.119 185.907 338.933 184.828C338.873 184.343 338.648 183.956 338.257 183.666C337.671 183.232 337.073 182.841 336.42 182.482C334.984 181.731 333.525 181.068 332.144 180.284C329.383 178.717 327.534 176.499 326.954 173.348C326.619 171.762 326.832 170.224 327.33 168.668C327.938 166.86 328.992 165.309 330.502 164.159C332.364 162.726 334.46 162.011 336.812 161.925C339.536 161.842 342.155 162.342 344.67 163.423C346.009 164.008 347.215 164.746 348.344 165.604C348.842 166.016 349.09 166.502 349.423 167.011C350.296 168.318 350.972 169.666 351.218 171.23C351.412 172.639 351.322 174.068 351.044 175.494C351.021 175.582 350.999 175.67 350.954 175.845Z" fill="white"/>
<path d="M268.626 168.087H0V296.532H268.626V168.087Z" fill="black"/>
<path d="M33.4288 227.894C37.2358 227.668 40.9856 227.451 44.6677 227.188C52.2533 239.539 59.7607 251.785 67.3463 264.137C63.9532 265.657 60.6534 267.04 57.2497 268.504C55.7873 266.331 54.3927 264.208 52.9198 261.979C51.9309 262.401 50.9994 262.811 50.0105 263.232C46.7213 264.673 43.5 266.161 40.1429 267.555C39.7631 267.744 39.5084 267.971 39.4779 268.453C39.4114 269.061 39.3342 269.611 39.2572 270.16C39.1332 270.778 38.868 270.946 38.2742 270.937C35.4091 270.812 32.6015 270.676 29.7366 270.549C29.5542 270.525 29.3147 270.508 29.0645 270.436C30.3247 256.271 31.7101 242.144 33.4288 227.894ZM42.6665 246.372C42.6092 246.381 42.5519 246.392 42.4946 246.402C42.1045 249.452 41.7038 252.442 41.2772 255.618C43.2654 254.834 45.1965 254.059 47.1847 253.275C45.6229 250.886 44.15 248.657 42.6665 246.372ZM112.197 241.74C115.579 242.426 118.892 243.064 122.217 243.759C122.15 244.367 121.959 244.938 121.71 245.52C119.501 250.929 115.549 254.577 110.293 256.917C106.993 258.3 103.624 258.982 100.02 258.697C95.7425 258.296 92.0932 256.47 89.3004 253.175C87.3377 250.858 86.0307 248.242 85.0931 245.38C84.0457 242.239 83.4669 239.071 83.518 235.786C83.5787 231.906 84.5147 228.28 86.6337 224.97C88.1087 222.675 90.0792 220.822 92.4309 219.434C94.8867 217.968 97.5307 216.886 100.447 216.644C103.822 216.319 107.197 216.648 110.341 217.972C113.109 219.187 115.445 220.958 117.419 223.333C117.643 223.588 117.878 223.901 118.113 224.217C118.181 224.262 118.202 224.377 118.28 224.483C118.072 224.64 117.932 224.844 117.724 225.003C115.331 226.814 112.949 228.682 110.556 230.494C110.406 230.641 110.198 230.798 110.094 230.877C109.155 230.276 108.273 229.666 107.413 229.169C105.985 228.48 104.52 227.917 102.911 227.859C99.4308 227.607 96.7926 229.049 94.9647 232.005C93.8744 233.814 93.5237 235.784 93.6736 237.9C93.7192 240.095 94.2698 242.135 95.2787 244.092C96.0889 245.61 97.0393 246.923 98.3484 247.932C99.7361 249.044 101.388 249.333 103.159 249.305C104.221 249.286 105.195 249.107 106.184 248.685C109.057 247.56 110.917 245.431 111.912 242.448C111.948 242.322 111.974 242.139 112.067 242.003C112.114 241.935 112.161 241.867 112.197 241.74ZM123.453 234.184C122.864 230.958 122.743 227.707 123.466 224.536C124.432 219.774 126.8 215.883 130.784 213.063C133.312 211.346 136.05 210.126 139.049 209.691C142.975 209.143 146.841 209.561 150.48 211.331C153.858 212.968 156.55 215.388 158.499 218.599C160.558 222.09 161.825 225.785 162.207 229.823C162.817 235.425 161.3 240.408 157.385 244.585C153.622 248.614 149.017 250.954 143.591 251.717C140.409 252.127 137.319 251.745 134.359 250.446C131.137 249.018 128.752 246.661 126.971 243.714C125.189 240.769 124.121 237.513 123.453 234.184ZM151.037 228.314C150.884 227.152 150.559 226.021 149.911 225.069C148.574 222.934 146.597 221.514 144.221 220.821C142.402 220.263 140.653 220.409 138.982 221.314C138.233 221.748 137.541 222.175 136.792 222.611C136.688 222.689 136.526 222.779 136.433 222.915C136.095 223.335 135.7 223.765 135.305 224.194C135.165 224.4 135.025 224.604 134.895 224.867C134.516 225.711 134.205 226.601 134.087 227.575C133.892 229.1 133.869 230.592 133.981 232.178C134.095 234.421 134.656 236.519 136.008 238.414C137.653 240.61 139.755 242.067 142.537 242.386C146.298 242.883 149.529 240.797 150.616 237.023C151.392 234.143 151.449 231.215 151.037 228.314ZM164.899 226.527C164.31 223.301 164.189 220.05 164.912 216.878C165.878 212.117 168.246 208.225 172.23 205.405C174.758 203.688 177.496 202.468 180.495 202.034C184.421 201.488 188.286 201.903 191.925 203.673C195.304 205.311 197.996 207.731 199.944 210.944C202.003 214.432 203.271 218.127 203.653 222.165C204.263 227.768 202.745 232.751 198.832 236.927C195.068 240.956 190.462 243.296 185.037 244.06C181.855 244.469 178.766 244.088 175.805 242.788C172.583 241.36 170.198 239.003 168.417 236.058C166.635 233.112 165.567 229.857 164.899 226.527ZM192.483 220.656C192.331 219.495 192.006 218.363 191.358 217.411C190.02 215.277 188.044 213.856 185.667 213.163C183.848 212.608 182.098 212.751 180.428 213.656C179.679 214.092 178.987 214.517 178.238 214.954C178.134 215.031 177.972 215.122 177.879 215.258C177.541 215.677 177.146 216.108 176.751 216.538C176.611 216.742 176.471 216.946 176.341 217.209C175.962 218.053 175.651 218.943 175.533 219.918C175.338 221.442 175.315 222.936 175.427 224.523C175.541 226.763 176.102 228.862 177.454 230.756C179.099 232.953 181.201 234.409 183.983 234.728C187.744 235.225 190.974 233.14 192.062 229.368C192.838 226.485 192.894 223.558 192.483 220.656ZM202.525 197.963C206.822 197.17 210.954 196.465 215.147 195.751C215.188 195.982 215.288 196.201 215.329 196.431C215.604 197.929 215.887 199.484 216.105 200.991C216.468 203.307 216.774 205.63 217.08 207.955C217.217 208.703 217.296 209.463 217.377 210.222C217.433 210.213 217.501 210.26 217.559 210.248C217.653 210.112 217.745 209.976 217.771 209.793C220.174 205.122 221.989 200.143 224.062 195.294C224.254 194.724 224.513 194.199 224.763 193.617C226.039 193.798 227.325 194.036 228.603 194.217C230.927 194.622 233.239 194.967 235.621 195.362C235.747 195.398 235.859 195.377 235.985 195.413C236.303 195.534 236.402 195.753 236.273 196.016C236.201 196.267 236.025 196.597 235.895 196.858C233.102 202.317 230.31 207.774 227.528 213.288C227.481 213.358 227.434 213.426 227.41 213.609C227.998 213.917 228.655 214.272 229.245 214.58C234.355 217.268 239.462 219.954 244.563 222.585C245.288 222.987 245.397 223.265 244.94 224.003C244.27 225.199 243.543 226.404 242.816 227.611C241.726 229.419 240.635 231.228 239.545 233.038C239.239 233.629 239.113 233.593 238.57 233.217C238.232 232.981 237.894 232.747 237.554 232.513C232.565 229.504 227.564 226.44 222.631 223.422C222.494 223.327 222.37 223.291 222.176 223.208C221.814 223.811 221.517 224.46 221.096 225.074C220.384 226.04 220.335 227.061 220.546 228.212C220.888 230.412 221.059 232.643 221.344 234.851C221.414 235.554 221.414 235.554 220.803 235.784C217.967 236.785 215.177 237.719 212.397 238.708C212.237 238.797 212.123 238.818 212.008 238.839C211.55 238.924 211.424 238.888 211.292 238.495C211.058 237.526 210.81 236.5 210.575 235.531C209.497 230.611 208.478 225.679 207.4 220.758C206.56 216.805 205.73 212.91 204.9 209.015C204.154 205.581 203.408 202.147 202.672 198.77C202.631 198.539 202.578 198.252 202.525 197.963Z" fill="white"/>
</svg>
