<svg width="211" height="161" viewBox="0 0 211 161" fill="none" xmlns="http://www.w3.org/2000/svg">
<g clip-path="url(#clip0_178_5418)">
<mask id="mask0_178_5418" style="mask-type:luminance" maskUnits="userSpaceOnUse" x="0" y="0" width="211" height="161">
<path d="M175.37 0.147499L0 96.9363L34.9301 160.225L210.3 63.4366L175.37 0.147499Z" fill="white"/>
</mask>
<g mask="url(#mask0_178_5418)">
<path d="M188.111 33.2953C187.382 31.9307 186.67 30.5624 185.964 29.1896C185.71 30.0235 185.409 30.8424 185.063 31.6422C184.936 31.939 184.74 32.201 184.491 32.4063C178.382 46.9348 163.132 57.6018 150.545 66.132C134.822 76.7853 118.53 86.5757 101.743 95.4601C88.6896 102.371 75.334 109.04 61.7243 114.797C50.0918 119.721 37.658 124.017 24.8704 123.87C23.3293 123.867 21.7901 123.752 20.2657 123.525C22.9016 127.874 25.4476 132.269 27.9037 136.708C28.3388 136.792 28.7491 136.974 29.1041 137.24C34.659 141.243 45.083 138.738 51.2322 137.284C58.3685 135.5 65.3333 133.091 72.046 130.084C86.3481 123.892 100.411 116.86 114.147 109.513C130 101.047 145.403 91.7635 160.292 81.6988C167.515 76.7654 174.415 71.3753 180.95 65.5614C186.047 61.0634 197.927 51.9455 193.461 43.9609C193.256 43.6062 193.161 43.1985 193.188 42.7898C191.165 39.8497 189.727 36.3208 188.112 33.2952" fill="#999999"/>
<path d="M34.0875 117.064C39.3439 116.172 44.5112 114.819 49.5301 113.02C60.0784 109.362 70.0932 104.322 80.1254 99.4679C92.809 93.3319 105.309 86.8495 117.509 79.7957C129.208 73.032 140.773 65.9061 151.833 58.133C162.195 50.8502 174.506 42.0197 181.297 31.0549C181.319 30.8958 181.36 30.7397 181.418 30.5899C182.566 27.6663 183.762 23.8827 180.764 21.621C177.873 19.4403 172.834 19.8935 169.384 20.0777C162.642 20.4397 155.982 22.0008 149.565 24.0475C135.006 28.6935 121.455 36.605 107.969 43.6753C84.1597 56.1578 60.8097 69.966 40.1805 87.3165C34.9189 91.7218 29.8963 96.4055 25.1348 101.347C22.3852 104.216 16.1784 109.962 17.0816 114.622C18.0734 119.739 30.3613 117.652 34.0875 117.064Z" fill="#CCCCCC"/>
<path d="M13.608 112.821C15.8614 116.348 18.0826 119.923 20.2631 123.527C21.7879 123.753 23.3268 123.868 24.8681 123.873C37.6574 124.019 50.0895 119.723 61.723 114.802C75.3323 109.043 88.6871 102.375 101.742 95.4647C118.529 86.5795 134.82 76.7885 150.544 66.1355C163.133 57.6058 178.381 46.9383 184.489 32.4098C184.739 32.2046 184.935 31.9424 185.062 31.6453C185.408 30.8447 185.708 30.0255 185.963 29.1914C184.14 25.6418 182.393 22.0528 180.723 18.4247C180.6 18.1841 180.541 17.9156 180.552 17.6455C180.563 17.3753 180.644 17.1126 180.787 16.8828C177.784 15.6663 174.183 15.509 171.162 15.5474C156.838 15.7307 142.884 20.8501 130.114 26.9726C101.206 40.8328 72.1433 55.6176 46.3258 74.7643C40.0103 79.4393 33.9587 84.4609 28.1992 89.8059C23.2015 94.4525 17.7737 99.326 14.1109 105.146C11.7536 108.893 9.64102 114.089 11.8487 118.396C12.4948 119.648 13.4508 120.713 14.6256 121.491C13.4399 119.06 12.2734 116.628 11.1264 114.193C10.9609 113.865 10.9291 113.486 11.0375 113.135C11.146 112.784 11.3862 112.489 11.7078 112.312C12.0293 112.134 12.4072 112.088 12.7619 112.184C13.1166 112.279 13.4206 112.508 13.6099 112.823M17.0838 114.625C16.1805 109.964 22.3862 104.217 25.1369 101.35C29.8968 96.4065 34.918 91.7219 40.1791 87.3162C60.807 69.9649 84.1585 56.1581 107.968 43.675C121.456 36.604 135.003 28.6941 149.564 24.0472C155.98 21.9988 162.64 20.4363 169.382 20.0774C172.833 19.8932 177.87 19.4401 180.762 21.6208C183.764 23.8835 182.565 27.6684 181.416 30.5896C181.358 30.7395 181.318 30.8955 181.296 31.0546C174.509 42.0172 162.196 50.851 151.831 58.1328C140.772 65.9059 129.207 73.0318 117.508 79.7953C105.308 86.8496 92.8091 93.3305 80.1238 99.4674C70.0921 104.32 60.0762 109.365 49.5299 113.019C44.511 114.818 39.3435 116.171 34.0873 117.064C30.3626 117.654 18.0734 119.739 17.0816 114.622" fill="#1C1C1C"/>
<path d="M48.4472 143.953C55.6746 142.443 62.7671 140.346 69.6542 137.684C87.1415 130.72 104.188 121.956 120.668 112.903C138.503 103.104 156.41 92.5523 172.537 80.0964C180.056 74.2873 186.872 68.4013 192.39 60.7206C195.384 56.5524 198.678 51.1924 198.366 45.9285C198.232 46.0967 198.064 46.2352 197.873 46.3355C197.682 46.4353 197.473 46.4946 197.258 46.5093C197.043 46.5245 196.827 46.4943 196.625 46.4213C196.422 46.3487 196.237 46.2344 196.081 46.0861C194.975 45.1197 194.002 44.0121 193.186 42.7918C193.16 43.2009 193.255 43.6091 193.46 43.964C197.926 51.9483 186.045 61.0655 180.949 65.5634C174.415 71.3772 167.516 76.7665 160.293 81.6982C145.404 91.7628 130.002 101.047 114.15 109.513C100.412 116.86 86.3502 123.893 72.0487 130.084C65.3355 133.091 58.3704 135.5 51.2341 137.283C45.0851 138.737 34.6612 141.244 29.1048 137.237C28.75 136.972 28.3397 136.79 27.9046 136.706C28.3005 137.423 28.7103 138.135 29.0987 138.853C30.5534 141.548 26.4996 143.81 24.9465 141.248C25.1758 141.743 25.5298 142.17 25.9738 142.487C31.6247 146.566 39.4326 145.881 45.8719 144.513C46.7344 144.33 47.5925 144.143 48.4472 143.953Z" fill="#1C1C1C"/>
<path d="M29.0967 138.855C28.7078 138.137 28.2974 137.426 27.9027 136.708C25.4576 132.272 22.9116 127.878 20.2646 123.524C18.0816 119.923 15.861 116.348 13.6061 112.82C13.4169 112.506 13.1131 112.277 12.7586 112.182C12.404 112.086 12.0263 112.132 11.7049 112.31C11.3835 112.487 11.1434 112.782 11.035 113.133C10.9266 113.484 10.9584 113.863 11.1238 114.191C12.2681 116.625 13.4345 119.057 14.623 121.488C17.8726 128.141 21.2788 134.755 24.8946 141.174C24.9101 141.202 24.9293 141.221 24.9458 141.248C26.499 143.811 30.5528 141.549 29.0967 138.855Z" fill="#1C1C1C"/>
<path d="M180.726 18.4244C182.393 22.057 184.14 25.646 185.965 29.1916C186.67 30.5644 187.383 31.9326 188.111 33.2972C189.726 36.3237 191.164 39.8522 193.186 42.7918C194.003 44.0121 194.976 45.1197 196.081 46.0861C196.237 46.2345 196.422 46.3488 196.625 46.4218C196.827 46.4946 197.043 46.5248 197.257 46.5098C197.472 46.4951 197.682 46.4357 197.872 46.3359C198.063 46.2358 198.231 46.0973 198.365 45.9292C198.507 45.7494 198.611 45.5422 198.668 45.3201C198.726 45.0985 198.736 44.8671 198.699 44.6409C197.998 39.7656 194.527 35.2922 192.127 31.0809C189.38 26.2654 186.511 21.5487 183.482 16.9054C183.273 16.556 182.936 16.3014 182.543 16.1953C182.149 16.0893 181.73 16.1399 181.374 16.3367C181.017 16.5337 180.751 16.8612 180.631 17.2506C180.511 17.6399 180.547 18.0605 180.731 18.424" fill="#1C1C1C"/>
<path d="M28.525 123.34C29.9866 124.442 31.3214 125.702 32.505 127.098C33.1209 127.757 33.6433 128.478 34.2103 129.17L35.7701 131.338L37.192 133.599C37.6171 134.385 38.0909 135.139 38.4671 135.959C39.3137 137.582 39.9757 139.294 40.4407 141.065C38.9778 139.965 37.6421 138.705 36.4584 137.31C35.842 136.653 35.3229 135.928 34.7549 135.239L33.1979 133.071L31.7795 130.808C31.3532 130.022 30.8821 129.264 30.5044 128.447C29.6595 126.824 28.9965 125.113 28.5273 123.344" fill="#141414"/>
<path d="M40.1081 118.601C41.7369 120.019 43.2293 121.587 44.5654 123.283C45.2589 124.095 45.8557 124.96 46.4975 125.799L48.2823 128.408L49.9281 131.108C50.4276 132.04 50.976 132.94 51.4265 133.905C52.4232 135.822 53.236 137.829 53.8537 139.899C52.2261 138.492 50.7373 136.933 49.4076 135.243C48.713 134.432 48.1156 133.558 47.4695 132.715L45.6774 130.089L44.0285 127.372C43.526 126.437 42.9784 125.53 42.525 124.565C41.5322 122.657 40.7231 120.659 40.109 118.598" fill="#141414"/>
<path d="M53.9509 118.337C55.0418 119.305 56.0291 120.385 56.8968 121.558C57.351 122.101 57.7135 122.689 58.1281 123.248C58.4993 123.833 58.8754 124.411 59.2605 124.985C59.5992 125.585 59.9467 126.182 60.3021 126.774C60.6116 127.399 60.9762 127.985 61.2551 128.637C61.9116 129.94 62.4286 131.309 62.7979 132.721C61.48 132.028 60.2884 131.118 59.2734 130.028C58.769 129.508 58.2928 128.961 57.8467 128.39C57.4292 127.802 57.0194 127.209 56.6177 126.611C56.2655 125.98 55.9219 125.346 55.5874 124.707C55.2786 124.052 55.0047 123.381 54.7679 122.696C54.2544 121.299 53.9782 119.825 53.9509 118.337Z" fill="#141414"/>
<path d="M63.2637 112.615C64.4792 113.304 65.59 114.164 66.5626 115.168C67.0646 115.627 67.4783 116.151 67.9321 116.645L69.1618 118.222L70.2544 119.897C70.5706 120.489 70.9331 121.047 71.2031 121.674C71.8349 122.922 72.2831 124.255 72.5341 125.632C71.3166 124.943 70.2043 124.084 69.2309 123.079C68.7274 122.62 68.3135 122.093 67.8608 121.601L66.6358 120.021L65.5472 118.346C65.2285 117.756 64.869 117.194 64.5982 116.569C63.9681 115.321 63.5184 113.989 63.2628 112.614" fill="#141414"/>
<path d="M80.806 103.508C82.1783 104.884 83.4384 106.367 84.5739 107.943C85.1678 108.69 85.6721 109.488 86.2296 110.252L87.7893 112.61L89.2678 115.022C89.7202 115.853 90.2298 116.647 90.6539 117.503C91.5991 119.201 92.4041 120.973 93.0612 122.802C91.437 121.694 89.9619 120.381 88.673 118.896C88.0025 118.189 87.4341 117.408 86.8248 116.656L85.1757 114.273L83.7244 111.766C83.3008 110.895 82.8393 110.046 82.4841 109.14C81.6884 107.342 81.1259 105.45 80.8106 103.51" fill="#141414"/>
<path d="M104.904 90.7751C106.156 91.8123 107.275 93.0005 108.235 94.3131C108.74 94.9302 109.147 95.6016 109.601 96.2462L110.813 98.2646L111.877 100.37C112.18 101.099 112.535 101.798 112.788 102.554C113.387 104.066 113.794 105.646 114.001 107.259C112.747 106.224 111.628 105.037 110.668 103.724C110.163 103.107 109.76 102.434 109.305 101.789L108.097 99.7692L107.035 97.6684C106.73 96.941 106.38 96.2391 106.127 95.4823C105.529 93.9716 105.12 92.3922 104.91 90.7808" fill="#141414"/>
<path d="M122.825 76.9299C124.313 78.6417 125.699 80.4391 126.977 82.313C127.645 83.2132 128.225 84.1538 128.866 85.0596C129.461 85.9935 130.068 86.9197 130.685 87.8377C131.26 88.7826 131.847 89.7207 132.446 90.652C133.002 91.6144 133.616 92.5343 134.151 93.518C135.316 95.4633 136.365 97.4767 137.29 99.5475C135.411 98.2232 133.699 96.6767 132.192 94.9413C131.408 94.1051 130.734 93.1953 130.02 92.3071C129.36 91.3823 128.711 90.4495 128.073 89.5084C127.486 88.5335 126.912 87.5521 126.352 86.5638C125.845 85.5443 125.304 84.5456 124.874 83.4866C123.932 81.39 123.245 79.188 122.828 76.928" fill="#141414"/>
<path d="M139.544 68.26C141.001 69.6708 142.34 71.198 143.549 72.8265C144.181 73.601 144.722 74.4282 145.313 75.2224L146.97 77.6782L148.533 80.1946C149.012 81.0619 149.545 81.8936 149.994 82.7847C150.984 84.5556 151.826 86.4052 152.511 88.3147C150.851 87.1175 149.339 85.7267 148.009 84.1715C147.319 83.4328 146.727 82.6184 146.094 81.8332L144.366 79.3611L142.824 76.7691C142.366 75.8706 141.871 74.9953 141.479 74.0622C140.608 72.2105 139.958 70.2622 139.545 68.258" fill="#141414"/>
<path d="M159.792 57.6455C161.264 58.9229 162.598 60.3507 163.774 61.9054C164.388 62.6443 164.907 63.4444 165.471 64.2131L167.017 66.6099L168.423 69.0935C168.841 69.9527 169.309 70.7807 169.676 71.6689C170.507 73.4335 171.149 75.2808 171.591 77.18C170.117 75.9051 168.781 74.4786 167.605 72.9238C166.99 72.1843 166.475 71.3832 165.909 70.6152L164.362 68.2173L162.961 65.7312C162.542 64.8742 162.077 64.0436 161.708 63.156C160.878 61.3916 160.235 59.5454 159.787 57.648" fill="#141414"/>
<path d="M169.357 49.5403C170.705 50.5907 171.924 51.7972 172.988 53.1342C173.544 53.7635 174.004 54.4508 174.511 55.1106L175.885 57.1779L177.117 59.3338C177.477 60.083 177.888 60.8016 178.199 61.5812C178.915 63.1329 179.443 64.7646 179.772 66.4418C178.421 65.3935 177.201 64.1876 176.138 62.8497C175.58 62.2212 175.123 61.5318 174.615 60.8734L173.244 58.8042L172.016 56.6459C171.654 55.8979 171.246 55.1775 170.934 54.3972C170.219 52.8458 169.689 51.2158 169.357 49.5403Z" fill="#141414"/>
<path d="M176.213 42.3691C177.422 43.5631 178.52 44.8644 179.494 46.2572C180.005 46.9113 180.424 47.6099 180.898 48.2832C181.325 48.979 181.76 49.6699 182.203 50.3555C182.601 51.0688 183.006 51.7774 183.418 52.4813C183.785 53.2163 184.21 53.9149 184.544 54.6756C185.314 56.1908 185.942 57.7738 186.421 59.4044C184.968 58.474 183.658 57.3358 182.535 56.0261C181.948 55.4098 181.465 54.72 180.938 54.0567C180.467 53.3599 180.002 52.6575 179.544 51.9501C179.136 51.2117 178.737 50.4696 178.347 49.7237C178.007 48.9474 177.632 48.1949 177.363 47.3872C176.74 45.7786 176.352 44.0883 176.213 42.3691Z" fill="#141414"/>
<path d="M182.707 34.8144C183.896 35.7425 184.955 36.824 185.859 38.0308C186.332 38.591 186.711 39.2109 187.136 39.8028L188.258 41.6595L189.235 43.5972C189.508 44.2725 189.834 44.9181 190.056 45.6202C190.596 47.0281 190.944 48.5022 191.092 50.0029C189.901 49.078 188.84 47.9975 187.936 46.7905C187.462 46.2309 187.088 45.6081 186.662 45.0168L185.543 43.158L184.571 41.2186C184.295 40.5444 183.974 39.8962 183.752 39.194C183.212 37.7866 182.862 36.3135 182.711 34.8137" fill="#141414"/>
<path d="M187.074 35.8154C188.194 36.4217 189.213 37.1984 190.094 38.1179C190.548 38.5346 190.912 39.0098 191.319 39.4612L192.401 40.9029L193.345 42.4376C193.61 42.9836 193.925 43.4949 194.142 44.0726C194.671 45.2317 195.016 46.4665 195.163 47.7319C194.042 47.1284 193.021 46.3527 192.139 45.4333C191.685 45.0168 191.322 44.5365 190.915 44.0881L189.836 42.6451L188.896 41.1077C188.629 40.5631 188.317 40.0485 188.098 39.4715C187.57 38.3129 187.224 37.0799 187.074 35.8154Z" fill="#141414"/>
<path d="M37.8819 88.205C37.9931 89.8631 37.9023 91.5284 37.612 93.1644C37.512 93.9734 37.3051 94.7519 37.1474 95.5427L36.5176 97.8705L35.7276 100.15C35.4078 100.893 35.1444 101.652 34.7691 102.377C34.0851 103.893 33.2181 105.319 32.1874 106.625C32.0734 104.966 32.1627 103.299 32.4535 101.662C32.5534 100.853 32.7645 100.077 32.918 99.284L33.5542 96.9557L34.344 94.6814C34.6621 93.9379 34.929 93.18 35.3031 92.4556C35.9869 90.9404 36.8517 89.5137 37.8789 88.2067" fill="#141414"/>
<path d="M43.4365 87.9871C43.4634 89.8234 43.3729 91.6596 43.1654 93.4845C43.1083 94.3818 42.96 95.2526 42.8781 96.1359C42.7485 97.0105 42.6348 97.8861 42.5366 98.7628C42.3906 99.6326 42.2596 100.506 42.144 101.383C41.9762 102.254 41.8824 103.133 41.6875 104.01C41.3854 105.823 40.9648 107.613 40.4282 109.37C39.7606 107.611 39.3698 105.76 39.2698 103.882C39.1773 102.953 39.218 102.03 39.2192 101.099C39.284 100.176 39.3663 99.2534 39.4656 98.3313C39.6262 97.4182 39.803 96.5088 39.9968 95.6027C40.2506 94.7103 40.4701 93.81 40.8138 92.9425C41.4293 91.1659 42.3144 89.4943 43.4377 87.9865" fill="#141414"/>
<path d="M47.8562 91.8045C48.2021 92.8498 48.4237 93.9322 48.5165 95.0294C48.6002 95.5437 48.5843 96.0406 48.6317 96.5429C48.628 97.0395 48.6343 97.5358 48.6503 98.032C48.6159 98.5257 48.5909 99.0225 48.5755 99.519C48.5062 100.019 48.5064 100.516 48.4016 101.027C48.2661 102.121 48.0003 103.195 47.6098 104.226C46.847 103.364 46.2927 102.337 45.9898 101.227C45.8329 100.698 45.7158 100.159 45.6393 99.6125C45.5981 99.0675 45.568 98.5214 45.5485 97.9743C45.5904 97.4278 45.6437 96.8828 45.709 96.3392C45.8065 95.7967 45.9444 95.2623 46.1216 94.7405C46.4691 93.6437 47.0623 92.6406 47.8558 91.8077" fill="#141414"/>
<path d="M53.4761 97.1992C53.9545 97.6785 54.3548 98.2295 54.6635 98.8322C54.7909 99.069 54.9017 99.3145 54.9942 99.567C55.0552 99.8124 55.1229 100.055 55.1978 100.296C55.2204 100.546 55.2499 100.795 55.2869 101.047C55.2971 101.315 55.2876 101.584 55.2594 101.852C55.2005 102.527 55.035 103.189 54.7697 103.813C54.0533 103.631 53.4183 103.215 52.9642 102.632C52.7587 102.376 52.5836 102.097 52.4425 101.8C52.3372 101.501 52.2393 101.196 52.1494 100.89C52.1177 100.57 52.0959 100.252 52.0829 99.934C52.1013 99.6074 52.1588 99.284 52.2537 98.971C52.4558 98.2621 52.8853 97.6395 53.4761 97.1992Z" fill="#141414"/>
<path d="M49.9417 81.7209C50.4445 81.9655 50.9148 82.2722 51.3413 82.6337C51.4896 82.7583 51.6267 82.8956 51.7507 83.0445C51.8399 83.1923 51.9334 83.3362 52.0304 83.4744C52.0806 83.6364 52.1347 83.7983 52.1985 83.9586C52.2391 84.1479 52.2619 84.3406 52.2677 84.534C52.2889 85.0942 52.2377 85.6547 52.1146 86.2015C51.501 86.3549 50.8519 86.2645 50.3036 85.9494C50.0713 85.8187 49.8595 85.6547 49.6745 85.4629C49.5231 85.2576 49.3777 85.0468 49.2405 84.8292C49.155 84.586 49.0805 84.3405 49.0145 84.0941C48.978 83.8298 48.981 83.5615 49.0233 83.2981C49.1152 82.673 49.4446 82.1073 49.9427 81.7188" fill="#141414"/>
<path d="M152.443 44.2694C153.274 42.6392 154.266 41.096 155.404 39.663C155.931 38.9314 156.531 38.2761 157.088 37.5832L158.875 35.6085L160.763 33.7317C161.434 33.1419 162.054 32.5064 162.761 31.9522C164.142 30.7502 165.639 29.6902 167.232 28.7883C166.535 30.4921 165.633 32.1043 164.546 33.5895C164.046 34.3471 163.457 35.0237 162.908 35.7389L161.117 37.7518L159.186 39.6285C158.498 40.2118 157.846 40.8298 157.113 41.3644C155.679 42.5171 154.111 43.4924 152.443 44.2694Z" fill="#141414"/>
<path d="M149.099 40.5643C149.086 39.4396 149.267 38.3212 149.634 37.2583C149.795 36.7556 149.983 36.2619 150.199 35.7798L150.913 34.3881L151.771 33.0805C152.086 32.6567 152.424 32.2499 152.782 31.8623C152.962 31.6671 153.149 31.474 153.344 31.2896C153.51 31.1201 153.691 30.9672 153.886 30.8326C153.946 30.7935 154.009 30.7597 154.074 30.732L154.114 30.7109L154.134 30.6987L154.144 30.6925L154.149 30.6882C154.12 30.696 154.406 30.6191 154.285 30.6524C154.267 30.65 154.19 30.709 154.238 30.6629C154.295 30.5603 154.182 30.2224 153.889 30.3451C153.869 30.1862 154.053 30.0032 154.254 29.9703C154.362 29.9477 154.473 29.947 154.581 29.9681C154.689 29.9894 154.792 30.0321 154.883 30.0938C155.063 30.2543 155.198 30.4603 155.272 30.6905C155.346 30.9208 155.356 31.1666 155.303 31.4023C155.239 31.8012 155.162 32.0583 155.1 32.3168C155.038 32.5752 154.957 32.8359 154.874 33.089C154.712 33.592 154.524 34.0861 154.309 34.5689L153.591 35.9582L152.726 37.2585C152.412 37.6824 152.075 38.0886 151.715 38.4756C150.97 39.3172 150.084 40.0238 149.098 40.5638" fill="#141414"/>
<path d="M144.661 44.5403C144.555 43.0383 144.553 41.5306 144.654 40.0282C144.658 39.3005 144.755 38.5977 144.783 37.8844C144.857 37.1785 144.914 36.4726 144.955 35.7664C145.044 35.0654 145.115 34.3597 145.167 33.6496C145.274 32.944 145.304 32.2357 145.434 31.5196C145.61 30.0237 145.891 28.5419 146.274 27.0854C147.078 28.4275 147.615 29.9128 147.855 31.4591C147.985 32.217 148.068 32.9822 148.103 33.7503C148.101 34.5152 148.08 35.2821 148.04 36.0511C147.937 36.8125 147.816 37.5696 147.676 38.3225C147.501 39.071 147.279 39.8078 147.012 40.5285C146.493 42.004 145.694 43.3657 144.66 44.5391" fill="#141414"/>
<path d="M82.7983 58.8647C83.4944 59.4008 83.9606 59.7533 84.3691 60.0876C84.601 60.2373 84.7416 60.4164 84.9359 60.5592C85.0876 60.7261 85.2493 60.8837 85.4202 61.0308C85.5565 61.2106 85.7037 61.3819 85.8609 61.5437C85.9874 61.7485 86.159 61.8964 86.2936 62.1401C86.6035 62.5661 86.9187 63.0564 87.4078 63.7911C87.0853 64.0333 86.7131 64.2009 86.318 64.2819C85.9229 64.3629 85.5146 64.3553 85.1229 64.2595C84.747 64.1791 84.385 64.0437 84.0487 63.8575C83.7351 63.6425 83.4369 63.4061 83.1558 63.1501C82.9198 62.8516 82.7046 62.5372 82.5113 62.2094C82.3486 61.862 82.2377 61.4927 82.1823 61.1132C82.1138 60.7161 82.1332 60.309 82.2397 59.9204C82.3459 59.5319 82.5372 59.1712 82.7983 58.8647Z" fill="#141414"/>
<path d="M129.013 40.128C129.693 39.7286 130.438 39.4507 131.214 39.3069C131.545 39.2377 131.88 39.1905 132.217 39.1656C132.543 39.1671 132.868 39.1634 133.192 39.1542C133.516 39.1996 133.835 39.2364 134.16 39.2684C134.492 39.3313 134.82 39.4154 135.141 39.52C135.897 39.7479 136.608 40.1079 137.239 40.5833C136.7 41.2151 135.997 41.6848 135.208 41.9402C134.854 42.0631 134.489 42.1524 134.118 42.2071C133.753 42.2287 133.386 42.2434 133.018 42.2508C132.654 42.2018 132.288 42.1452 131.93 42.082C131.567 41.9873 131.215 41.8581 130.877 41.6965C130.123 41.3546 129.477 40.8125 129.009 40.1293" fill="#141414"/>
<path d="M135.47 34.4697C135.557 33.8278 135.804 33.2182 136.191 32.6981C136.344 32.484 136.521 32.2867 136.716 32.1097L137.325 31.6757L138.015 31.3882C138.899 31.1422 139.842 31.2162 140.677 31.5969C140.554 32.5064 140.114 33.3433 139.435 33.9604L138.824 34.3909L138.132 34.675C137.878 34.7458 137.617 34.7897 137.354 34.8058C136.707 34.8549 136.059 34.7388 135.47 34.4686" fill="#141414"/>
<path d="M150.512 22.6299C150.785 21.7632 151.264 20.9756 151.908 20.3347C152.197 20.034 152.511 19.7577 152.846 19.5087L153.893 18.8606L155.033 18.3966C155.432 18.2739 155.84 18.1844 156.253 18.129C157.153 17.9875 158.072 18.0693 158.933 18.3669C158.482 19.1244 157.901 19.7962 157.216 20.3513C156.919 20.6047 156.607 20.8402 156.281 21.0565L155.295 21.6286L154.248 22.081C153.882 22.2157 153.507 22.3281 153.127 22.4176C152.274 22.6396 151.39 22.7115 150.512 22.6299Z" fill="#141414"/>
<path d="M166.283 40.9641C166.464 40.2005 166.817 39.4885 167.316 38.8826C167.528 38.6137 167.762 38.3629 168.016 38.1326L168.81 37.5282L169.692 37.0659C170.009 36.9345 170.335 36.8291 170.669 36.7506C171.43 36.5582 172.226 36.5448 172.994 36.7116C172.816 37.4765 172.463 38.1899 171.964 38.7959C171.751 39.0644 171.517 39.3152 171.264 39.546L170.468 40.1457L169.582 40.6054C169.267 40.7372 168.94 40.8422 168.607 40.9198C167.846 41.1129 167.051 41.1279 166.283 40.9641Z" fill="#141414"/>
</g>
<path d="M56.6386 92.9362C56.4676 92.7109 56.316 92.5206 56.1546 92.3129C55.6512 91.6546 55.1652 90.9866 54.652 90.3108C54.6423 90.2934 54.6228 90.2584 54.6034 90.2235C54.5276 90.1283 54.5334 90.0564 54.6285 89.9806C54.7334 89.9223 54.8013 89.8387 54.9062 89.7804C55.9005 89.1816 56.9025 88.5556 57.8968 87.9567C59.2387 87.1188 60.5806 86.2809 61.9322 85.4604C63.1168 84.71 64.2936 83.9868 65.488 83.2538C65.488 83.2538 65.5054 83.2441 65.5229 83.2344C65.8026 83.0788 65.8472 83.0768 65.9853 83.3662C66.6231 84.6363 67.2512 85.889 67.8793 87.1416C67.9085 87.1941 67.9279 87.229 67.9668 87.2989C66.5568 88.0145 65.1372 88.7126 63.7098 89.4379C63.877 89.7797 64.0442 90.1215 64.2192 90.4361C64.5712 91.11 64.9231 91.7839 65.2751 92.4578C65.6076 93.0968 65.9575 93.726 66.2998 94.3824C66.6614 95.0738 67.0328 95.7826 67.412 96.4643C67.6375 96.9109 67.8631 97.3576 68.1062 97.7946C68.145 97.8645 68.1665 97.9441 68.2151 98.0315C68.1374 98.0976 68.0422 98.1734 67.9646 98.2395C67.2461 98.7993 66.5102 99.3689 65.7917 99.9287C65.5742 100.073 65.5567 100.082 65.4129 99.8648C65.2593 99.6298 65.1057 99.3948 64.9521 99.1599C64.3747 98.2452 63.8148 97.3208 63.2276 96.3887C62.2731 94.8371 61.2913 93.2777 60.3192 91.7358C60.2414 91.5959 60.1384 91.493 60.0529 91.3804C59.9868 91.3027 59.9149 91.2969 59.845 91.3358C59.7227 91.4039 59.6003 91.4719 59.4857 91.5128C59.0837 91.7364 58.6895 91.9328 58.2952 92.1292C57.7514 92.3859 57.2174 92.6601 56.6386 92.9362ZM66.9124 82.9421C66.9998 82.8935 67.0523 82.8643 67.1222 82.8254C68.1184 82.2713 69.1341 81.7521 70.1207 81.1805C70.8722 80.7624 71.5869 80.3192 72.3287 79.8837C73.5929 79.1118 74.8669 78.3574 76.1311 77.5856C76.2185 77.537 76.3059 77.4884 76.3933 77.4398C76.5778 77.36 76.605 77.3678 76.7119 77.5601C76.7994 77.7174 76.8869 77.8747 76.9667 78.0592C77.4178 78.9525 77.8689 79.8459 78.3103 80.7217C78.3395 80.7742 78.3687 80.8266 78.4075 80.8965C78.1881 80.9957 77.9861 81.0852 77.7938 81.1921C77.118 81.4994 76.4421 81.8067 75.7585 82.1411C75.1875 82.3901 74.6263 82.6565 74.0475 82.9326C73.5387 83.1699 73.0221 83.4343 72.4958 83.6813C72.4433 83.7105 72.3734 83.7494 72.286 83.798C72.502 84.4331 72.8578 84.9904 73.1184 85.6236C73.2232 85.5652 73.3029 85.5438 73.3806 85.4777C74.4448 84.84 75.4992 84.1848 76.5537 83.5297C76.6411 83.4811 76.711 83.4422 76.7984 83.3936C76.9033 83.3352 76.9946 83.376 77.0257 83.4731C77.086 83.6226 77.1463 83.7722 77.2066 83.9217C77.5315 84.7938 77.8563 85.6658 78.1987 86.5282C78.2901 86.7748 78.2726 86.7845 78.0532 86.8837C77.5521 87.0938 77.0335 87.3135 76.5422 87.5411C75.9265 87.792 75.3031 88.0701 74.6971 88.3385C74.6272 88.3774 74.5748 88.4065 74.4777 88.4377C74.7558 89.0611 75.0319 89.6398 75.3275 90.2535C75.4149 90.2049 75.4945 90.1835 75.5372 90.1369C76.3995 89.5886 77.2345 89.0326 78.0792 88.4941C78.8618 87.9673 79.6269 87.4501 80.4192 86.9408C80.7766 86.7192 80.8038 86.7269 80.9904 87.1037C81.5271 88.1097 82.0463 89.1254 82.5829 90.1313C82.6724 90.3333 82.6646 90.3605 82.4801 90.4403C82.0859 90.6367 81.7091 90.8233 81.3324 91.01C80.2021 91.5701 79.0893 92.1204 77.9862 92.6882C77.5745 92.8943 77.1705 93.0732 76.7685 93.2968C76.4636 93.4893 76.1607 93.7264 75.8655 93.9364C75.2772 94.4009 74.6888 94.8655 74.1082 95.3029C74.048 95.3593 73.9956 95.3884 73.9256 95.4273C73.877 95.3399 73.8207 95.2797 73.7818 95.2098C73.6048 94.8505 73.4181 94.4738 73.2237 94.1242C72.4188 92.7182 71.6313 91.3024 70.8361 89.9139C70.4764 89.2672 70.1264 88.638 69.7589 88.0185C68.9326 86.5329 68.0888 85.0569 67.2624 83.5713C67.1458 83.3615 67.0388 83.1693 66.9124 82.9421ZM85.1978 88.9744C82.6296 84.9332 80.0536 80.9192 77.4952 76.8955C77.5903 76.8197 77.6505 76.7634 77.7204 76.7245C78.9536 76.0614 80.1693 75.4081 81.3753 74.7373C81.4278 74.7081 81.5074 74.6867 81.5773 74.6479C81.766 75.0693 81.9721 75.481 82.151 75.885C82.3571 76.2967 82.5458 76.7181 82.7616 77.1473C83.0572 77.761 83.3703 78.365 83.6833 78.969C83.9186 79.4332 84.1442 79.8798 84.3697 80.3265C84.605 80.7907 84.8228 81.2645 85.0581 81.7287C85.1281 81.8957 85.2331 82.0433 85.3031 82.2103C85.587 82.7619 85.8709 83.3134 86.1626 83.8378C86.1917 83.8902 86.2209 83.9426 86.2598 84.0126C86.4074 83.9076 86.52 83.8221 86.6598 83.7443C87.0094 83.5498 87.3687 83.3729 87.726 83.1513C88.1008 82.9199 88.4833 82.6613 88.8562 82.3853C89.3514 82.0412 89.8543 81.6699 90.3398 81.3084C90.5825 81.1276 90.8427 80.9371 91.0854 80.7563C91.1204 80.7369 91.1553 80.7174 91.2253 80.6785C91.9834 81.8359 92.7242 83.003 93.4823 84.1604C93.2377 84.2965 93.0376 84.4306 92.8182 84.5298C91.6976 85.1073 90.577 85.6849 89.4467 86.2449C88.9476 86.4996 88.431 86.7641 87.9222 87.0013C87.6251 87.1666 87.3454 87.3221 87.0775 87.5399C86.5143 87.9675 85.9337 88.4049 85.3803 88.85C85.3279 88.8792 85.2755 88.9083 85.1978 88.9744ZM87.5654 71.4545C87.6528 71.4059 87.7052 71.3767 87.7751 71.3378C88.7714 70.7837 89.7871 70.2645 90.7736 69.6929C91.5252 69.2748 92.2398 68.8316 92.9817 68.3961C94.2459 67.6242 95.5198 66.8698 96.7841 66.098C96.8715 66.0494 96.9589 66.0008 97.0462 65.9522C97.2307 65.8724 97.2579 65.8802 97.3649 66.0725C97.4524 66.2298 97.5399 66.3871 97.6196 66.5716C98.0707 67.4649 98.5219 68.3583 98.9633 69.2341C98.9925 69.2866 99.0216 69.339 99.0605 69.4089C98.841 69.5081 98.6391 69.5976 98.4468 69.7045C97.7709 70.0118 97.0951 70.319 96.4115 70.6535C95.8405 70.9025 95.2792 71.1689 94.7005 71.445C94.1916 71.6823 93.675 71.9467 93.1487 72.1937C93.0963 72.2229 93.0264 72.2617 92.939 72.3104C93.1549 72.9455 93.5107 73.5028 93.7713 74.1359C93.8762 74.0776 93.9558 74.0562 94.0335 73.9901C95.0977 73.3524 96.1522 72.6972 97.2067 72.0421C97.2941 71.9934 97.364 71.9546 97.4514 71.906C97.5563 71.8476 97.6476 71.8884 97.6787 71.9855C97.739 72.135 97.7993 72.2846 97.8596 72.4341C98.1844 73.3062 98.5093 74.1782 98.8516 75.0405C98.9431 75.2872 98.9256 75.2969 98.7061 75.3961C98.205 75.6062 97.6865 75.8259 97.1951 76.0535C96.5795 76.3044 95.956 76.5825 95.3501 76.8509C95.2802 76.8898 95.2277 76.9189 95.1306 76.95C95.4087 77.5735 95.6849 78.1522 95.9805 78.7659C96.0678 78.7173 96.1475 78.6959 96.1902 78.6493C97.0524 78.101 97.8874 77.545 98.7322 77.0065C99.5148 76.4797 100.28 75.9625 101.072 75.4532C101.43 75.2316 101.457 75.2393 101.643 75.6161C102.18 76.6221 102.699 77.6378 103.236 78.6437C103.325 78.8457 103.318 78.8729 103.133 78.9527C102.739 79.1491 102.362 79.3357 101.985 79.5224C100.855 80.0824 99.7422 80.6328 98.6391 81.2006C98.2274 81.4067 97.8234 81.5856 97.4214 81.8092C97.1166 82.0017 96.8136 82.2388 96.5185 82.4488C95.9301 82.9133 95.3417 83.3779 94.7611 83.8153C94.701 83.8716 94.6485 83.9008 94.5786 83.9397C94.53 83.8523 94.4736 83.7921 94.4347 83.7222C94.2578 83.3629 94.0711 82.9862 93.8767 82.6366C93.0717 81.2306 92.2843 79.8148 91.4891 78.4263C91.1294 77.7796 90.7794 77.1504 90.4119 76.5309C89.5856 75.0453 88.7417 73.5693 87.9154 72.0837C87.7987 71.8739 87.6918 71.6817 87.5654 71.4545ZM111.685 63.1652C110.72 64.0223 109.78 64.8426 108.823 65.6725C108.327 65.3989 107.807 65.3681 107.268 65.347C106.919 65.3355 106.583 65.4308 106.256 65.5437C105.833 65.6876 105.439 65.884 105.085 66.195C104.447 66.7335 104.183 67.4523 104.21 68.2837C104.224 68.5965 104.275 68.9345 104.343 69.2627C104.431 69.626 104.598 69.9678 104.818 70.2804C104.971 70.5154 105.117 70.7775 105.288 71.0028C105.527 71.3504 105.766 71.698 106.056 71.9718C106.932 72.7658 107.993 73.0683 109.174 72.4344C109.873 72.0456 110.314 71.4801 110.568 70.7437C110.663 70.462 110.731 70.1725 110.798 69.883C110.822 69.8014 110.828 69.7295 110.831 69.613C110.245 69.9163 109.73 70.2255 109.169 70.4919C108.625 70.7486 108.103 71.0849 107.466 71.2562C106.894 70.4755 106.323 69.6949 105.741 68.8968C105.87 68.7569 112.224 65.2454 112.673 65.0645C113.996 66.8685 115.347 68.6802 116.681 70.5017C116.63 70.5755 116.58 70.6493 116.52 70.7057C116.017 71.2829 115.514 71.8601 115.011 72.4373C114.976 72.4567 114.969 72.4839 114.961 72.5111C114.848 72.5967 114.804 72.5986 114.701 72.4957C114.458 72.2647 114.205 72.0162 113.962 71.7851C113.935 71.7774 113.908 71.7696 113.898 71.7521C113.645 72.1214 113.438 72.4886 113.193 72.8306C112.139 74.3095 110.76 75.3281 108.999 75.7816C107.468 76.1981 106.025 75.9482 104.69 75.1116C103.778 74.5429 103.046 73.7604 102.426 72.8924C101.93 72.207 101.531 71.4904 101.21 70.7077C100.569 69.1423 100.391 67.5475 100.891 65.8961C101.219 64.7984 101.85 63.8753 102.685 63.1134C104.149 61.7956 105.862 61.2547 107.801 61.3664C108.824 61.4377 109.736 61.8005 110.591 62.309C110.94 62.5264 111.263 62.7361 111.562 63.0273C111.609 63.07 111.628 63.105 111.685 63.1652ZM110.938 58.065C111.025 58.0164 111.113 57.9678 111.183 57.9289C112.249 57.3359 113.298 56.7526 114.374 56.1771C115.257 55.7084 116.158 55.2301 117.139 54.9363C117.953 54.7125 118.769 54.5334 119.594 54.5776C120.591 54.6412 121.448 54.9885 122.109 55.7652C122.534 56.2836 122.766 56.8643 122.857 57.5228C123.033 58.6611 122.765 59.7024 122.263 60.6915C122.204 60.7925 122.129 60.9033 122.08 61.0218C123.744 61.9961 125.527 62.6518 127.315 63.3968C126.634 64.5996 125.832 65.7093 124.912 66.7704C124.051 66.3337 123.215 65.8602 122.38 65.3866C121.544 64.913 120.734 64.4026 119.956 63.828C119.553 64.2128 119.184 64.5782 118.797 64.9533C118.906 65.1902 119.015 65.4272 119.114 65.6466C119.527 66.4701 119.912 67.2858 120.297 68.1014C120.503 68.5132 120.503 68.5132 120.157 68.797C119.499 69.3004 118.841 69.8039 118.182 70.3073C118.14 70.354 118.087 70.3831 118.035 70.4123C117.996 70.3424 117.949 70.2997 117.92 70.2472C117.59 69.653 117.249 69.0413 116.919 68.447C116.357 67.4779 115.795 66.5089 115.233 65.5398C114.603 64.4484 113.981 63.3298 113.351 62.2384C112.896 61.4616 112.431 60.6673 111.976 59.8905C111.646 59.2963 111.308 58.7292 110.959 58.1447C110.95 58.1272 110.958 58.1 110.938 58.065ZM115.987 59.0784C116.431 59.999 116.864 60.9021 117.317 61.8401C117.488 61.6535 117.626 61.5311 117.772 61.3814C118.209 60.9325 118.562 60.4156 118.777 59.8152C118.888 59.4791 118.919 59.1644 118.814 58.8109C118.697 58.3952 118.337 58.1604 117.928 58.2052C117.838 58.2092 117.731 58.2228 117.634 58.254C117.05 58.3961 116.527 58.7324 115.987 59.0784ZM125.545 49.7345C126.759 49.2424 127.955 48.76 129.124 48.2699C132.943 51.4324 136.725 54.5697 140.544 57.7322C139.606 58.5971 138.683 59.4076 137.736 60.2551C137.023 59.7135 136.337 59.1796 135.614 58.6205C135.338 58.8654 135.08 59.1006 134.804 59.3455C133.892 60.1735 133.006 61.0093 132.066 61.8295C131.963 61.9325 131.905 62.0336 131.948 62.1928C131.993 62.3968 132.028 62.5832 132.063 62.7697C132.09 62.9834 132.022 63.067 131.828 63.1292C130.882 63.4036 129.954 63.6683 129.008 63.9426C128.946 63.9543 128.866 63.9757 128.777 63.9797C127.638 59.2579 126.544 54.5341 125.545 49.7345ZM130.571 54.6971C130.553 54.7069 130.536 54.7166 130.518 54.7263C130.725 55.7558 130.922 56.7678 131.13 57.8419C131.691 57.3696 132.235 56.9069 132.796 56.4346C132.026 55.8328 131.304 55.2737 130.571 54.6971ZM138.507 42.8452C138.635 42.9112 138.754 42.9597 138.864 43.0354C140.848 44.3806 142.842 45.7432 144.826 47.0884C144.881 47.1039 144.918 47.1292 145.019 47.1874C144.685 44.6952 144.354 42.2478 144.03 39.7731C144.354 39.6156 144.661 39.4678 144.985 39.3103C145.995 38.863 146.978 38.4079 147.988 37.9606C148.163 37.8634 148.365 37.7739 148.549 37.6942C148.716 37.6242 148.743 37.6319 148.831 37.7892C148.957 38.0165 149.076 38.2709 149.185 38.5078C149.729 39.6925 150.274 40.8772 150.818 42.0619C151.285 43.1068 151.769 44.1419 152.236 45.1868C152.691 46.1695 153.156 47.1697 153.603 48.1796C153.918 48.8282 154.216 49.4866 154.504 50.1275C154.543 50.1974 154.581 50.2673 154.603 50.347C154.685 50.5762 154.659 50.6131 154.43 50.6948C153.902 50.8971 153.364 51.0819 152.826 51.2667C152.42 51.401 151.997 51.5449 151.6 51.6966C151.538 51.7083 151.494 51.7103 151.414 51.7317C150.527 50.3024 149.631 48.8557 148.735 47.4089C148.717 47.4186 148.717 47.4186 148.7 47.4283C148.788 48.6152 148.903 49.8098 149.001 51.0142C148.628 51.2902 148.238 51.576 147.865 51.852C147.51 52.1183 147.162 52.3574 146.807 52.6237C146.676 52.719 146.542 52.7249 146.404 52.6414C145.305 52.0631 144.215 51.5023 143.115 50.9239C142.987 50.8579 142.858 50.792 142.678 50.7551C142.717 50.8251 142.728 50.8872 142.767 50.9571C143.228 51.868 143.679 52.7613 144.14 53.6721C144.385 54.1538 144.62 54.6179 144.848 55.1093C144.955 55.3016 144.947 55.3288 144.792 55.4609C143.97 56.1238 143.149 56.7866 142.328 57.4494C142.293 57.4689 142.275 57.4786 142.223 57.5078C142.157 57.4301 142.1 57.3699 142.052 57.2825C141.859 56.9776 141.692 56.6358 141.49 56.3134C141.113 55.6765 140.718 55.0492 140.323 54.422C140.063 53.9947 139.81 53.5403 139.54 53.0956C139.289 52.6858 139.021 52.2858 138.76 51.8586C138.673 51.7013 138.568 51.5537 138.48 51.3964C138.229 50.9866 137.996 50.5672 137.745 50.1574C137.399 49.6175 137.071 49.068 136.724 48.5281C136.483 48.1358 136.27 47.7513 136.028 47.359C135.712 46.8716 135.412 46.3745 135.122 45.8948C134.998 45.7122 134.909 45.5103 134.792 45.3005C136.027 44.4762 137.272 43.6694 138.507 42.8452Z" fill="black"/>
</g>
<defs>
<clipPath id="clip0_178_5418">
<rect width="200.611" height="72.4872" fill="white" transform="translate(0 96.9363) rotate(-28.8949)"/>
</clipPath>
</defs>
</svg>
