<svg width="257" height="160" viewBox="0 0 257 160" fill="none" xmlns="http://www.w3.org/2000/svg">
<g clip-path="url(#clip0_178_5379)">
<mask id="mask0_178_5379" style="mask-type:luminance" maskUnits="userSpaceOnUse" x="0" y="0" width="257" height="159">
<path d="M256.382 76.3329L27.6235 0L0.0757515 82.5566L228.834 158.89L256.382 76.3329Z" fill="white"/>
</mask>
<g mask="url(#mask0_178_5379)">
<path d="M237.424 114.654C238.038 112.896 238.668 111.149 239.308 109.405C238.362 109.86 237.392 110.261 236.401 110.607C236.035 110.737 235.643 110.777 235.258 110.724C217.41 117.166 195.525 112.364 177.704 108.177C155.445 102.944 133.486 96.5044 111.925 88.8871C95.1574 82.9663 78.358 76.5798 62.1581 69.2252C48.3094 62.9412 34.3623 55.4361 24.0616 43.9928C22.8069 42.6259 21.6539 41.1686 20.6113 39.6336C18.9101 45.5157 17.0958 51.3548 15.1683 57.1509C15.4484 57.6051 15.6222 58.1166 15.6766 58.6477C16.6627 66.8323 27.3846 74.0186 33.6881 78.2776C41.0886 83.1419 48.9036 87.3435 57.0422 90.8343C74.191 98.4483 91.8888 105.164 109.601 111.334C130.029 118.466 150.813 124.532 171.871 129.506C182.131 131.877 192.533 133.59 203.012 134.634C211.152 135.478 228.917 138.56 232.343 128.092C232.49 127.621 232.774 127.204 233.158 126.895C234.111 122.705 236.063 118.553 237.425 114.656" fill="#B084CB"/>
<path d="M37.6068 46.6028C42.6845 50.5294 48.0983 54.0008 53.7853 56.9774C65.6281 63.3345 78.2603 68.0912 90.7424 73.0145C106.522 79.2402 122.459 85.0209 138.657 90.07C154.189 94.9119 169.933 99.3393 185.837 102.792C200.739 106.027 218.6 109.724 233.849 106.794C234.008 106.684 234.18 106.592 234.359 106.521C237.885 105.153 242.211 103.125 241.768 98.6258C241.341 94.2876 236.829 90.1953 233.851 87.2899C228.031 81.6158 221.217 76.9922 214.17 72.9796C198.18 63.8778 180.12 58.3316 162.859 52.1581C132.384 41.2575 101.109 31.8453 68.9181 27.7319C60.7252 26.6662 52.4808 26.0395 44.2208 25.8545C39.4379 25.7597 29.2868 24.951 25.8969 29.5524C22.175 34.6045 34.0468 43.7827 37.6068 46.6028Z" fill="#DEA9FF"/>
<path d="M24.6584 25.0072C23.3733 29.8797 22.0192 34.7631 20.6073 39.6331C21.651 41.1677 22.804 42.6246 24.0573 43.9931C34.3603 55.4371 48.3051 62.9415 62.1526 69.2283C78.3534 76.5815 95.1516 82.9676 111.92 88.8903C133.481 96.5064 155.44 102.945 177.7 108.179C195.521 112.368 217.406 117.168 235.253 110.725C235.638 110.779 236.031 110.739 236.398 110.609C237.388 110.262 238.359 109.86 239.305 109.405C240.961 104.895 242.714 100.421 244.565 95.9827C244.677 95.6772 244.867 95.4061 245.115 95.1955C245.363 94.9849 245.662 94.8422 245.982 94.7811C244.61 91.1302 241.811 87.8128 239.313 85.1696C227.466 72.6349 211.551 64.4554 195.712 58.1419C159.858 43.8509 123.06 30.1767 85.0453 22.9343C75.754 21.1556 66.371 19.8933 56.94 19.1535C48.7487 18.5185 40.0057 17.6878 31.8645 19.1918C26.6238 20.1609 20.2992 22.5291 18.2863 27.9972C17.7048 29.5906 17.5412 31.3063 17.8111 32.9808C18.9961 29.9481 20.1985 26.931 21.4185 23.9294C21.574 23.5154 21.8839 23.1778 22.2831 22.9876C22.6822 22.7973 23.1396 22.7692 23.5591 22.9092C23.9786 23.0492 24.3274 23.3463 24.5324 23.7381C24.7373 24.13 24.7824 24.586 24.6581 25.0104M25.8964 29.5563C29.2863 24.9549 39.4372 25.7619 44.2202 25.8584C52.48 26.0409 60.7241 26.6659 68.9168 27.7305C101.108 31.8422 132.382 41.2569 162.858 52.1567C180.121 58.332 198.176 63.8757 214.169 72.9782C221.216 76.9886 228.032 81.611 233.85 87.2886C236.828 90.194 241.339 94.285 241.766 98.6244C242.211 103.128 237.882 105.154 234.358 106.519C234.178 106.591 234.007 106.682 233.848 106.792C218.605 109.725 200.739 106.028 185.836 102.791C169.931 99.3381 154.188 94.9107 138.656 90.0684C122.457 85.02 106.523 79.2394 90.7412 73.0129C78.261 68.0886 65.6239 63.3348 53.7855 56.9767C48.0985 54.0001 42.6848 50.5283 37.607 46.6021C34.0458 43.7856 22.175 34.6045 25.8969 29.5523" fill="#1C1C1C"/>
<path d="M25.5107 81.2522C32.7441 86.4195 40.3862 90.9895 48.361 94.9168C68.7929 104.72 90.459 112.666 111.918 119.874C135.143 127.673 159.094 134.922 183.279 139.042C194.556 140.961 205.328 142.195 216.63 140.816C222.763 140.067 230.196 138.611 234.603 134.041C234.345 134.059 234.085 134.023 233.84 133.936C233.596 133.849 233.373 133.712 233.185 133.533C232.996 133.355 232.847 133.14 232.746 132.901C232.645 132.662 232.595 132.405 232.599 132.146C232.553 130.379 232.74 128.614 233.155 126.895C232.771 127.205 232.487 127.623 232.34 128.094C228.914 138.562 211.149 135.479 203.009 134.635C192.531 133.592 182.131 131.879 171.872 129.506C150.815 124.532 130.03 118.467 109.602 111.337C91.8907 105.165 74.1926 98.4505 57.044 90.8374C48.9051 87.346 41.0903 83.1437 33.6901 78.2791C27.3875 74.0197 16.6645 66.8345 15.6794 58.6466C15.6249 58.116 15.4511 57.6044 15.1711 57.1502C14.8588 58.0859 14.5632 59.0291 14.2437 59.9591C13.0438 63.4458 7.73403 61.7014 8.73615 58.2359C8.48506 58.8426 8.39568 59.5044 8.47681 60.1565C9.47465 68.4875 16.4508 74.842 22.9148 79.428C23.7801 80.0428 24.6457 80.65 25.5107 81.2522Z" fill="#1C1C1C"/>
<path d="M14.2403 59.9589C14.559 59.0286 14.854 58.0851 15.1677 57.15C17.1008 51.3666 18.9151 45.5275 20.6106 39.6326C22.0186 34.7621 23.3735 29.8789 24.6572 25.0052C24.7815 24.581 24.7364 24.1252 24.5316 23.7335C24.3267 23.3418 23.978 23.0449 23.5587 22.905C23.1395 22.7651 22.6823 22.7931 22.2833 22.9833C21.8843 23.1735 21.5746 23.5109 21.4192 23.9247C20.1974 26.9234 18.9949 29.9406 17.8117 32.9761C14.5711 41.2808 11.4932 49.692 8.75893 58.1298C8.74669 58.1665 8.74596 58.1985 8.73533 58.2353C7.7331 61.7012 13.0429 63.4455 14.2403 59.9589Z" fill="#1C1C1C"/>
<path d="M244.567 95.9846C242.711 100.424 240.958 104.898 239.307 109.407C238.667 111.151 238.036 112.898 237.422 114.656C236.06 118.555 234.108 122.707 233.155 126.895C232.74 128.614 232.553 130.379 232.599 132.146C232.595 132.405 232.645 132.662 232.745 132.901C232.846 133.14 232.995 133.355 233.184 133.533C233.372 133.711 233.595 133.848 233.839 133.936C234.083 134.023 234.343 134.059 234.601 134.04C234.877 134.02 235.144 133.942 235.388 133.812C235.631 133.682 235.845 133.503 236.015 133.285C239.759 128.687 240.889 121.965 242.66 116.404C244.684 110.044 246.52 103.656 248.161 97.1862C248.299 96.7156 248.25 96.2098 248.023 95.775C247.796 95.3402 247.41 95.0104 246.944 94.8552C246.479 94.6999 245.972 94.7314 245.529 94.9428C245.087 95.1542 244.744 95.5292 244.572 95.9885" fill="#1C1C1C"/>
<path d="M27.5126 46.7964C27.7291 48.9895 27.7017 51.1997 27.4309 53.3867C27.3499 54.4694 27.1379 55.52 26.9877 56.5864L26.3407 59.7358L25.4983 62.8394C25.1487 63.8574 24.8673 64.8921 24.4484 65.8939C23.7023 67.9671 22.7259 69.9502 21.5376 71.8061C21.318 69.6136 21.3436 67.4036 21.614 65.2168C21.6929 64.1351 21.9107 63.0848 22.0581 62.0191L22.7076 58.8721L23.5545 55.77C23.9026 54.7515 24.1891 53.7165 24.6044 52.7155C25.3525 50.6434 26.3273 48.6601 27.5108 46.8018" fill="#141414"/>
<path d="M41.157 53.1877C41.2302 55.7865 41.0595 58.3867 40.6474 60.9535C40.4944 62.2297 40.2154 63.4637 39.9954 64.717L39.1411 68.4255L38.0934 72.0849C37.6754 73.2875 37.3256 74.5076 36.8386 75.6936C35.9544 78.1397 34.8403 80.4965 33.5113 82.7319C33.4288 80.1437 33.5949 77.5537 34.0073 74.997C34.1588 73.7204 34.4455 72.4784 34.6641 71.2194L35.5278 67.4902L36.5887 63.8135C37.0066 62.606 37.363 61.3813 37.8475 60.1928C38.7271 57.7573 39.8367 55.4107 41.1611 53.1854" fill="#141414"/>
<path d="M52.6828 65.2295C52.7151 66.9854 52.5644 68.7405 52.2338 70.4653C52.1232 71.3109 51.8985 72.1112 51.7416 72.9344C51.5264 73.7403 51.3212 74.545 51.1276 75.3536C50.8721 76.1436 50.6272 76.9379 50.3924 77.736C50.0917 78.5197 49.8701 79.3206 49.5208 80.099C48.9022 81.7435 48.1117 83.3181 47.1627 84.7967C46.7013 83.0646 46.5353 81.2668 46.6721 79.4794C46.7216 78.6081 46.8175 77.7403 46.959 76.8796C47.1391 76.0302 47.33 75.1836 47.5321 74.3398C47.8029 73.5138 48.0843 72.6922 48.3772 71.8747C48.7053 71.067 49.0763 70.2768 49.489 69.5091C50.3076 67.9144 51.3872 66.4677 52.6828 65.2295Z" fill="#141414"/>
<path d="M65.3466 68.8079C65.7274 70.4469 65.8721 72.1319 65.7768 73.8118C65.78 74.6308 65.6536 75.4243 65.5864 76.2291L65.1927 78.6047L64.6008 80.9385C64.3346 81.7014 64.136 82.4777 63.8008 83.2286C63.211 84.806 62.3967 86.29 61.3825 87.635C60.9992 85.9952 60.8528 84.3092 60.9481 82.6281C60.9444 81.8074 61.0733 81.0111 61.139 80.2094L61.5389 77.8358L62.134 75.5056C62.3971 74.7415 62.6008 73.9654 62.9338 73.2154C63.5251 71.6392 64.3371 70.1549 65.3462 68.807" fill="#141414"/>
<path d="M87.7197 76.913C87.6214 79.25 87.3361 81.5755 86.8664 83.8669C86.6894 85.0022 86.3941 86.0997 86.1724 87.2165L85.3571 90.5208L84.4271 93.7977C84.0604 94.8762 83.7733 95.9748 83.3613 97.0487C82.6286 99.2709 81.7159 101.429 80.6325 103.503C80.2892 101.161 80.2483 98.7836 80.512 96.4308C80.5905 95.261 80.8185 94.1205 80.9874 92.9675L81.752 89.5636L82.7888 86.2327C83.2137 85.1478 83.5893 84.0465 84.1019 82.9928C85.0446 80.8218 86.2614 78.7801 87.7224 76.9179" fill="#141414"/>
<path d="M118.652 87.864C118.755 89.8192 118.616 91.7794 118.237 93.7004C118.102 94.6504 117.839 95.5582 117.639 96.4866L116.84 99.206L115.844 101.866C115.446 102.728 115.117 103.613 114.653 104.454C113.803 106.217 112.736 107.867 111.477 109.366C111.371 107.411 111.509 105.451 111.888 103.532C112.022 102.581 112.29 101.675 112.49 100.746L113.293 98.0287L114.287 95.3748C114.682 94.5112 115.018 93.6281 115.482 92.7876C116.332 91.0252 117.396 89.3747 118.652 87.8741" fill="#141414"/>
<path d="M145.531 92.4391C145.228 95.1528 144.768 97.8467 144.151 100.507C143.899 101.833 143.539 103.114 143.26 104.42C142.918 105.709 142.593 107.001 142.284 108.297C141.916 109.577 141.564 110.862 141.228 112.152C140.829 113.429 140.516 114.724 140.081 115.999C139.309 118.618 138.382 121.189 137.303 123.698C136.943 120.954 136.916 118.176 137.223 115.426C137.324 114.05 137.579 112.71 137.783 111.354C138.064 110.015 138.361 108.68 138.674 107.347C139.058 106.032 139.459 104.723 139.877 103.421C140.366 102.14 140.809 100.847 141.396 99.6019C142.484 97.0577 143.874 94.6532 145.535 92.4406" fill="#141414"/>
<path d="M166.845 100.171C166.785 102.612 166.525 105.044 166.069 107.443C165.899 108.634 165.608 109.788 165.386 110.959L164.564 114.43L163.61 117.866C163.233 118.998 162.932 120.148 162.509 121.273C161.748 123.594 160.797 125.848 159.665 128.012C159.371 125.566 159.37 123.093 159.661 120.646C159.753 119.433 159.991 118.244 160.17 117.043L160.949 113.496L161.987 110.017C162.409 108.878 162.78 107.726 163.287 106.618C164.215 104.336 165.411 102.171 166.848 100.17" fill="#141414"/>
<path d="M192.761 109.442C192.831 111.787 192.655 114.133 192.237 116.443C192.084 117.589 191.799 118.701 191.578 119.828L190.718 123.152L189.665 126.423C189.245 127.494 188.894 128.583 188.407 129.634C187.522 131.808 186.41 133.883 185.089 135.825C185.015 133.479 185.189 131.132 185.606 128.823C185.759 127.675 186.048 126.565 186.267 125.439L187.128 122.112L188.187 118.844C188.604 117.773 188.96 116.684 189.445 115.633C190.33 113.459 191.44 111.384 192.756 109.44" fill="#141414"/>
<path d="M207.741 111.3C207.91 113.35 207.836 115.414 207.52 117.447C207.417 118.452 207.184 119.421 207.013 120.407L206.303 123.311L205.4 126.161C205.03 127.09 204.728 128.04 204.292 128.952C203.502 130.851 202.488 132.65 201.271 134.309C201.098 132.258 201.17 130.194 201.487 128.161C201.589 127.155 201.826 126.187 201.995 125.2L202.708 122.298L203.618 119.45C203.985 118.52 204.291 117.571 204.727 116.658C205.517 114.759 206.529 112.961 207.741 111.3Z" fill="#141414"/>
<path d="M219.683 111.521C219.612 113.565 219.356 115.599 218.917 117.598C218.754 118.584 218.478 119.525 218.269 120.494C218.001 121.44 217.744 122.389 217.498 123.339C217.191 124.274 216.894 125.211 216.607 126.15C216.255 127.074 215.983 128.02 215.582 128.936C214.869 130.854 213.979 132.702 212.926 134.456C212.564 132.41 212.504 130.322 212.748 128.259C212.814 127.236 213.031 126.246 213.189 125.239C213.421 124.253 213.664 123.268 213.917 122.286C214.238 121.322 214.57 120.364 214.912 119.41C215.322 118.476 215.682 117.529 216.178 116.632C217.094 114.768 218.275 113.047 219.683 111.521Z" fill="#141414"/>
<path d="M231.671 111.109C231.818 112.918 231.725 114.739 231.394 116.524C231.283 117.399 231.044 118.24 230.866 119.1L230.138 121.608L229.218 124.053C228.843 124.846 228.537 125.661 228.097 126.431C227.291 128.057 226.27 129.568 225.061 130.923C224.909 129.114 225 127.293 225.331 125.508C225.44 124.632 225.687 123.793 225.863 122.934L226.596 120.426L227.52 117.983C227.892 117.189 228.204 116.376 228.645 115.606C229.451 113.98 230.47 112.469 231.675 111.112" fill="#141414"/>
<path d="M234.346 115.792C234.723 117.278 234.866 118.814 234.771 120.345C234.772 121.086 234.648 121.796 234.581 122.525L234.186 124.659L233.598 126.747C233.331 127.427 233.134 128.122 232.801 128.787C232.206 130.201 231.393 131.513 230.393 132.676C230.012 131.19 229.867 129.654 229.962 128.123C229.96 127.381 230.089 126.668 230.154 125.941L230.552 123.809L231.146 121.722C231.411 121.042 231.612 120.346 231.944 119.681C232.539 118.269 233.349 116.957 234.346 115.792Z" fill="#141414"/>
<path d="M66.2564 26.4214C64.8789 27.8723 63.3302 29.1504 61.6448 30.2279C60.8468 30.7993 59.9887 31.2511 59.1599 31.7566L56.5849 33.0977L53.9221 34.2577C53.0032 34.5806 52.1164 34.9664 51.1682 35.2256C49.2679 35.8565 47.2975 36.2523 45.301 36.4045C46.6768 34.9503 48.2254 33.67 49.9122 32.5921C50.71 32.0206 51.5697 31.5743 52.397 31.0633L54.9776 29.7274L57.6357 28.5716C58.5536 28.2468 59.4424 27.8649 60.3889 27.6052C62.2885 26.9746 64.2573 26.5766 66.2524 26.4201" fill="#141414"/>
<path d="M70.9801 31.1619C69.376 32.6837 67.6762 34.1014 65.8911 35.4062C65.0499 36.0876 64.1579 36.6666 63.3089 37.3147C62.4288 37.9134 61.5607 38.5269 60.7043 39.1551C59.815 39.7353 58.9348 40.3318 58.0641 40.9447C57.1559 41.5067 56.3006 42.1411 55.3649 42.6839C53.5139 43.8946 51.5857 44.9825 49.5923 45.9404C50.6047 43.9149 51.9252 42.0588 53.5066 40.4383C54.2537 39.5986 55.1044 38.8814 55.9296 38.1233C56.7996 37.4278 57.6837 36.7481 58.5813 36.0838C59.5208 35.4812 60.4703 34.8959 61.4307 34.3284C62.4279 33.8251 63.4042 33.2851 64.4527 32.8819C66.5279 31.9776 68.7301 31.3977 70.9815 31.1624" fill="#141414"/>
<path d="M71.2052 38.1894C70.5618 39.3484 69.784 40.4276 68.8882 41.4047C68.5011 41.8984 68.0482 42.2897 67.642 42.7414C67.1993 43.1432 66.7649 43.5537 66.3386 43.9726C65.8734 44.3449 65.4131 44.7279 64.9609 45.1194C64.4621 45.4655 64.0215 45.8717 63.4836 46.1956C62.4044 46.9679 61.2367 47.6085 60.0054 48.1037C60.1467 46.7249 60.6031 45.397 61.3395 44.2229C61.6795 43.6527 62.0619 43.1089 62.4829 42.5957C62.932 42.1146 63.3909 41.6424 63.8595 41.1789C64.3776 40.7702 64.9036 40.3729 65.4382 39.9873C65.9981 39.6311 66.5839 39.3172 67.1905 39.0484C68.4451 38.4615 69.8172 38.1685 71.202 38.1917" fill="#141414"/>
<path d="M71.0125 47.5664C70.9784 48.3809 70.817 49.185 70.5351 49.9499C70.4294 50.2559 70.3024 50.5542 70.1543 50.8421C69.9867 51.0964 69.8267 51.3546 69.675 51.6169C69.4719 51.8411 69.2751 52.0706 69.0828 52.3084C68.8533 52.5364 68.6074 52.7475 68.3477 52.9405C67.7014 53.4394 66.9801 53.8331 66.2112 54.1071C65.7886 53.3237 65.6387 52.4223 65.7847 51.5446C65.8437 51.1537 65.948 50.771 66.0954 50.4042C66.2746 50.0667 66.4642 49.7319 66.6621 49.4023C66.9196 49.1134 67.1832 48.8348 67.4545 48.5636C67.7587 48.3134 68.092 48.1006 68.4465 47.9293C69.2391 47.53 70.1407 47.4025 71.0125 47.5664Z" fill="#141414"/>
<path d="M81.8353 31.8107C82.0289 32.4555 82.141 33.1221 82.1687 33.7947C82.1794 34.0276 82.1697 34.2611 82.1389 34.4922C82.0808 34.6918 82.0297 34.892 81.9864 35.0907C81.884 35.2672 81.7848 35.4472 81.6948 35.6345C81.5603 35.8248 81.4083 36.0022 81.2418 36.1651C80.763 36.6409 80.2249 37.0526 79.6403 37.3898C79.0039 36.9716 78.5545 36.3231 78.3863 35.5805C78.3125 35.2682 78.285 34.9469 78.3039 34.6266C78.3621 34.325 78.4302 34.0243 78.511 33.7253C78.6565 33.4513 78.8132 33.1851 78.9776 32.9256C79.1818 32.6777 79.4218 32.4615 79.6896 32.2841C80.318 31.8555 81.0877 31.6858 81.8379 31.8099" fill="#141414"/>
<path d="M198.611 92.0233C200.732 91.4293 202.908 91.0488 205.105 90.8874C206.183 90.7577 207.253 90.7544 208.321 90.6821L211.527 90.6538L214.729 90.7944C215.798 90.9074 216.867 90.9386 217.935 91.1125C220.125 91.3542 222.285 91.8159 224.383 92.4903C222.306 93.2632 220.143 93.7798 217.941 94.0284C216.862 94.2036 215.783 94.2341 214.701 94.3311L211.458 94.3877L208.221 94.2086C207.143 94.0753 206.064 94.0016 204.993 93.7891C202.802 93.4592 200.66 92.8667 198.611 92.0233Z" fill="#141414"/>
<path d="M199.164 86.0401C200.149 85.1107 201.287 84.3585 202.528 83.8171C203.104 83.549 203.695 83.3132 204.298 83.1106L206.113 82.6081L207.971 82.3015C208.603 82.2345 209.239 82.2016 209.874 82.2027C210.194 82.2032 210.517 82.2111 210.839 82.233C211.125 82.2415 211.408 82.2773 211.686 82.3404C211.769 82.361 211.851 82.3893 211.929 82.4249L211.98 82.4427L212.007 82.4509L212.021 82.4548L212.029 82.4555C211.998 82.4362 212.299 82.6262 212.171 82.5461C212.158 82.5282 212.044 82.5088 212.124 82.5136C212.261 82.4803 212.468 82.1042 212.12 81.9453C212.245 81.7978 212.557 81.8118 212.75 81.9625C212.858 82.0395 212.949 82.1373 213.019 82.2504C213.088 82.3633 213.134 82.489 213.153 82.62C213.159 82.9111 213.086 83.1982 212.943 83.4514C212.799 83.7046 212.59 83.9146 212.337 84.0594C211.932 84.3286 211.642 84.47 211.362 84.626C211.083 84.782 210.786 84.9227 210.494 85.0554C209.917 85.3228 209.326 85.5589 208.723 85.763L206.907 86.2605L205.05 86.5553C204.418 86.6224 203.783 86.6551 203.148 86.6529C201.795 86.6793 200.446 86.4714 199.164 86.0385" fill="#141414"/>
<path d="M192.024 85.3537C193.267 84.0343 194.6 82.8024 196.013 81.6668C196.66 81.0764 197.362 80.5892 198.016 80.0318C198.702 79.5215 199.373 78.9963 200.032 78.4564C200.725 77.9635 201.408 77.4507 202.08 76.918C202.791 76.4365 203.443 75.8859 204.184 75.4171C205.652 74.3523 207.193 73.392 208.795 72.5429C208.263 74.3502 207.385 76.0372 206.212 77.5108C205.647 78.2445 205.037 78.9421 204.385 79.5996C203.707 80.2221 203.011 80.8292 202.297 81.421C201.539 81.9508 200.769 82.461 199.989 82.9515C199.183 83.4069 198.35 83.8114 197.493 84.1628C195.764 84.9067 193.906 85.3103 192.023 85.3515" fill="#141414"/>
<path d="M128.876 42.2601C128.969 43.3138 129.037 44.0141 129.074 44.6485C129.131 44.9759 129.087 45.2466 129.119 45.5351C129.095 45.8056 129.088 46.0773 129.097 46.3487C129.049 46.616 129.017 46.8861 129.002 47.1572C128.924 47.4364 128.933 47.7089 128.827 48.0269C128.702 48.6488 128.525 49.3279 128.274 50.3603C127.796 50.2723 127.344 50.0794 126.95 49.7956C126.556 49.5119 126.23 49.1441 125.995 48.7192C125.76 48.3207 125.584 47.8897 125.475 47.44C125.409 46.987 125.375 46.53 125.373 46.0723C125.445 45.6198 125.547 45.1728 125.68 44.7343C125.855 44.3068 126.092 43.9074 126.382 43.5487C126.678 43.1642 127.054 42.8493 127.485 42.6266C127.916 42.4038 128.391 42.2789 128.876 42.2601Z" fill="#141414"/>
<path d="M183.165 67.8977C184.074 68.1748 184.928 68.6078 185.688 69.1775C186.019 69.4139 186.334 69.6719 186.631 69.9501C186.896 70.2402 187.164 70.525 187.437 70.8044C187.661 71.1279 187.888 71.4402 188.126 71.755C188.341 72.1001 188.533 72.4586 188.702 72.8282C189.118 73.684 189.378 74.6066 189.472 75.5534C188.474 75.592 187.484 75.3526 186.614 74.8617C186.216 74.6484 185.84 74.3983 185.489 74.1147C185.172 73.809 184.859 73.4957 184.553 73.1761C184.299 72.8136 184.051 72.4439 183.814 72.0746C183.603 71.6765 183.43 71.2591 183.297 70.828C182.985 69.8813 182.938 68.8672 183.161 67.8955" fill="#141414"/>
<path d="M193.444 69.0006C194.082 68.5532 194.824 68.2754 195.6 68.1932C195.915 68.1548 196.233 68.1498 196.549 68.1783L197.43 68.3637L198.248 68.7401C199.187 69.3224 199.89 70.2174 200.234 71.2674C199.329 71.9004 198.229 72.1937 197.128 72.0954L196.249 71.9055L195.433 71.5246C195.163 71.3576 194.911 71.1624 194.682 70.9425C194.111 70.4101 193.685 69.7413 193.444 68.9991" fill="#141414"/>
<path d="M216.197 72.6617C217.187 72.1961 218.275 71.9777 219.368 72.0254C219.871 72.0362 220.371 72.0887 220.865 72.1822L222.293 72.5808L223.633 73.2114C224.067 73.4645 224.48 73.753 224.866 74.0739C225.725 74.7546 226.403 75.6359 226.841 76.6404C225.802 76.8592 224.733 76.8924 223.683 76.7387C223.216 76.6823 222.753 76.5982 222.297 76.4867L220.985 76.0798L219.731 75.5219C219.313 75.3072 218.908 75.0674 218.518 74.8037C217.626 74.2299 216.841 73.505 216.197 72.6617Z" fill="#141414"/>
<path d="M212.827 101.582C213.651 101.119 214.57 100.851 215.513 100.799C215.924 100.767 216.337 100.77 216.748 100.807L217.931 101.017L219.06 101.421C219.435 101.594 219.795 101.797 220.136 102.029C220.928 102.546 221.589 103.24 222.067 104.056C221.245 104.522 220.325 104.792 219.382 104.844C218.97 104.874 218.557 104.872 218.146 104.835L216.966 104.62L215.836 104.211C215.462 104.039 215.103 103.835 214.762 103.603C213.97 103.087 213.309 102.395 212.827 101.582Z" fill="#141414"/>
</g>
<path d="M79.6434 49.0288C79.6999 48.7085 79.7421 48.4319 79.7914 48.1334C79.9538 47.1943 80.138 46.2624 80.3076 45.3014C80.3147 45.2795 80.3291 45.2358 80.3434 45.1921C80.3645 45.0538 80.4297 45.0026 80.568 45.0237C80.6991 45.0666 80.8227 45.0587 80.9539 45.1017C82.2359 45.4732 83.547 45.83 84.829 46.2015C86.5844 46.6797 88.3398 47.1578 90.088 47.6578C91.6466 48.0715 93.1763 48.4999 94.7278 48.9355C94.7278 48.9355 94.7496 48.9427 94.7715 48.9498C95.1212 49.0644 95.1578 49.1005 95.0214 49.4431C94.4475 50.9735 93.8808 52.482 93.3141 53.9906C93.2926 54.0562 93.2783 54.0999 93.2496 54.1873C91.5444 53.5561 89.8463 52.9031 88.1192 52.2648C87.9613 52.673 87.8034 53.0811 87.6745 53.4745C87.3806 54.298 87.0867 55.1214 86.7928 55.9448C86.5132 56.7245 86.2555 57.5114 85.9687 58.3129C85.6677 59.1582 85.3594 60.0254 85.0802 60.8778C84.8794 61.4171 84.6786 61.9563 84.4996 62.5028C84.471 62.5902 84.4205 62.6705 84.3847 62.7798C84.2682 62.7658 84.1299 62.7447 84.0135 62.7308C82.9798 62.5616 81.9242 62.3853 80.8905 62.2161C80.5992 62.1449 80.5774 62.1378 80.6486 61.8465C80.7269 61.5333 80.8053 61.2201 80.8837 60.907C81.2047 59.7052 81.5476 58.5106 81.8758 57.287C82.4398 55.2693 82.9892 53.2226 83.5314 51.1978C83.5887 51.0229 83.5951 50.8556 83.6233 50.6955C83.6372 50.579 83.586 50.5138 83.4986 50.4852C83.3456 50.4351 83.1926 50.3849 83.0686 50.3201C82.5659 50.1555 82.0922 49.9761 81.6184 49.7968C80.977 49.5383 80.3285 49.3016 79.6434 49.0288ZM106.599 70.8304C106.373 70.7079 106.169 70.5926 105.986 70.4845C105.169 70.0233 104.352 69.562 103.55 69.1298C103.411 69.036 103.338 68.9636 103.316 68.811C102.974 67.4891 102.655 66.1742 102.313 64.8523C102.217 64.4818 102.127 64.0896 102.016 63.6901C102.009 63.6392 101.986 63.5593 101.949 63.4504C101.79 63.5676 101.652 63.692 101.522 63.7945C100.247 64.8049 98.9724 65.8153 97.7122 66.8547C97.5095 67.0303 97.306 67.0604 97.0512 67.0254C95.9814 66.8928 94.9115 66.7602 93.8416 66.6276C93.7689 66.628 93.7033 66.6065 93.6159 66.5778C94.3878 61.1915 95.1669 55.7834 95.9532 50.3534C96.2516 50.4027 96.5501 50.4521 96.8776 50.4867C98.3771 50.7116 99.8694 50.9584 101.369 51.1833C101.624 51.2184 101.653 51.2764 101.531 51.5025C101.509 51.5681 101.495 51.6118 101.48 51.6555C101.196 52.8207 100.889 53.9788 100.611 55.1222C100.276 56.3677 99.9695 57.5985 99.6414 58.8221C99.5845 59.0697 99.5276 59.3173 99.5072 59.601C99.5796 59.5279 99.6448 59.4767 99.7171 59.4036C100.694 58.4893 101.65 57.5679 102.612 56.6246C102.641 56.6099 102.67 56.5952 102.684 56.5515C102.807 56.3981 102.96 56.3755 103.156 56.4399C103.921 56.6905 104.694 56.9192 105.459 57.1698C105.524 57.1912 105.59 57.2127 105.655 57.2342C105.787 58.8264 105.905 60.3895 106.015 61.9745C106.037 61.9817 106.058 61.9888 106.08 61.996C106.13 61.843 106.195 61.719 106.238 61.5879C106.834 60.1374 107.401 58.7016 107.976 57.2439C108.342 56.3474 108.715 55.429 109.082 54.5324C109.139 54.3576 109.218 54.1899 109.253 54.0079C109.325 53.7893 109.383 53.7599 109.587 53.8752C109.857 54.012 110.127 54.1488 110.397 54.2855C111.651 54.9627 112.891 55.6108 114.131 56.2589C114.401 56.3957 114.43 56.4538 114.293 56.7236C113.4 58.3429 112.536 59.9476 111.642 61.5669C110.554 63.5582 109.459 65.5714 108.393 67.5698C107.846 68.5764 107.269 69.5977 106.722 70.6043C106.7 70.6699 106.657 70.7283 106.599 70.8304ZM117.362 69.9267C117.675 70.0051 117.967 70.0763 118.258 70.1475C118.053 71.2178 117.723 72.2232 117.46 73.3229C115.415 72.9917 113.369 72.7333 111.294 72.3441C111.63 71.0986 111.973 69.904 112.301 68.6803C112.461 68.7086 112.621 68.7368 112.774 68.787C112.934 68.8152 113.087 68.8653 113.269 68.9007C113.312 68.7696 113.341 68.6822 113.377 68.5729C113.534 68.0193 113.713 67.4729 113.863 66.9411C114.113 66.0306 114.355 65.142 114.62 64.2606C114.884 63.3064 115.163 62.3812 115.427 61.427C115.52 61.1429 115.591 60.8516 115.677 60.5166C115.334 60.4529 115.021 60.3745 114.686 60.289C114.963 58.9274 115.32 57.6164 115.713 56.2687C115.96 56.3256 116.208 56.3825 116.448 56.4613C116.74 56.5325 117.002 56.6184 117.286 56.7115C118.124 56.9617 118.983 57.219 119.821 57.4692C120.652 57.7413 121.489 57.9915 122.32 58.2635C122.473 58.3136 122.641 58.3927 122.83 58.479C122.357 59.7762 121.869 61.0443 121.396 62.3414C121.017 62.2415 120.638 62.1417 120.238 62.0347C119.277 64.6727 118.323 67.2888 117.362 69.9267ZM123.059 63.2493C123.116 62.929 123.158 62.6524 123.207 62.3539C123.37 61.4148 123.554 60.4829 123.724 59.5219C123.731 59.5 123.745 59.4563 123.759 59.4126C123.78 59.2743 123.846 59.2231 123.984 59.2442C124.115 59.2871 124.239 59.2792 124.37 59.3221C125.652 59.6937 126.963 60.0505 128.245 60.422C130 60.9001 131.756 61.3783 133.504 61.8783C135.063 62.292 136.592 62.7204 138.144 63.156C138.144 63.156 138.166 63.1632 138.187 63.1703C138.537 63.2849 138.574 63.321 138.437 63.6636C137.863 65.194 137.297 66.7025 136.73 68.2111C136.709 68.2766 136.694 68.3204 136.666 68.4078C134.96 67.7766 133.262 67.1236 131.535 66.4853C131.377 66.8935 131.219 67.3016 131.09 67.695C130.797 68.5184 130.503 69.3419 130.209 70.1653C129.929 70.945 129.671 71.7319 129.385 72.5334C129.084 73.3787 128.775 74.2458 128.496 75.0983C128.295 75.6376 128.095 76.1768 127.916 76.7233C127.887 76.8107 127.836 76.891 127.801 77.0003C127.684 76.9863 127.546 76.9652 127.429 76.9513C126.396 76.7821 125.34 76.6058 124.306 76.4366C124.015 76.3654 123.993 76.3583 124.065 76.067C124.143 75.7538 124.221 75.4406 124.3 75.1275C124.621 73.9257 124.964 72.7311 125.292 71.5074C125.856 69.4898 126.405 67.4431 126.947 65.4183C127.005 65.2434 127.011 65.0761 127.039 64.9159C127.053 64.7995 127.002 64.7343 126.915 64.7057C126.762 64.6556 126.609 64.6054 126.485 64.5406C125.982 64.376 125.508 64.1966 125.034 64.0173C124.393 63.7588 123.744 63.5221 123.059 63.2493ZM138.705 68.374C138.762 68.0537 138.804 67.7771 138.853 67.4786C139.016 66.5395 139.2 65.6076 139.37 64.6466C139.377 64.6247 139.391 64.581 139.405 64.5373C139.426 64.399 139.492 64.3477 139.63 64.3688C139.761 64.4118 139.885 64.4039 140.016 64.4468C141.298 64.8184 142.609 65.1752 143.891 65.5467C145.646 66.0248 147.402 66.503 149.15 67.003C150.709 67.4167 152.238 67.8451 153.79 68.2807C153.79 68.2807 153.812 68.2878 153.833 68.295C154.183 68.4096 154.22 68.4457 154.083 68.7883C153.509 70.3187 152.943 71.8272 152.376 73.3358C152.355 73.4013 152.34 73.4451 152.312 73.5325C150.606 72.9013 148.908 72.2483 147.181 71.61C147.023 72.0182 146.865 72.4263 146.736 72.8197C146.443 73.6431 146.149 74.4666 145.855 75.29C145.575 76.0697 145.317 76.8566 145.031 77.6581C144.73 78.5034 144.421 79.3705 144.142 80.223C143.941 80.7623 143.741 81.3015 143.562 81.848C143.533 81.9354 143.482 82.0157 143.447 82.125C143.33 82.111 143.192 82.0899 143.075 82.076C142.042 81.9068 140.986 81.7305 139.952 81.5613C139.661 81.4901 139.639 81.483 139.711 81.1917C139.789 80.8785 139.867 80.5653 139.946 80.2522C140.267 79.0504 140.61 77.8558 140.938 76.6321C141.502 74.6145 142.051 72.5678 142.593 70.543C142.651 70.3681 142.657 70.2008 142.685 70.0406C142.699 69.9242 142.648 69.859 142.561 69.8304C142.408 69.7803 142.255 69.7301 142.131 69.6653C141.628 69.5007 141.154 69.3213 140.68 69.1419C140.039 68.8835 139.39 68.6468 138.705 68.374ZM155.165 69.2395C155.275 69.2753 155.34 69.2968 155.428 69.3255C156.674 69.7335 157.905 70.1853 159.158 70.5715C160.098 70.8794 161.03 71.1364 161.977 71.4223C163.616 71.8865 165.248 72.3726 166.887 72.8368C166.996 72.8726 167.106 72.9084 167.215 72.9442C167.426 73.0377 167.441 73.0667 167.362 73.3071C167.298 73.5038 167.233 73.7005 167.14 73.912C166.738 74.9905 166.337 76.0691 165.942 77.1258C165.921 77.1913 165.899 77.2569 165.871 77.3443C165.615 77.2366 165.382 77.136 165.142 77.0572C164.354 76.7267 163.567 76.3963 162.751 76.0805C162.095 75.793 161.432 75.5274 160.746 75.2545C160.149 75.0104 159.522 74.7809 158.903 74.5296C158.837 74.5081 158.75 74.4795 158.64 74.4437C158.273 75.122 158.08 75.8576 157.749 76.5721C157.881 76.6151 157.961 76.6656 158.077 76.6795C159.447 77.0797 160.823 77.458 162.2 77.8363C162.309 77.8721 162.397 77.9007 162.506 77.9365C162.637 77.9794 162.674 78.0884 162.616 78.1905C162.537 78.3582 162.458 78.5259 162.379 78.6936C161.897 79.6489 161.414 80.6042 160.954 81.5667C160.817 81.8365 160.795 81.8294 160.54 81.7216C159.972 81.4628 159.381 81.1967 158.805 80.9597C158.113 80.636 157.391 80.327 156.691 80.0252C156.604 79.9966 156.538 79.9751 156.436 79.9174C156.127 80.6391 155.854 81.3242 155.567 82.0531C155.676 82.0889 155.757 82.1394 155.829 82.139C156.965 82.4385 158.087 82.7091 159.201 83.0014C160.257 83.2505 161.291 83.4924 162.34 83.7633C162.806 83.8918 162.821 83.9208 162.649 84.3726C162.219 85.6114 161.767 86.8429 161.337 88.0816C161.237 88.3149 161.207 88.3296 160.996 88.2362C160.522 88.0568 160.071 87.8846 159.619 87.7124C158.263 87.1958 156.929 86.6863 155.589 86.1988C155.093 86.0122 154.627 85.811 154.124 85.6464C153.723 85.5394 153.286 85.4689 152.879 85.3838C152.027 85.25 151.175 85.1163 150.353 84.9678C150.258 84.961 150.192 84.9396 150.105 84.9109C150.141 84.8016 150.148 84.7071 150.176 84.6196C150.341 84.1896 150.514 83.7378 150.657 83.3006C151.215 81.523 151.795 79.7526 152.346 77.9968C152.61 77.1881 152.868 76.4012 153.104 75.6072C153.713 73.7493 154.299 71.8843 154.908 70.0264C154.994 69.7641 155.072 69.5237 155.165 69.2395ZM168.628 73.2378C168.738 73.2736 168.847 73.3094 168.934 73.338C170.268 73.7747 171.579 74.2043 172.905 74.6628C173.991 75.0426 175.099 75.4296 176.113 76.028C176.937 76.5401 177.726 77.0888 178.333 77.8202C179.058 78.711 179.434 79.7055 179.295 80.87C179.189 81.6342 178.88 82.2832 178.396 82.8748C177.572 83.912 176.484 84.4995 175.257 84.8478C175.126 84.8775 174.973 84.9002 174.836 84.9518C175.312 87.1167 176.152 89.1344 176.919 91.2251C175.372 91.5895 173.809 91.7795 172.195 91.8316C171.891 90.764 171.638 89.6889 171.385 88.6137C171.132 87.5386 170.93 86.4559 170.808 85.351C170.168 85.3107 169.571 85.2848 168.953 85.2516C168.838 85.5286 168.723 85.8056 168.615 86.0607C168.242 87.0518 167.855 88.014 167.467 88.9761C167.28 89.4716 167.28 89.4716 166.771 89.4015C165.832 89.2392 164.893 89.0768 163.953 88.9144C163.881 88.9148 163.815 88.8933 163.75 88.8718C163.778 88.7844 163.778 88.7117 163.799 88.6461C164.043 87.9029 164.293 87.1379 164.537 86.3948C164.916 85.1636 165.295 83.9324 165.674 82.7013C166.103 81.3171 166.561 79.9182 166.99 78.534C167.291 77.5433 167.598 76.5307 167.899 75.5399C168.142 74.7968 168.356 74.0683 168.578 73.318C168.585 73.2962 168.614 73.2815 168.628 73.2378ZM171.717 78.2911C171.286 79.3844 170.863 80.4558 170.425 81.5709C170.716 81.5694 170.927 81.5901 171.167 81.5961C171.887 81.6142 172.599 81.5086 173.274 81.2214C173.644 81.0522 173.934 80.8325 174.15 80.4677C174.41 80.0445 174.327 79.5576 173.969 79.2467C173.896 79.1744 173.801 79.0949 173.699 79.0372C173.123 78.6547 172.431 78.4765 171.717 78.2911Z" fill="black"/>
</g>
<defs>
<clipPath id="clip0_178_5379">
<rect width="241.525" height="87.2707" fill="white" transform="translate(27.6235) rotate(18.453)"/>
</clipPath>
</defs>
</svg>
